SplineFontDB: 3.0
FontName: Parastoo
FullName: Parastoo
FamilyName: Parastoo
Weight: Regular
Copyright: Copyright (c) 2003 by Bitstream, Inc. All Rights Reserved.\nDejaVu changes are in public domain\nCopyright (c) 2015 by Saber Rastikerdar. All Rights Reserved.
Version: 0.2.1
ItalicAngle: 0
UnderlinePosition: -100
UnderlineWidth: 100
Ascent: 1536
Descent: 512
LayerCount: 2
Layer: 0 1 "Back"  1
Layer: 1 1 "Fore"  0
XUID: [1021 502 1027637223 7335572]
UniqueID: 4193122
UseUniqueID: 1
FSType: 0
OS2Version: 1
OS2_WeightWidthSlopeOnly: 0
OS2_UseTypoMetrics: 1
CreationTime: 1431850356
ModificationTime: 1448786274
PfmFamily: 17
TTFWeight: 400
TTFWidth: 5
LineGap: 0
VLineGap: 0
Panose: 2 11 6 3 3 8 4 2 2 4
OS2TypoAscent: 2000
OS2TypoAOffset: 0
OS2TypoDescent: -1000
OS2TypoDOffset: 0
OS2TypoLinegap: 0
OS2WinAscent: 2000
OS2WinAOffset: 0
OS2WinDescent: 1000
OS2WinDOffset: 0
HheadAscent: 2000
HheadAOffset: 0
HheadDescent: -1000
HheadDOffset: 0
OS2SubXSize: 1331
OS2SubYSize: 1433
OS2SubXOff: 0
OS2SubYOff: 286
OS2SupXSize: 1331
OS2SupYSize: 1433
OS2SupXOff: 0
OS2SupYOff: 983
OS2StrikeYSize: 102
OS2StrikeYPos: 530
OS2Vendor: 'PfEd'
OS2CodePages: 600001ff.dfff0000
Lookup: 1 0 0 "'case' Case-Sensitive Forms in Latin lookup 0"  {"'case' Case-Sensitive Forms in Latin lookup 0 subtable"  } ['case' ('DFLT' <'dflt' > 'latn' <'CAT ' 'ESP ' 'GAL ' 'dflt' > ) ]
Lookup: 6 1 0 "'ccmp' Glyph Composition/Decomposition lookup 2"  {"'ccmp' Glyph Composition/Decomposition lookup 2 subtable"  } ['ccmp' ('arab' <'KUR ' 'SND ' 'URD ' 'dflt' > 'hebr' <'dflt' > 'nko ' <'dflt' > ) ]
Lookup: 6 0 0 "'ccmp' Glyph Composition/Decomposition lookup 3"  {"'ccmp' Glyph Composition/Decomposition lookup 3 subtable"  } ['ccmp' ('cyrl' <'MKD ' 'SRB ' 'dflt' > 'grek' <'dflt' > 'latn' <'ISM ' 'KSM ' 'LSM ' 'MOL ' 'NSM ' 'ROM ' 'SKS ' 'SSM ' 'dflt' > ) ]

StartChar: afii57388
Encoding: 1548 1548 2
Width: 666
VWidth: 2054
GlyphClass: 2
Flags: W
LayerCount: 2
Fore
SplineSet
362.518 243.54 m 1,0,-1
 389.409 243.54 l 2,1,2
 470.148 243.54 470.148 243.54 470.148 146.18 c 2,3,-1
 470.148 94.5098 l 2,4,5
 470.148 0 470.148 0 390.248 0 c 2,6,-1
 319.039 0 l 2,7,8
 235.219 -0.884766 235.219 -0.884766 235.219 90.7402 c 2,9,-1
 235.219 204.18 l 0,10,11
 254.018 407.588 254.018 407.588 444.659 569.698 c 1,12,-1
 503.059 540.527 l 1,13,14
 364.018 387.588 364.018 387.588 362.518 243.54 c 1,0,-1
EndSplineSet
EndChar

StartChar: uni0615
Encoding: 1557 1557 3
Width: 0
VWidth: 2186
GlyphClass: 4
Flags: W
AnchorPoint: "Anchor-10" 547.84 1279.5 mark 0
AnchorPoint: "Anchor-9" 547.84 1279.5 mark 0
AnchorPoint: "Anchor-1" 547.84 1975 basemark 0
AnchorPoint: "Anchor-1" 547.84 1279.5 mark 0
LayerCount: 2
Fore
SplineSet
466.096 1456.96 m 1,0,-1
 552.12 1456.96 l 2,1,2
 639.138 1456.96 639.138 1456.96 665.862 1472.75 c 0,3,4
 697.288 1492.32 697.288 1492.32 713.059 1508.3 c 128,-1,5
 728.83 1524.27 728.83 1524.27 728.83 1541.65 c 0,6,7
 728.83 1583.09 728.83 1583.09 689.03 1604.94 c 1,8,9
 681.399 1607.6 681.399 1607.6 672.751 1605.46 c 128,-1,10
 664.102 1603.31 664.102 1603.31 640.309 1592.64 c 128,-1,11
 616.515 1581.97 616.515 1581.97 601.865 1576.19 c 0,12,13
 543.049 1552.44 543.049 1552.44 483.147 1478.12 c 2,14,-1
 466.096 1456.96 l 1,0,-1
576.73 1374.89 m 2,15,-1
 282.64 1374.89 l 1,16,-1
 282.64 1456.96 l 1,17,-1
 369.31 1456.96 l 1,18,-1
 369.31 1883.89 l 1,19,-1
 452.45 1883.89 l 1,20,-1
 452.45 1497.67 l 1,21,-1
 477.109 1547.67 l 2,22,23
 513.381 1621.22 513.381 1621.22 619.878 1662.18 c 0,24,25
 682.718 1686.12 682.718 1686.12 752.956 1660.03 c 0,26,27
 814.11 1636.51 814.11 1636.51 814.11 1557.7 c 0,28,29
 814.11 1466.67 814.11 1466.67 750.648 1417.09 c 0,30,31
 696.384 1374.89 696.384 1374.89 576.73 1374.89 c 2,15,-1
EndSplineSet
EndChar

StartChar: uni061B
Encoding: 1563 1563 4
Width: 654
VWidth: 2054
GlyphClass: 2
Flags: W
LayerCount: 2
Fore
SplineSet
437.015 184.68 m 6,0,-1
 437.015 21.6602 l 6,1,2
 437.015 8.375 437.015 8.375 433.684 4.1875 c 132,-1,3
 430.354 0 430.354 0 422.195 0 c 6,4,-1
 260.315 0 l 6,5,6
 249.941 0 249.941 0 246.008 4.38281 c 132,-1,7
 242.075 8.76465 242.075 8.76465 242.075 21.6602 c 6,8,-1
 242.075 183.54 l 6,9,10
 242.075 195.047 242.075 195.047 245.868 198.983 c 132,-1,11
 249.66 202.92 249.66 202.92 260.315 202.92 c 6,12,-1
 418.775 202.92 l 6,13,14
 429.572 202.92 429.572 202.92 433.293 199.198 c 132,-1,15
 437.015 195.477 437.015 195.477 437.015 184.68 c 6,0,-1
344.574 597.451 m 1,16,-1
 371.466 597.451 l 2,17,18
 452.205 597.452 452.205 597.452 452.205 500.091 c 2,19,-1
 452.205 448.421 l 2,20,21
 452.205 353.911 452.205 353.911 372.305 353.911 c 2,22,-1
 301.096 353.911 l 2,23,24
 217.276 353.027 217.276 353.027 217.275 444.651 c 2,25,-1
 217.275 558.091 l 0,26,27
 236.074 761.499 236.074 761.499 426.716 923.61 c 1,28,-1
 485.115 894.439 l 1,29,30
 346.074 741.499 346.074 741.499 344.574 597.451 c 1,16,-1
EndSplineSet
EndChar

StartChar: uni061F
Encoding: 1567 1567 5
Width: 1087
GlyphClass: 2
Flags: W
LayerCount: 2
Fore
SplineSet
697.015 184.68 m 2,0,-1
 697.015 21.6602 l 2,1,2
 697.015 8.375 697.015 8.375 693.684 4.1875 c 128,-1,3
 690.354 0 690.354 0 682.195 0 c 2,4,-1
 520.315 0 l 2,5,6
 509.941 0 509.941 0 506.008 4.38281 c 128,-1,7
 502.075 8.76465 502.075 8.76465 502.075 21.6602 c 2,8,-1
 502.075 183.54 l 2,9,10
 502.075 195.047 502.075 195.047 505.868 198.983 c 128,-1,11
 509.66 202.92 509.66 202.92 520.315 202.92 c 2,12,-1
 678.775 202.92 l 2,13,14
 689.572 202.92 689.572 202.92 693.293 199.198 c 128,-1,15
 697.015 195.477 697.015 195.477 697.015 184.68 c 2,0,-1
513 358 m 1,16,-1
 513 474 l 2,17,18
 513 526.503 513 526.503 509.95 556.995 c 0,19,20
 506.861 587.887 506.861 587.887 500.572 609.898 c 0,21,22
 492.025 636.608 492.025 636.608 471.554 664.427 c 0,23,24
 448.767 695.392 448.767 695.392 403.989 739.152 c 2,25,-1
 315.948 825.193 l 1,26,27
 227.091 910.1 227.091 910.1 191.852 977.152 c 0,28,29
 157 1043.47 157 1043.47 157 1117 c 0,30,31
 157 1271.44 157 1271.44 265.063 1365.46 c 0,32,33
 373.736 1460 373.736 1460 554 1460 c 0,34,35
 669.458 1460 669.458 1460 750.713 1432.4 c 0,36,37
 837.966 1405.94 837.966 1405.94 917.955 1359 c 1,38,-1
 868.626 1228.71 l 1,39,40
 702.899 1315.01 702.899 1315.01 589 1316 c 0,41,42
 477.356 1316 477.356 1316 409.069 1258.66 c 0,43,44
 340 1200.66 340 1200.66 340 1107 c 0,45,46
 340 1055.46 340 1055.46 366.71 1006.23 c 0,47,48
 392.99 957.795 392.99 957.795 451.078 903.781 c 1,49,-1
 541.03 814.829 l 1,50,51
 629.622 730.171 629.622 730.171 656.816 667.044 c 128,-1,52
 684 603.94 684 603.94 684 505 c 2,53,-1
 684 358 l 1,54,-1
 513 358 l 1,16,-1
EndSplineSet
EndChar

StartChar: uni0621
Encoding: 1569 1569 6
Width: 724
VWidth: 2289
GlyphClass: 2
Flags: W
AnchorPoint: "Anchor-7" 356.254 -233.511 basechar 0
AnchorPoint: "Anchor-10" 305.904 1029.48 basechar 0
LayerCount: 2
Fore
SplineSet
75.5352 -22.4277 m 1,0,-1
 75.5352 107.823 l 1,1,2
 236.962 152.859 236.962 152.859 332.037 206.849 c 5,3,4
 79.3477 249.556 79.3477 249.556 79.3477 465.469 c 0,5,6
 79.3477 639.116 79.3477 639.116 213.343 721.685 c 128,-1,7
 347.341 804.254 347.341 804.254 554.505 758.41 c 1,8,-1
 554.505 621.417 l 1,9,10
 472.738 644.498 472.738 644.498 413.428 642.803 c 0,11,12
 363.879 641.871 363.879 641.871 314.832 617.349 c 0,13,14
 219.179 569.523 219.179 569.523 219.179 456.566 c 0,15,16
 219.179 320.465 219.179 320.465 388.868 289.509 c 0,17,18
 451.768 277.852 451.768 277.852 510.768 292.175 c 0,19,20
 612.893 319.804 612.893 319.804 628.001 328.119 c 1,21,-1
 628.001 192.897 l 1,22,23
 545.112 139.895 545.112 139.895 366.828 70.3213 c 0,24,25
 174.844 -4.48145 174.844 -4.48145 75.5352 -22.4277 c 1,0,-1
EndSplineSet
EndChar

StartChar: uni0627
Encoding: 1575 1575 12
Width: 431
VWidth: 2267
GlyphClass: 2
Flags: W
AnchorPoint: "Anchor-10" 216.033 1540.03 basechar 0
AnchorPoint: "Anchor-7" 191.453 -282.144 basechar 0
LayerCount: 2
Fore
SplineSet
299.18 1427.04 m 5,0,-1
 267.18 191 l 6,1,2
 263.465 47.5078 263.465 47.5078 194.167 -0.583984 c 5,3,4
 127.766 1284.65 l 5,5,6
 299.18 1427.04 l 5,0,-1
EndSplineSet
Substitution2: "'fina' Terminal Forms in Arabic lookup 9 subtable" uniFE8E
EndChar

StartChar: uni062D
Encoding: 1581 1581 18
Width: 1379
VWidth: 2287
GlyphClass: 2
Flags: W
AnchorPoint: "Anchor-10" 525.88 1272.22 basechar 0
AnchorPoint: "Anchor-7" 369.835 -795.086 basechar 0
LayerCount: 2
Fore
SplineSet
427.64 308.984 m 4,0,1
 231.738 157.058 231.738 157.058 235.731 -86.5381 c 4,2,3
 239.006 -286.979 239.006 -286.979 401.202 -388.945 c 4,4,5
 567.096 -493.237 567.096 -493.237 893.624 -461.727 c 4,6,7
 1127.17 -439.19 1127.17 -439.19 1273.36 -333.811 c 5,8,-1
 1270.62 -361.727 l 6,9,10
 1250.22 -569.601 1250.22 -569.601 971.624 -630.727 c 4,11,12
 890.725 -648.477 890.725 -648.477 803.624 -651.727 c 4,13,14
 659.942 -657.251 659.942 -657.251 549 -636 c 4,15,16
 140.603 -555.109 140.603 -555.109 94.5244 -176.803 c 4,17,18
 50.1061 187.87 50.1061 187.87 395.64 431 c 4,19,20
 597.384 572.208 597.384 572.208 1002 662.537 c 5,21,22
 943.229 668.741 943.229 668.741 820.339 732.491 c 4,23,24
 665.485 813.377 665.485 813.377 558.093 804.329 c 4,25,26
 433.743 793.85 433.743 793.85 328.499 585.652 c 5,27,-1
 314.72 586.434 l 6,28,29
 285.622 588.086 285.622 588.086 314.765 720.266 c 4,30,31
 323.632 760.484 323.632 760.484 354.686 824.492 c 4,32,33
 416.805 952.865 416.805 952.865 556.686 956.492 c 4,34,35
 684.413 960.49 684.413 960.49 919.979 825.771 c 4,36,37
 1033.93 760.606 1033.93 760.606 1255.66 736.238 c 5,38,-1
 1232.34 592.498 l 5,39,40
 684.322 507.049 684.322 507.049 427.64 308.984 c 4,0,1
EndSplineSet
Substitution2: "'fina' Terminal Forms in Arabic lookup 9 subtable" uniFEA2
Substitution2: "'medi' Medial Forms in Arabic lookup 11 subtable" uniFEA4
Substitution2: "'init' Initial Forms in Arabic lookup 13 subtable" uniFEA3
EndChar

StartChar: uni062F
Encoding: 1583 1583 20
Width: 872
VWidth: 2285
GlyphClass: 2
Flags: W
AnchorPoint: "Anchor-10" 174.131 1143.75 basechar 0
AnchorPoint: "Anchor-7" 226.202 -246.157 basechar 0
LayerCount: 2
Fore
SplineSet
661.054 342.808 m 1,0,1
 591.109 536.4 591.109 536.4 340.649 703.846 c 1,2,-1
 416.054 909.808 l 1,3,4
 671.433 690.692 671.433 690.692 741.054 490.808 c 0,5,6
 790.715 348.228 790.715 348.228 780.116 264.867 c 0,7,8
 772.506 205.013 772.506 205.013 750.649 158.404 c 1,9,10
 680.694 -22.9502 680.694 -22.9502 315.798 3.5 c 0,11,-1
 283.119 7.18164 l 0,12,13
 91.1851 34.911 91.1851 34.911 91.6172 203.13 c 2,14,-1
 91.9541 334.3 l 1,15,16
 104 340.345 104 340.345 118.454 334.3 c 1,17,18
 135.85 196.71 135.85 196.71 331.35 184.866 c 0,19,20
 545.125 172.232 545.125 172.232 617.799 211 c 0,21,22
 687.668 247.047 687.668 247.047 661.054 342.808 c 1,0,1
EndSplineSet
Substitution2: "'fina' Terminal Forms in Arabic lookup 9 subtable" uniFEAA
EndChar

StartChar: uni0631
Encoding: 1585 1585 22
Width: 816
VWidth: 2290
GlyphClass: 2
Flags: W
AnchorPoint: "Anchor-7" 534.396 -734.687 basechar 0
AnchorPoint: "Anchor-10" 447.274 933.234 basechar 0
LayerCount: 2
Fore
SplineSet
535.953 322.317 m 5,0,1
 636.256 503.844 l 5,2,3
 732.782 319.169 732.782 319.169 728.781 63.1689 c 5,4,5
 683.946 -400.928 683.946 -400.928 326.953 -443 c 4,6,7
 161.898 -462.452 161.898 -462.452 19.6104 -330.909 c 5,8,9
 628.953 -262.655 628.953 -262.655 631.953 135.317 c 5,10,11
 631.953 185.317 631.953 185.317 535.953 322.317 c 5,0,1
EndSplineSet
PairPos2: "'kern' Horizontal Kerning lookup 15-1" uni06CC dx=-141 dy=0 dh=-141 dv=0 dx=0 dy=0 dh=0 dv=0
PairPos2: "'kern' Horizontal Kerning lookup 15-1" uniFEEB dx=-213 dy=0 dh=-213 dv=0 dx=0 dy=0 dh=0 dv=0
PairPos2: "'kern' Horizontal Kerning lookup 15-1" uniFB7C dx=-141 dy=0 dh=-141 dv=0 dx=0 dy=0 dh=0 dv=0
PairPos2: "'kern' Horizontal Kerning lookup 15-1" uniFB58 dx=71 dy=0 dh=71 dv=0 dx=0 dy=0 dh=0 dv=0
PairPos2: "'kern' Horizontal Kerning lookup 15-1" uniFEF3 dx=99 dy=0 dh=99 dv=0 dx=0 dy=0 dh=0 dv=0
PairPos2: "'kern' Horizontal Kerning lookup 15-1" uniFBFE dx=99 dy=0 dh=99 dv=0 dx=0 dy=0 dh=0 dv=0
PairPos2: "'kern' Horizontal Kerning lookup 15-1" uniFEDF dx=-213 dy=0 dh=-213 dv=0 dx=0 dy=0 dh=0 dv=0
PairPos2: "'kern' Horizontal Kerning lookup 15-1" uniFB90 dx=-213 dy=0 dh=-213 dv=0 dx=0 dy=0 dh=0 dv=0
PairPos2: "'kern' Horizontal Kerning lookup 15-1" uni06A9 dx=-213 dy=0 dh=-213 dv=0 dx=0 dy=0 dh=0 dv=0
PairPos2: "'kern' Horizontal Kerning lookup 15-1" uni0649 dx=-141 dy=0 dh=-141 dv=0 dx=0 dy=0 dh=0 dv=0
PairPos2: "'kern' Horizontal Kerning lookup 15-1" uni0647 dx=-213 dy=0 dh=-213 dv=0 dx=0 dy=0 dh=0 dv=0
PairPos2: "'kern' Horizontal Kerning lookup 15-1" uniFEE7 dx=-213 dy=0 dh=-213 dv=0 dx=0 dy=0 dh=0 dv=0
PairPos2: "'kern' Horizontal Kerning lookup 15-1" uniFEE3 dx=-213 dy=0 dh=-213 dv=0 dx=0 dy=0 dh=0 dv=0
PairPos2: "'kern' Horizontal Kerning lookup 15-1" uni0645 dx=-213 dy=0 dh=-213 dv=0 dx=0 dy=0 dh=0 dv=0
PairPos2: "'kern' Horizontal Kerning lookup 15-1" uni0644 dx=-141 dy=0 dh=-141 dv=0 dx=0 dy=0 dh=0 dv=0
PairPos2: "'kern' Horizontal Kerning lookup 15-1" uniFEDB dx=-213 dy=0 dh=-213 dv=0 dx=0 dy=0 dh=0 dv=0
PairPos2: "'kern' Horizontal Kerning lookup 15-1" uniFED7 dx=-213 dy=0 dh=-213 dv=0 dx=0 dy=0 dh=0 dv=0
PairPos2: "'kern' Horizontal Kerning lookup 15-1" uni0642 dx=-141 dy=0 dh=-141 dv=0 dx=0 dy=0 dh=0 dv=0
PairPos2: "'kern' Horizontal Kerning lookup 15-1" uniFED3 dx=-213 dy=0 dh=-213 dv=0 dx=0 dy=0 dh=0 dv=0
PairPos2: "'kern' Horizontal Kerning lookup 15-1" uni0641 dx=-213 dy=0 dh=-213 dv=0 dx=0 dy=0 dh=0 dv=0
PairPos2: "'kern' Horizontal Kerning lookup 15-1" uniFECF dx=-213 dy=0 dh=-213 dv=0 dx=0 dy=0 dh=0 dv=0
PairPos2: "'kern' Horizontal Kerning lookup 15-1" uniFECB dx=-213 dy=0 dh=-213 dv=0 dx=0 dy=0 dh=0 dv=0
PairPos2: "'kern' Horizontal Kerning lookup 15-1" uniFEC7 dx=-213 dy=0 dh=-213 dv=0 dx=0 dy=0 dh=0 dv=0
PairPos2: "'kern' Horizontal Kerning lookup 15-1" uni0638 dx=-213 dy=0 dh=-213 dv=0 dx=0 dy=0 dh=0 dv=0
PairPos2: "'kern' Horizontal Kerning lookup 15-1" uniFEC3 dx=-213 dy=0 dh=-213 dv=0 dx=0 dy=0 dh=0 dv=0
PairPos2: "'kern' Horizontal Kerning lookup 15-1" uni0637 dx=-213 dy=0 dh=-213 dv=0 dx=0 dy=0 dh=0 dv=0
PairPos2: "'kern' Horizontal Kerning lookup 15-1" uniFEBF dx=-213 dy=0 dh=-213 dv=0 dx=0 dy=0 dh=0 dv=0
PairPos2: "'kern' Horizontal Kerning lookup 15-1" uni0636 dx=-213 dy=0 dh=-213 dv=0 dx=0 dy=0 dh=0 dv=0
PairPos2: "'kern' Horizontal Kerning lookup 15-1" uniFEBB dx=-213 dy=0 dh=-213 dv=0 dx=0 dy=0 dh=0 dv=0
PairPos2: "'kern' Horizontal Kerning lookup 15-1" uni0635 dx=-213 dy=0 dh=-213 dv=0 dx=0 dy=0 dh=0 dv=0
PairPos2: "'kern' Horizontal Kerning lookup 15-1" uniFEB7 dx=-213 dy=0 dh=-213 dv=0 dx=0 dy=0 dh=0 dv=0
PairPos2: "'kern' Horizontal Kerning lookup 15-1" uni0634 dx=-213 dy=0 dh=-213 dv=0 dx=0 dy=0 dh=0 dv=0
PairPos2: "'kern' Horizontal Kerning lookup 15-1" uniFEB3 dx=-213 dy=0 dh=-213 dv=0 dx=0 dy=0 dh=0 dv=0
PairPos2: "'kern' Horizontal Kerning lookup 15-1" uni0633 dx=-213 dy=0 dh=-213 dv=0 dx=0 dy=0 dh=0 dv=0
PairPos2: "'kern' Horizontal Kerning lookup 15-1" uni0630 dx=-213 dy=0 dh=-213 dv=0 dx=0 dy=0 dh=0 dv=0
PairPos2: "'kern' Horizontal Kerning lookup 15-1" uni062F dx=-213 dy=0 dh=-213 dv=0 dx=0 dy=0 dh=0 dv=0
PairPos2: "'kern' Horizontal Kerning lookup 15-1" uniFEA7 dx=-213 dy=0 dh=-213 dv=0 dx=0 dy=0 dh=0 dv=0
PairPos2: "'kern' Horizontal Kerning lookup 15-1" uniFEA3 dx=-213 dy=0 dh=-213 dv=0 dx=0 dy=0 dh=0 dv=0
PairPos2: "'kern' Horizontal Kerning lookup 15-1" uniFE9F dx=-213 dy=0 dh=-213 dv=0 dx=0 dy=0 dh=0 dv=0
PairPos2: "'kern' Horizontal Kerning lookup 15-1" uniFE9B dx=-213 dy=0 dh=-213 dv=0 dx=0 dy=0 dh=0 dv=0
PairPos2: "'kern' Horizontal Kerning lookup 15-1" uni062B dx=-213 dy=0 dh=-213 dv=0 dx=0 dy=0 dh=0 dv=0
PairPos2: "'kern' Horizontal Kerning lookup 15-1" uniFE97 dx=-213 dy=0 dh=-213 dv=0 dx=0 dy=0 dh=0 dv=0
PairPos2: "'kern' Horizontal Kerning lookup 15-1" uni062A dx=-213 dy=0 dh=-213 dv=0 dx=0 dy=0 dh=0 dv=0
PairPos2: "'kern' Horizontal Kerning lookup 15-1" uni0629 dx=-99 dy=0 dh=-99 dv=0 dx=0 dy=0 dh=0 dv=0
PairPos2: "'kern' Horizontal Kerning lookup 15-1" uniFE91 dx=-99 dy=0 dh=-99 dv=0 dx=0 dy=0 dh=0 dv=0
PairPos2: "'kern' Horizontal Kerning lookup 15-1" uni0628 dx=-213 dy=0 dh=-213 dv=0 dx=0 dy=0 dh=0 dv=0
PairPos2: "'kern' Horizontal Kerning lookup 15-1" uni0627 dx=-241 dy=0 dh=-241 dv=0 dx=0 dy=0 dh=0 dv=0
PairPos2: "'kern' Horizontal Kerning lookup 15-1" uni0622 dx=-241 dy=0 dh=-241 dv=0 dx=0 dy=0 dh=0 dv=0
PairPos2: "'kern' Horizontal Kerning lookup 15-1" uniFB94 dx=-213 dy=0 dh=-213 dv=0 dx=0 dy=0 dh=0 dv=0
PairPos2: "'kern' Horizontal Kerning lookup 15-1" afii57509 dx=-213 dy=0 dh=-213 dv=0 dx=0 dy=0 dh=0 dv=0
PairPos2: "'kern' Horizontal Kerning lookup 15-1" uniFB56 dx=-213 dy=0 dh=-213 dv=0 dx=0 dy=0 dh=0 dv=0
PairPos2: "'kern' Horizontal Kerning lookup 15-1" afii57506 dx=-213 dy=0 dh=-213 dv=0 dx=0 dy=0 dh=0 dv=0
Substitution2: "'fina' Terminal Forms in Arabic lookup 9 subtable" uniFEAE
EndChar

StartChar: uni0633
Encoding: 1587 1587 24
Width: 2265
VWidth: 2290
GlyphClass: 2
Flags: W
AnchorPoint: "Anchor-7" 296.459 -710.369 basechar 0
AnchorPoint: "Anchor-10" 499.989 890.793 basechar 0
LayerCount: 2
Fore
SplineSet
1421.81 0 m 0,0,-1
 1383.75 -0.966797 l 2,1,2
 1299.93 -3.0957 1299.93 -3.0957 1258.58 83.1084 c 1,3,4
 1268.58 37.1084 1268.58 37.1084 1266.58 0 c 1,5,6
 1186.55 -471.442 1186.55 -471.442 667.084 -481.362 c 0,7,8
 303.238 -488.027 303.238 -488.027 163.697 -287.568 c 0,9,10
 54.8994 -130.017 54.8994 -130.017 114.188 107.396 c 0,11,12
 129.817 169.977 129.817 169.977 164.933 273.351 c 0,13,14
 186.841 337.842 186.841 337.842 206 379.108 c 1,15,-1
 274.45 334.109 l 1,16,17
 170.739 40.8914 170.739 40.8914 237.178 -100.305 c 0,18,19
 339.242 -317.212 339.242 -317.212 662.852 -311.804 c 0,20,21
 1131.32 -303.834 1131.32 -303.834 1155.58 0 c 1,22,-1
 1023.58 408.108 l 1,23,-1
 1173.33 549.794 l 1,24,25
 1215.92 322.382 1215.92 322.382 1243.93 263.396 c 0,26,27
 1290.84 164.622 1290.84 164.622 1391.45 169.392 c 2,28,-1
 1425.2 170.992 l 0,29,30
 1578.86 169.466 1578.86 169.466 1620.6 300.535 c 0,31,32
 1637.28 352.914 1637.28 352.914 1638.96 431.416 c 1,33,34
 1643.96 487.022 1643.96 487.022 1677.46 487.302 c 0,35,36
 1718.93 487.669 1718.93 487.669 1722.96 436.916 c 1,37,-1
 1724.08 414.141 l 2,38,39
 1735.31 184.335 1735.31 184.335 1894.34 179.642 c 1,40,41
 2063.38 179.642 2063.38 179.642 2057.43 343.5 c 0,42,43
 2056.01 388.028 2056.01 388.028 1934.93 607.62 c 1,44,-1
 2078.45 737.838 l 1,45,46
 2163.95 558.432 2163.95 558.432 2173.54 391.615 c 0,47,48
 2183.82 212.644 2183.82 212.644 2097.21 109.655 c 0,49,50
 2002.88 -3.77148 2002.88 -3.77148 1888.14 0.524414 c 1,51,52
 1826.46 -0.0107422 1826.46 -0.0107422 1792.15 16.4541 c 0,53,54
 1696.22 62.4795 1696.22 62.4795 1658.8 170.513 c 1,55,56
 1599.28 -0.213867 1599.28 -0.213867 1421.81 0 c 0,0,-1
EndSplineSet
Substitution2: "'fina' Terminal Forms in Arabic lookup 9 subtable" uniFEB2
Substitution2: "'medi' Medial Forms in Arabic lookup 11 subtable" uniFEB4
Substitution2: "'init' Initial Forms in Arabic lookup 13 subtable" uniFEB3
EndChar

StartChar: uni0635
Encoding: 1589 1589 26
Width: 2346
VWidth: 2291
GlyphClass: 2
Flags: W
AnchorPoint: "Anchor-10" 388.398 892.124 basechar 0
AnchorPoint: "Anchor-7" 351.298 -748.756 basechar 0
LayerCount: 2
Fore
SplineSet
1468.28 0 m 2,0,1
 1321.53 0.380032 1321.53 0.380032 1260.58 83.1084 c 1,2,3
 1270.58 37.1086 1270.58 37.1086 1268.58 -0 c 1,4,5
 1188.55 -471.442 1188.55 -471.442 669.084 -481.362 c 0,6,7
 305.238 -488.027 305.238 -488.027 165.697 -287.568 c 0,8,9
 56.8994 -130.017 56.8994 -130.017 116.188 107.396 c 0,10,11
 131.817 169.977 131.817 169.977 166.933 273.351 c 0,12,13
 193.618 351.907 193.618 351.907 206 379.108 c 1,14,-1
 271.839 325.704 l 1,15,16
 174.405 37.3512 174.405 37.3512 239.178 -100.305 c 0,17,18
 341.242 -317.212 341.242 -317.212 664.852 -311.804 c 0,19,20
 1133.32 -303.834 1133.32 -303.834 1157.58 0 c 1,21,-1
 1025.58 408.108 l 1,22,-1
 1175.33 549.794 l 1,23,24
 1221.53 303.094 1221.53 303.094 1245.93 263.396 c 8,25,26
 1297.36 182.33 1297.36 182.33 1384.34 200.704 c 1,27,28
 1576.17 472.246 1576.17 472.246 1666.34 560.704 c 0,29,30
 1846.02 733.756 1846.02 733.756 2007.13 722.529 c 0,31,32
 2239.54 706.815 2239.54 706.815 2254.07 439.104 c 4,33,34
 2268.82 177.211 2268.82 177.211 2068.07 76.1035 c 0,35,36
 1914.67 -1.156 1914.67 -1.156 1742.81 -0.710938 c 2,37,-1
 1468.28 0 l 2,0,1
1492.06 179.099 m 1,38,-1
 1681.56 179.099 l 2,39,40
 1871.45 179.099 1871.45 179.099 2018.98 228.126 c 0,41,42
 2141.11 267.346 2141.11 267.346 2135.13 412.529 c 0,43,44
 2128.08 605.043 2128.08 605.043 1947.87 564.348 c 0,45,46
 1862.34 545.033 1862.34 545.033 1730.05 424.088 c 0,47,48
 1590.07 296.104 1590.07 296.104 1492.06 179.099 c 1,38,-1
EndSplineSet
Substitution2: "'fina' Terminal Forms in Arabic lookup 9 subtable" uniFEBA
Substitution2: "'medi' Medial Forms in Arabic lookup 11 subtable" uniFEBC
Substitution2: "'init' Initial Forms in Arabic lookup 13 subtable" uniFEBB
EndChar

StartChar: uni0637
Encoding: 1591 1591 28
Width: 1317
VWidth: 2291
GlyphClass: 2
Flags: W
AnchorPoint: "Anchor-10" 258.828 1526.61 basechar 0
AnchorPoint: "Anchor-7" 706.148 -317.606 basechar 0
LayerCount: 2
Fore
SplineSet
242.422 178.992 m 1,0,1
 243.062 179.798 243.062 179.798 235.604 476.371 c 2,2,3
 225.367 922.825 225.367 922.825 222.385 1002 c 0,4,5
 213.169 1246.96 213.169 1246.96 188.163 1286.77 c 1,6,-1
 355.755 1429.02 l 1,7,-1
 355.112 202.301 l 1,8,9
 544.643 473.843 544.643 473.843 637.112 561.301 c 0,10,11
 816.795 734.353 816.795 734.353 977.901 723.126 c 0,12,13
 1211.32 707.412 1211.32 707.412 1225.84 439.7 c 0,14,15
 1240.56 177.81 1240.56 177.81 1038.84 76.7002 c 0,16,17
 885.448 -0.559325 885.448 -0.559325 713.584 -0.114258 c 2,18,-1
 439.054 0.59668 l 2,19,-1
 204.696 0.141159 l 2,20,21
 52.6963 -0.154283 52.6963 -0.154283 52.6963 164 c 2,22,-1
 52.6963 178.958 l 1,23,-1
 242.422 178.992 l 1,0,1
462.834 179.695 m 1,24,-1
 652.334 179.695 l 2,25,26
 837.085 179.695 837.085 179.695 989.753 228.723 c 0,27,28
 1111.88 267.942 1111.88 267.942 1105.9 413.126 c 0,29,30
 1098.86 605.64 1098.86 605.64 918.644 564.944 c 0,31,32
 833.11 545.63 833.11 545.63 700.828 424.685 c 0,33,34
 560.844 296.7 560.844 296.7 462.834 179.695 c 1,24,-1
EndSplineSet
Substitution2: "'fina' Terminal Forms in Arabic lookup 9 subtable" uniFEC2
Substitution2: "'medi' Medial Forms in Arabic lookup 11 subtable" uniFEC4
Substitution2: "'init' Initial Forms in Arabic lookup 13 subtable" uniFEC3
EndChar

StartChar: uni0639
Encoding: 1593 1593 30
Width: 1379
VWidth: 2287
GlyphClass: 2
Flags: W
AnchorPoint: "Anchor-10" 540.969 1482.94 basechar 0
AnchorPoint: "Anchor-7" 294.953 -785.751 basechar 0
LayerCount: 2
Fore
SplineSet
94.5244 -217.803 m 0,0,1
 58.6031 178.877 58.6031 178.877 395.64 411 c 1,2,3
 126.186 515.292 126.186 515.292 193.702 800.7 c 0,4,5
 240.42 994.022 240.42 994.022 442.702 1042 c 4,6,7
 553.538 1069.47 553.538 1069.47 668.202 1036.81 c 0,8,9
 729.939 1019.72 729.939 1019.72 793.702 959.153 c 1,10,11
 801.451 814.993 l 1,12,13
 690.702 908.7 690.702 908.7 536.702 891.699 c 0,14,15
 340.43 870.582 340.43 870.582 321.694 723.41 c 0,16,17
 304.145 580.952 304.145 580.952 486.64 478 c 1,18,19
 712.435 542.626 712.435 542.626 907.202 558.626 c 1,20,21
 879.202 400.626 l 1,22,23
 583.759 386.263 583.759 386.263 428.64 267.984 c 0,24,25
 231.75 116.057 231.75 116.057 235.731 -127.538 c 0,26,27
 239.205 -337.156 239.205 -337.156 401.202 -432.945 c 0,28,29
 541.532 -515.923 541.532 -515.923 853.211 -492.016 c 0,30,31
 1114.14 -472.002 1114.14 -472.002 1284.34 -347.699 c 1,32,-1
 1281.6 -375.615 l 2,33,34
 1257.34 -622.822 1257.34 -622.822 893.4 -680.217 c 0,35,36
 698.002 -711.033 698.002 -711.033 517 -672 c 0,37,38
 127.418 -587.929 127.418 -587.929 94.5244 -217.803 c 0,0,1
EndSplineSet
Substitution2: "'fina' Terminal Forms in Arabic lookup 9 subtable" uniFECA
Substitution2: "'medi' Medial Forms in Arabic lookup 11 subtable" uniFECC
Substitution2: "'init' Initial Forms in Arabic lookup 13 subtable" uniFECB
EndChar

StartChar: afii57440
Encoding: 1600 1600 32
Width: 661
VWidth: 2306
GlyphClass: 2
Flags: W
AnchorPoint: "Anchor-10" 321 1350.9 basechar 0
AnchorPoint: "Anchor-7" 321 -123.56 basechar 0
LayerCount: 2
Fore
SplineSet
-10.8643 -0.0693359 m 1,0,-1
 -10.8643 179.049 l 1,1,-1
 671.864 179.049 l 1,2,-1
 671.864 -0.0693359 l 1,3,-1
 -10.8643 -0.0693359 l 1,0,-1
EndSplineSet
EndChar

StartChar: uni0643
Encoding: 1603 1603 35
Width: 1733
VWidth: 2267
GlyphClass: 2
Flags: W
AnchorPoint: "Anchor-10" 469.786 1437.38 basechar 0
AnchorPoint: "Anchor-7" 502.908 -281.096 basechar 0
LayerCount: 2
Fore
SplineSet
1421.31 1275.7 m 5,0,1
 1592.72 1418.09 l 1,2,-1
 1592.72 430.096 l 2,3,-1
 1589.92 372.519 l 0,4,5
 1585.02 303.369 1585.02 303.369 1572 269 c 0,6,7
 1543.27 193.176 1543.27 193.176 1464 137 c 0,8,9
 1323.93 37.7382 1323.93 37.7382 1174 22.1992 c 0,10,11
 968.703 0.921939 968.703 0.921939 927.431 -0.5625 c 16,12,13
 461.388 -17.3246 461.388 -17.3246 275.763 79.6758 c 0,14,15
 84.918 179.401 84.918 179.401 91.3027 476.599 c 0,16,17
 94 603.155 94 603.155 145.753 704.154 c 1,18,19
 206.763 704 l 1,20,21
 191.182 632.774 191.182 632.774 184.763 575 c 0,22,23
 179.543 528.021 179.543 528.021 181.479 473.573 c 0,24,25
 189.608 244.913 189.608 244.913 549.649 193.732 c 0,26,27
 647.879 179.769 647.879 179.769 963.263 179.172 c 0,28,29
 1066.85 179.044 1066.85 179.044 1146 192.199 c 0,30,31
 1452.04 244.983 1452.04 244.983 1466.91 408.855 c 4,32,-1
 1468.75 465.301 l 6,33,34
 1471.43 547.501 1471.43 547.501 1455.53 990.931 c 4,35,36
 1446.32 1235.89 1446.32 1235.89 1421.31 1275.7 c 5,0,1
1008.64 1254.2 m 1,37,-1
 1008.64 1199.14 l 1,38,39
 934.768 1193.7 934.768 1193.7 893.99 1178.67 c 0,40,41
 790.869 1140.01 790.869 1140.01 790.869 1089.36 c 0,42,43
 790.869 1051.05 790.869 1051.05 810.664 1025.6 c 0,44,45
 828.888 1001.3 828.888 1001.3 913.788 988.813 c 0,46,47
 966.147 981.115 966.147 981.115 992.578 956.977 c 0,48,49
 1018.47 933.325 1018.47 933.325 1018.47 890.869 c 0,50,51
 1018.47 789.004 1018.47 789.004 923.908 735.529 c 0,52,53
 850.908 694.246 850.908 694.246 750.97 693.317 c 0,54,55
 687.436 693.317 687.436 693.317 631.677 702.631 c 1,56,-1
 631.677 764.59 l 1,57,58
 696.081 756.101 696.081 756.101 740.762 756.101 c 0,59,60
 820.059 756.101 820.059 756.101 871.184 776.228 c 0,61,62
 960.598 810.567 960.598 810.567 960.598 868.185 c 0,63,64
 960.598 933.451 960.598 933.451 856.785 949.27 c 0,65,66
 796.58 958.443 796.58 958.443 763.983 991.781 c 128,-1,67
 731.306 1025.2 731.306 1025.2 732.615 1085.49 c 0,68,69
 734.605 1165.95 734.605 1165.95 809.488 1203.9 c 0,70,71
 894.611 1246.97 894.611 1246.97 1008.64 1254.2 c 1,37,-1
EndSplineSet
Substitution2: "'fina' Terminal Forms in Arabic lookup 9 subtable" uniFEDA
Substitution2: "'medi' Medial Forms in Arabic lookup 11 subtable" uniFEDC
Substitution2: "'init' Initial Forms in Arabic lookup 13 subtable" uniFEDB
EndChar

StartChar: uni0644
Encoding: 1604 1604 36
Width: 1393
VWidth: 2267
GlyphClass: 2
Flags: W
AnchorPoint: "Anchor-10" 568.887 1008.06 basechar 0
AnchorPoint: "Anchor-7" 390.854 -595.884 basechar 0
LayerCount: 2
Fore
SplineSet
1153.84 165.489 m 2,0,1
 1156.35 96.0402 1156.35 96.0402 1155.33 68.7959 c 0,2,3
 1154.34 42.3955 1154.34 42.3955 1151.88 9.66797 c 17,4,5
 1126.49 -301.19 1126.49 -301.19 654.168 -309.084 c 0,6,7
 330.559 -314.492 330.559 -314.492 228.494 -97.585 c 0,8,9
 160.44 45.7773 160.44 45.7773 266.711 342 c 1,10,-1
 197.316 381.828 l 1,11,12
 178.157 340.562 178.157 340.562 156.249 276.07 c 0,13,14
 121.134 172.696 121.134 172.696 105.505 110.115 c 0,15,16
 46.2158 -127.297 46.2158 -127.297 155.014 -284.849 c 0,17,18
 294.555 -485.308 294.555 -485.308 658.4 -478.643 c 0,19,20
 1177.41 -469.132 1177.41 -469.132 1257.55 3.33496 c 13,21,22
 1260.83 32.1104 1260.83 32.1104 1260.83 389.488 c 2,23,-1
 1260.83 1426.62 l 1,24,-1
 1089.42 1284.23 l 1,25,26
 1114.43 1244.42 1114.43 1244.42 1123.64 999.461 c 0,27,28
 1151.77 299.932 1151.77 299.932 1153.84 165.489 c 2,0,1
EndSplineSet
Substitution2: "'fina' Terminal Forms in Arabic lookup 9 subtable" uniFEDE
Substitution2: "'medi' Medial Forms in Arabic lookup 11 subtable" uniFEE0
Substitution2: "'init' Initial Forms in Arabic lookup 13 subtable" uniFEDF
EndChar

StartChar: uni0645
Encoding: 1605 1605 37
Width: 1094
VWidth: 2308
GlyphClass: 2
Flags: W
AnchorPoint: "Anchor-10" 599.117 1063.54 basechar 0
AnchorPoint: "Anchor-7" 161.476 -713.894 basechar 0
LayerCount: 2
Fore
SplineSet
806.812 307.33 m 1,0,1
 840.573 366.332 840.573 366.332 846.729 380.33 c 0,2,3
 899.624 506.286 899.624 506.286 697.488 593.762 c 4,4,5
 582.093 644.182 582.093 644.182 514.118 560.686 c 6,6,-1
 513.994 560.533 l 5,7,8
 457.617 480.892 457.617 480.892 471.729 319.33 c 1,9,-1
 806.812 307.33 l 1,0,1
420.507 160.096 m 0,10,11
 270.847 160.096 270.847 160.096 229.789 80.3262 c 0,12,13
 200.039 22.3036 200.039 22.3036 206.812 -117.67 c 0,14,15
 220.748 -430.947 220.748 -430.947 222.747 -500.947 c 0,16,17
 91.9072 -637.625 l 1,18,-1
 91.9072 -82.6445 l 2,19,20
 91.9072 78.4805 91.9072 78.4805 145.771 181 c 0,21,22
 194.638 274.01 194.638 274.01 333.43 297.973 c 2,23,-1
 338.052 298.771 l 1,24,-1
 337.82 303.457 l 2,25,26
 325.75 547.258 325.75 547.258 446.533 678.491 c 4,27,28
 595.178 838.636 595.178 838.636 808.55 686.686 c 28,29,30
 1044.03 518.063 1044.03 518.063 985.747 381.053 c 0,31,32
 915.887 213.62 915.887 213.62 870.729 158.33 c 1,33,34
 864.38 149.82 864.38 149.82 718.545 153.732 c 0,35,36
 528.751 160.096 528.751 160.096 420.507 160.096 c 0,10,11
EndSplineSet
Substitution2: "'init' Initial Forms in Arabic lookup 13 subtable" uniFEE3
Substitution2: "'medi' Medial Forms in Arabic lookup 11 subtable" uniFEE4
Substitution2: "'fina' Terminal Forms in Arabic lookup 9 subtable" uniFEE2
EndChar

StartChar: uni0647
Encoding: 1607 1607 39
Width: 849
VWidth: 2286
GlyphClass: 2
Flags: W
AnchorPoint: "Anchor-10" 372.637 1192.82 basechar 0
AnchorPoint: "Anchor-7" 276.113 -218.192 basechar 0
LayerCount: 2
Fore
SplineSet
207.307 344.196 m 0,0,1
 171.201 213.319 171.201 213.319 309.087 169.272 c 0,2,3
 414.774 134.809 414.774 134.809 508.763 165.635 c 0,4,5
 646.616 209.937 646.616 209.937 582.191 363.385 c 0,6,7
 528.774 490.519 528.774 490.519 388.64 607.517 c 1,8,9
 230.882 432.922 230.882 432.922 207.307 344.196 c 0,0,1
128.887 466.057 m 24,10,11
 194.29 586.534 194.29 586.534 324.191 701.385 c 5,12,13
 295.205 725.065 l 5,14,15
 370.566 863.213 l 1,16,17
 652.195 618.648 652.195 618.648 722.851 426.638 c 0,18,19
 808.613 194.337 808.613 194.337 654.646 63.7529 c 0,20,21
 577.465 -1.70703 577.465 -1.70703 420.343 -0.234375 c 0,22,23
 264.538 1.19177 264.538 1.19177 197.191 41.3848 c 0,24,25
 89.0142 104.406 89.0142 104.406 71.6465 199.433 c 0,26,27
 48.9677 321.297 48.9677 321.297 128.887 466.057 c 24,10,11
EndSplineSet
Substitution2: "'fina' Terminal Forms in Arabic lookup 9 subtable" uniFEEA
Substitution2: "'medi' Medial Forms in Arabic lookup 11 subtable" uniFEEC
Substitution2: "'init' Initial Forms in Arabic lookup 13 subtable" uniFEEB
EndChar

StartChar: uni0648
Encoding: 1608 1608 40
Width: 839
VWidth: 2307
GlyphClass: 2
Flags: W
AnchorPoint: "Anchor-10" 414.024 1045.03 basechar 0
AnchorPoint: "Anchor-7" 335.608 -714.098 basechar 0
LayerCount: 2
Fore
SplineSet
471.147 430.134 m 4,0,1
 362.168 427.911 362.168 427.911 340.147 291.135 c 4,2,3
 325.514 203.271 325.514 203.271 396.065 174.669 c 4,4,5
 492.65 135.513 492.65 135.513 640.146 182.133 c 5,6,7
 641.694 260.763 641.694 260.763 613.146 323.53 c 4,8,9
 564.986 431.077 564.986 431.077 471.147 430.134 c 4,0,1
631.315 8.75488 m 5,10,11
 551.364 -12.3359 551.364 -12.3359 455.147 -1.96973 c 4,12,13
 337.059 10.7529 337.059 10.7529 281.935 96.6768 c 4,14,15
 232.939 173.167 232.939 173.167 244.935 286.078 c 4,16,17
 262.795 465.016 262.795 465.016 359.147 558.134 c 4,18,19
 412.37 609.57 412.37 609.57 507.147 601.53 c 4,20,21
 575.659 595.373 575.659 595.373 643.146 519.53 c 4,22,23
 724.609 429.473 724.609 429.473 744.83 263.518 c 4,24,25
 765.411 85.7949 765.411 85.7949 746.315 -3.24512 c 28,26,27
 658.498 -419.917 658.498 -419.917 362.916 -445.825 c 4,28,29
 192.75 -461.274 192.75 -461.274 53.7939 -332.319 c 5,30,31
 549.09 -277.062 549.09 -277.062 631.315 8.75488 c 5,10,11
EndSplineSet
Substitution2: "'fina' Terminal Forms in Arabic lookup 9 subtable" uniFEEE
EndChar

StartChar: uni0649
Encoding: 1609 1609 41
Width: 1482
VWidth: 2304
GlyphClass: 2
Flags: W
AnchorPoint: "Anchor-10" 467.085 1021.11 basechar 0
AnchorPoint: "Anchor-7" 250.388 -577.419 basechar 0
LayerCount: 2
Fore
SplineSet
1339 -121.667 m 4,0,1
 1135.31 -359.758 1135.31 -359.758 745.706 -381 c 0,2,3
 202.133 -410.636 202.133 -410.636 135.878 -75 c 1,4,5
 106.725 80.0801 106.725 80.0801 158.675 264.373 c 0,6,7
 182.258 348.032 182.258 348.032 253.412 525.802 c 0,8,9
 274.036 577.329 274.036 577.329 299.412 622.802 c 1,10,11
 370.982 587.802 l 1,12,13
 315.041 445.39 315.041 445.39 302.783 407.688 c 0,14,15
 286.962 359.026 286.962 359.026 268.712 275.232 c 0,16,17
 222.487 64.3039 222.487 64.3039 298.261 -59.9834 c 0,18,19
 409.13 -241.835 409.13 -241.835 805.706 -210 c 0,20,21
 1059 -189.667 1059 -189.667 1185 -114 c 0,22,23
 1228.99 -87.153 1228.99 -87.153 1254.21 -58.4305 c 0,24,25
 1272.24 -37.8204 1272.24 -37.8204 1277.71 -21.9971 c 0,26,27
 1284.04 -3.66667 1284.04 -3.66667 1268.37 16.333 c 0,28,29
 1239.61 52.6143 1239.61 52.6143 1118.9 42.1279 c 0,30,31
 953.387 28.1777 953.387 28.1777 869.725 96.8242 c 0,32,33
 763.038 182.638 763.038 182.638 839 374 c 0,34,35
 963.916 687.886 963.916 687.886 1188.41 708.164 c 0,36,37
 1347.31 723.071 1347.31 723.071 1359.33 566.844 c 2,38,-1
 1361.11 543.713 l 1,39,40
 1135.58 569.268 1135.58 569.268 1030.88 450 c 0,41,42
 945.212 353.005 945.212 353.005 952.954 242.293 c 0,43,44
 958.073 174.078 958.073 174.078 1118.31 175.513 c 0,45,46
 1235.96 177.226 1235.96 177.226 1302.37 143.713 c 0,47,48
 1387.84 99.7079 1387.84 99.7079 1391.85 19.5967 c 0,49,50
 1392.93 -2.08769 1392.93 -2.08769 1389.54 -16.5 c 0,51,52
 1376.83 -74.791 1376.83 -74.791 1339 -121.667 c 4,0,1
EndSplineSet
Substitution2: "'fina' Terminal Forms in Arabic lookup 9 subtable" uniFEF0
Substitution2: "'medi' Medial Forms in Arabic lookup 11 subtable" uniFBE9
Substitution2: "'init' Initial Forms in Arabic lookup 13 subtable" uniFBE8
EndChar

StartChar: uni064B
Encoding: 1611 1611 43
Width: 0
VWidth: 2186
GlyphClass: 4
Flags: W
AnchorPoint: "Anchor-10" 547.84 1041.5 mark 0
AnchorPoint: "Anchor-9" 547.84 1041.5 mark 0
AnchorPoint: "Anchor-1" 547.84 1576.5 basemark 0
AnchorPoint: "Anchor-1" 547.84 1041.5 mark 0
LayerCount: 2
Fore
SplineSet
269.4 977.41 m 5,0,-1
 269.4 1104.48 l 5,1,-1
 827.28 1332.79 l 5,2,-1
 827.28 1205.72 l 5,3,-1
 269.4 977.41 l 5,0,-1
269.4 1234.21 m 5,4,-1
 269.4 1361.28 l 5,5,-1
 827.28 1589.59 l 5,6,-1
 827.28 1462.52 l 5,7,-1
 269.4 1234.21 l 5,4,-1
EndSplineSet
EndChar

StartChar: uni064C
Encoding: 1612 1612 44
Width: 0
VWidth: 2186
GlyphClass: 4
Flags: W
AnchorPoint: "Anchor-10" 554.386 1155.44 mark 0
AnchorPoint: "Anchor-9" 554.386 1155.44 mark 0
AnchorPoint: "Anchor-1" 546.386 1810.94 basemark 0
AnchorPoint: "Anchor-1" 554.386 1155.44 mark 0
LayerCount: 2
Fore
SplineSet
567.219 1298.72 m 0,0,1
 608.391 1338.78 608.391 1338.78 631.845 1385.69 c 2,2,-1
 639.364 1400.73 l 1,3,-1
 622.913 1404.22 l 2,4,5
 589.558 1411.29 589.558 1411.29 566.532 1424.31 c 0,6,7
 457.736 1481.73 457.736 1481.73 457.736 1574.47 c 0,8,9
 457.736 1661.08 457.736 1661.08 526.365 1712.8 c 0,10,11
 552.86 1732.67 552.86 1732.67 615.937 1732.67 c 0,12,13
 688.759 1732.67 688.759 1732.67 727.738 1694.66 c 0,14,15
 782.696 1640.71 782.696 1640.71 782.696 1561.63 c 0,16,17
 782.696 1521.9 782.696 1521.9 770.46 1483.15 c 2,18,-1
 765.402 1467.14 l 1,19,-1
 782.175 1466.26 l 2,20,21
 802.247 1465.2 802.247 1465.2 817.806 1465.17 c 0,22,23
 831.205 1464.45 831.205 1464.45 845.826 1464.2 c 1,24,-1
 845.826 1372.44 l 1,25,26
 806.232 1372.69 806.232 1372.69 788.381 1374.48 c 2,27,-1
 723.27 1380.74 l 1,28,-1
 719.537 1371.99 l 2,29,30
 692.652 1308.91 692.652 1308.91 614.12 1227.24 c 1,31,32
 527.043 1139.14 527.043 1139.14 431.896 1139.14 c 0,33,34
 319.02 1139.14 319.02 1139.14 262.205 1295.39 c 0,35,36
 247.89 1334.51 247.89 1334.51 246.994 1442.7 c 1,37,-1
 317.299 1442.7 l 1,38,39
 318.143 1347.11 318.143 1347.11 331.307 1318.59 c 0,40,41
 372.26 1230.84 372.26 1230.84 431.896 1230.84 c 0,42,43
 497.076 1230.84 497.076 1230.84 567.219 1298.72 c 0,0,1
669.292 1482.64 m 1,44,-1
 680.316 1508.36 l 2,45,46
 690.996 1533.28 690.996 1533.28 690.996 1561.63 c 0,47,48
 690.996 1604.15 690.996 1604.15 668.07 1623.02 c 0,49,50
 646.28 1640.97 646.28 1640.97 620.217 1640.97 c 0,51,52
 591.787 1640.97 591.787 1640.97 575.875 1628.63 c 0,53,54
 551.576 1610.34 551.576 1610.34 551.576 1574.47 c 0,55,56
 551.576 1526.08 551.576 1526.08 607.898 1503.55 c 0,57,58
 629.803 1494.79 629.803 1494.79 658.123 1486.08 c 2,59,-1
 669.292 1482.64 l 1,44,-1
EndSplineSet
EndChar

StartChar: uni064D
Encoding: 1613 1613 45
Width: 0
VWidth: 2186
GlyphClass: 4
Flags: W
AnchorPoint: "Anchor-7" 531.84 75.5 mark 0
AnchorPoint: "Anchor-6" 531.84 75.5 mark 0
AnchorPoint: "Anchor-0" 547.84 -439.5 basemark 0
AnchorPoint: "Anchor-0" 531.84 75.5 mark 0
LayerCount: 2
Fore
SplineSet
270.96 -512.18 m 5,0,-1
 270.96 -385.109 l 5,1,-1
 828.84 -156.8 l 5,2,-1
 828.84 -283.87 l 5,3,-1
 270.96 -512.18 l 5,0,-1
270.96 -255.38 m 5,4,-1
 270.96 -128.31 l 5,5,-1
 828.84 100 l 5,6,-1
 828.84 -27.0703 l 5,7,-1
 270.96 -255.38 l 5,4,-1
EndSplineSet
EndChar

StartChar: uni064E
Encoding: 1614 1614 46
Width: 0
VWidth: 2186
GlyphClass: 4
Flags: W
AnchorPoint: "Anchor-10" 517.84 1279.5 mark 0
AnchorPoint: "Anchor-9" 517.84 1279.5 mark 0
AnchorPoint: "Anchor-1" 517.84 1600.5 basemark 0
AnchorPoint: "Anchor-1" 517.84 1279.5 mark 0
LayerCount: 2
Fore
SplineSet
237.4 1237.41 m 1,0,-1
 237.4 1364.48 l 1,1,-1
 795.28 1592.79 l 5,2,-1
 795.28 1465.72 l 1,3,-1
 237.4 1237.41 l 1,0,-1
EndSplineSet
EndChar

StartChar: uni064F
Encoding: 1615 1615 47
Width: 0
VWidth: 2186
GlyphClass: 4
Flags: W
AnchorPoint: "Anchor-10" 531.84 1205.5 mark 0
AnchorPoint: "Anchor-9" 531.84 1205.5 mark 0
AnchorPoint: "Anchor-1" 547.84 1825 basemark 0
AnchorPoint: "Anchor-1" 531.84 1205.5 mark 0
LayerCount: 2
Fore
SplineSet
594.529 1426.81 m 6,0,1
 586.598 1428.57 586.598 1428.57 567.734 1438.5 c 4,2,3
 459.19 1494.78 459.19 1494.78 459.19 1588.53 c 4,4,5
 459.19 1675.14 459.19 1675.14 527.819 1726.86 c 4,6,7
 554.314 1746.73 554.314 1746.73 617.39 1746.73 c 4,8,9
 690.212 1746.73 690.212 1746.73 729.192 1708.72 c 4,10,11
 784.15 1654.77 784.15 1654.77 784.15 1575.69 c 4,12,13
 784.15 1543.43 784.15 1543.43 769.757 1497.16 c 6,14,-1
 764.821 1481.3 l 5,15,-1
 781.407 1480.32 l 6,16,17
 799.81 1479.24 799.81 1479.24 819.259 1478.7 c 4,18,19
 832.229 1478.34 832.229 1478.34 847.28 1478.21 c 5,20,-1
 847.28 1386.53 l 5,21,22
 817.029 1386.85 817.029 1386.85 789.455 1388.57 c 4,23,24
 757.6 1390.7 757.6 1390.7 727.915 1393.88 c 6,25,-1
 720.312 1394.69 l 5,26,-1
 715.905 1388.44 l 6,27,28
 671.45 1325.37 671.45 1325.37 599.88 1281.81 c 4,29,30
 398.294 1157.85 398.294 1157.85 248.4 1152.36 c 5,31,-1
 248.4 1244.01 l 5,32,33
 408.671 1248.65 408.671 1248.65 554.781 1363.22 c 4,34,35
 580.142 1383.07 580.142 1383.07 601.135 1405.16 c 6,36,-1
 616.962 1421.83 l 5,37,-1
 594.529 1426.81 l 6,0,1
670.746 1496.7 m 5,38,-1
 681.77 1522.42 l 6,39,40
 692.45 1547.34 692.45 1547.34 692.45 1575.69 c 4,41,42
 692.45 1618.21 692.45 1618.21 669.524 1637.08 c 4,43,44
 647.734 1655.03 647.734 1655.03 621.67 1655.03 c 4,45,46
 593.241 1655.03 593.241 1655.03 577.329 1642.69 c 4,47,48
 553.03 1624.4 553.03 1624.4 553.03 1588.53 c 4,49,50
 553.03 1540.14 553.03 1540.14 609.352 1517.61 c 4,51,52
 631.256 1508.85 631.256 1508.85 659.577 1500.14 c 6,53,-1
 670.746 1496.7 l 5,38,-1
EndSplineSet
EndChar

StartChar: uni0650
Encoding: 1616 1616 48
Width: 0
VWidth: 2186
GlyphClass: 4
Flags: W
AnchorPoint: "Anchor-7" 467.84 -12.5 mark 0
AnchorPoint: "Anchor-6" 467.84 -12.5 mark 0
AnchorPoint: "Anchor-0" 556.84 -311.5 basemark 0
AnchorPoint: "Anchor-0" 467.84 -12.5 mark 0
LayerCount: 2
Fore
SplineSet
267.96 -356.836 m 1,0,-1
 267.96 -229.766 l 1,1,-1
 825.84 -1.45605 l 1,2,-1
 825.84 -128.526 l 1,3,-1
 267.96 -356.836 l 1,0,-1
EndSplineSet
EndChar

StartChar: uni0651
Encoding: 1617 1617 49
Width: 0
VWidth: 2186
GlyphClass: 4
Flags: W
AnchorPoint: "Anchor-10" 547.84 1316.5 mark 0
AnchorPoint: "Anchor-9" 547.84 1316.5 mark 0
AnchorPoint: "Anchor-1" 535.84 1818.5 basemark 0
AnchorPoint: "Anchor-1" 547.84 1316.5 mark 0
LayerCount: 2
Fore
SplineSet
398.84 1305.99 m 4,0,1
 306.498 1302.93 306.498 1302.93 261.261 1355.91 c 4,2,3
 227 1396.24 227 1396.24 227 1486.07 c 4,4,5
 227 1527.41 227 1527.41 242.222 1626.56 c 5,6,-1
 320.73 1626.56 l 5,7,8
 307.674 1502.98 307.674 1502.98 307.674 1479 c 4,9,10
 307.674 1394.91 307.674 1394.91 398.84 1393.09 c 4,11,12
 497.128 1391.16 497.128 1391.16 506.266 1518.54 c 4,13,14
 508.184 1545.08 508.184 1545.08 508.4 1680.83 c 5,15,-1
 589.06 1680.83 l 5,16,17
 588.775 1624.49 588.775 1624.49 589.34 1597.53 c 4,18,19
 594.84 1448.99 594.84 1448.99 700.84 1452.09 c 4,20,21
 790.089 1453.28 790.089 1453.28 783.674 1604 c 4,22,23
 779.218 1710.94 779.218 1710.94 774.521 1770.1 c 5,24,-1
 857.705 1770.1 l 5,25,26
 868.68 1694.87 868.68 1694.87 868.68 1580.87 c 4,27,28
 868.68 1504.29 868.68 1504.29 843.84 1449.99 c 4,29,30
 804.992 1364.89 804.992 1364.89 713.84 1360.49 c 4,31,32
 611.451 1355.49 611.451 1355.49 554.84 1431.09 c 5,33,34
 519.173 1310.01 519.173 1310.01 398.84 1305.99 c 4,0,1
EndSplineSet
EndChar

StartChar: uni0652
Encoding: 1618 1618 50
Width: 0
VWidth: 2186
GlyphClass: 4
Flags: W
AnchorPoint: "Anchor-10" 565.84 1128.5 mark 0
AnchorPoint: "Anchor-9" 565.84 1128.5 mark 0
AnchorPoint: "Anchor-1" 551.84 1702 basemark 0
AnchorPoint: "Anchor-1" 565.84 1128.5 mark 0
LayerCount: 2
Fore
SplineSet
674.569 1383.62 m 0,0,1
 674.569 1428.15 674.569 1428.15 643.439 1459.28 c 128,-1,2
 612.312 1490.41 612.312 1490.41 567.126 1490.41 c 0,3,4
 521.285 1490.41 521.285 1490.41 490.485 1459.61 c 128,-1,5
 459.685 1428.81 459.685 1428.81 459.685 1383.62 c 0,6,7
 459.685 1337.78 459.685 1337.78 490.485 1306.98 c 128,-1,8
 521.285 1276.18 521.285 1276.18 567.126 1276.18 c 0,9,10
 612.314 1276.18 612.314 1276.18 643.439 1307.31 c 128,-1,11
 674.569 1338.44 674.569 1338.44 674.569 1383.62 c 0,0,1
750.396 1383.73 m 128,-1,13
 750.396 1306.88 750.396 1306.88 697.316 1253.46 c 128,-1,14
 644.259 1200.07 644.259 1200.07 567.436 1200.07 c 128,-1,15
 490.613 1200.07 490.613 1200.07 437.557 1253.46 c 128,-1,16
 384.476 1306.88 384.476 1306.88 384.476 1383.73 c 128,-1,17
 384.476 1460.56 384.476 1460.56 437.537 1513.63 c 128,-1,18
 490.596 1566.69 490.596 1566.69 567.436 1566.69 c 128,-1,19
 644.276 1566.69 644.276 1566.69 697.335 1513.63 c 128,-1,12
 750.396 1460.56 750.396 1460.56 750.396 1383.73 c 128,-1,13
EndSplineSet
EndChar

StartChar: uni0653
Encoding: 1619 1619 51
Width: 0
VWidth: 2186
GlyphClass: 4
Flags: W
AnchorPoint: "Anchor-10" 442.84 1264.52 mark 0
AnchorPoint: "Anchor-9" 442.84 1264.52 mark 0
AnchorPoint: "Anchor-1" 442.84 1600.5 basemark 0
AnchorPoint: "Anchor-1" 442.84 1264.52 mark 0
LayerCount: 2
Fore
SplineSet
199.483 1394 m 0,0,1
 252.229 1436.43 252.229 1436.43 336.912 1417.1 c 0,2,3
 433.642 1395.02 433.642 1395.02 528.483 1416 c 0,4,5
 598.038 1431.38 598.038 1431.38 620.704 1466.43 c 2,6,-1
 627.747 1477.32 l 1,7,-1
 633.219 1443.81 l 2,8,9
 638.573 1411.02 638.573 1411.02 614.483 1374 c 4,10,11
 597.163 1348.37 597.163 1348.37 562.483 1332 c 0,12,13
 500.242 1304.01 500.242 1304.01 297.66 1326.58 c 0,14,15
 245.85 1332.42 245.85 1332.42 186.455 1251.19 c 2,16,-1
 181.227 1244.04 l 1,17,-1
 175.195 1258.45 l 2,18,19
 138.865 1345.24 138.865 1345.24 199.483 1394 c 0,0,1
EndSplineSet
EndChar

StartChar: uni0657
Encoding: 1623 1623 54
Width: 0
VWidth: 2186
GlyphClass: 4
Flags: W
AnchorPoint: "Anchor-10" 547.84 1279.5 mark 0
AnchorPoint: "Anchor-9" 547.84 1279.5 mark 0
AnchorPoint: "Anchor-1" 547.84 1975 basemark 0
AnchorPoint: "Anchor-1" 547.84 1279.5 mark 0
LayerCount: 2
Fore
SplineSet
501.148 1675.55 m 2,0,1
 509.083 1673.79 509.083 1673.79 527.945 1663.86 c 0,2,3
 636.49 1607.58 636.49 1607.58 636.49 1513.83 c 0,4,5
 636.49 1427.22 636.49 1427.22 567.86 1375.5 c 0,6,7
 541.366 1355.63 541.366 1355.63 478.29 1355.63 c 0,8,9
 405.468 1355.63 405.468 1355.63 366.487 1393.64 c 0,10,11
 311.53 1447.59 311.53 1447.59 311.53 1526.67 c 0,12,13
 311.53 1558.94 311.53 1558.94 325.923 1605.2 c 2,14,-1
 330.858 1621.06 l 1,15,-1
 314.272 1622.04 l 2,16,17
 295.871 1623.12 295.871 1623.12 276.421 1623.66 c 0,18,19
 263.452 1624.02 263.452 1624.02 248.4 1624.15 c 1,20,-1
 248.4 1715.83 l 1,21,22
 278.631 1715.51 278.631 1715.51 306.226 1713.79 c 0,23,24
 338.082 1711.66 338.082 1711.66 367.766 1708.48 c 2,25,-1
 375.369 1707.67 l 1,26,-1
 379.775 1713.92 l 2,27,28
 424.231 1776.99 424.231 1776.99 495.801 1820.55 c 0,29,30
 697.387 1944.51 697.387 1944.51 847.28 1950 c 1,31,-1
 847.28 1858.35 l 1,32,33
 687.009 1853.71 687.009 1853.71 540.898 1739.14 c 0,34,35
 515.54 1719.29 515.54 1719.29 494.545 1697.2 c 2,36,-1
 478.72 1680.54 l 1,37,-1
 501.148 1675.55 l 2,0,1
424.935 1605.66 m 1,38,-1
 413.911 1579.94 l 2,39,40
 403.23 1555.02 403.23 1555.02 403.23 1526.67 c 0,41,42
 403.23 1484.16 403.23 1484.16 426.155 1465.28 c 0,43,44
 447.946 1447.33 447.946 1447.33 474.01 1447.33 c 0,45,46
 502.438 1447.33 502.438 1447.33 518.352 1459.67 c 0,47,48
 542.65 1477.96 542.65 1477.96 542.65 1513.83 c 0,49,50
 542.65 1562.22 542.65 1562.22 486.328 1584.75 c 0,51,52
 464.442 1593.51 464.442 1593.51 436.104 1602.22 c 2,53,-1
 424.935 1605.66 l 1,38,-1
EndSplineSet
EndChar

StartChar: uni065A
Encoding: 1626 1626 55
Width: 1095
VWidth: 2186
GlyphClass: 4
Flags: W
AnchorPoint: "Anchor-10" 547.84 1279.5 mark 0
AnchorPoint: "Anchor-9" 547.84 1279.5 mark 0
AnchorPoint: "Anchor-1" 545.7 1761 basemark 0
AnchorPoint: "Anchor-1" 547.84 1279.5 mark 0
LayerCount: 2
Fore
SplineSet
476.032 1358.84 m 1,0,-1
 282.934 1681.66 l 1,1,-1
 401.783 1681.66 l 1,2,-1
 547.84 1462.57 l 1,3,-1
 693.896 1681.66 l 1,4,-1
 812.746 1681.66 l 1,5,-1
 619.646 1358.84 l 1,6,-1
 476.032 1358.84 l 1,0,-1
EndSplineSet
EndChar

StartChar: afii57392
Encoding: 1632 1632 56
Width: 1211
VWidth: 2275
GlyphClass: 2
Flags: W
LayerCount: 2
Fore
SplineSet
491.487 603.793 m 128,-1,1
 491.487 559.594 491.487 559.594 523.161 527.919 c 128,-1,2
 554.836 496.245 554.836 496.245 599.035 496.245 c 128,-1,3
 643.233 496.245 643.233 496.245 674.907 527.919 c 128,-1,4
 706.583 559.595 706.583 559.595 706.583 603.793 c 128,-1,5
 706.583 647.989 706.583 647.989 674.907 679.665 c 128,-1,6
 643.233 711.341 643.233 711.341 599.035 711.341 c 128,-1,7
 554.838 711.341 554.838 711.341 523.161 679.665 c 128,-1,0
 491.487 647.99 491.487 647.99 491.487 603.793 c 128,-1,1
342.586 600.562 m 128,-1,9
 342.586 708.419 342.586 708.419 418.731 785.008 c 128,-1,10
 494.825 861.548 494.825 861.548 601.947 861.548 c 128,-1,11
 709.074 861.548 709.074 861.548 785.164 785.008 c 128,-1,12
 861.307 708.418 861.307 708.418 861.307 600.562 c 128,-1,13
 861.307 492.697 861.307 492.697 785.164 416.116 c 128,-1,14
 709.064 339.578 709.064 339.578 601.947 339.578 c 128,-1,15
 494.824 339.578 494.824 339.578 418.731 416.116 c 128,-1,8
 342.586 492.703 342.586 492.703 342.586 600.562 c 128,-1,9
EndSplineSet
EndChar

StartChar: afii57393
Encoding: 1633 1633 57
Width: 1215
VWidth: 2270
GlyphClass: 2
Flags: W
LayerCount: 2
Fore
SplineSet
640.396 6.84961 m 2,0,-1
 620.396 0.219727 l 1,1,2
 579.756 753.378 579.756 753.378 389.108 1280.38 c 1,3,-1
 516.396 1436.22 l 1,4,5
 723.945 1011.52 723.945 1011.52 722.396 232.22 c 0,6,7
 722.008 33.9033 722.008 33.9033 640.396 6.84961 c 2,0,-1
EndSplineSet
EndChar

StartChar: afii57394
Encoding: 1634 1634 58
Width: 1211
VWidth: 2129
GlyphClass: 2
Flags: W
LayerCount: 2
Fore
SplineSet
270.059 1437.15 m 1,0,1
 314.295 1328.52 314.295 1328.52 348.372 1262.41 c 0,2,3
 428.697 1107.71 428.697 1107.71 577.887 1091.59 c 0,4,5
 824.352 1064.48 824.352 1064.48 884 1284 c 0,6,7
 902.793 1353.16 902.793 1353.16 917.922 1434.28 c 1,8,9
 1030.53 1398.23 l 1,10,11
 1030.09 1338.32 1030.09 1338.32 1000 1224.79 c 0,12,13
 918.452 917.098 918.452 917.098 629 904 c 0,14,15
 535.577 899.772 535.577 899.772 477.685 918.285 c 1,16,17
 560.565 673.399 560.565 673.399 559.685 286.654 c 0,18,19
 559.141 40.9627 559.141 40.9627 480.685 20.2852 c 2,20,-1
 446.536 11.2852 l 1,21,22
 438.408 452.658 438.408 452.658 330.685 842.285 c 0,23,24
 294.802 971.355 294.802 971.355 134.839 1334.77 c 0,25,-1
 270.059 1437.15 l 1,0,1
EndSplineSet
EndChar

StartChar: afii57395
Encoding: 1635 1635 59
Width: 1211
VWidth: 2129
GlyphClass: 2
Flags: W
LayerCount: 2
Fore
SplineSet
426.698 920.514 m 1,0,1
 510.58 675.489 510.58 675.489 509.698 287.883 c 4,2,3
 509.151 40.4926 509.151 40.4926 428.685 19.2852 c 6,4,-1
 394.536 10.2852 l 5,5,6
 386.388 451.653 386.388 451.653 278.685 842.285 c 0,7,8
 242.803 971.355 242.803 971.355 82.8389 1334.77 c 0,9,-1
 218.059 1437.15 l 1,10,11
 250.664 1357.08 250.664 1357.08 296.372 1262.41 c 8,12,13
 368.845 1112.3 368.845 1112.3 475.176 1095.04 c 0,14,15
 556.787 1081.79 556.787 1081.79 605.198 1122.51 c 0,16,17
 665.511 1173.24 665.511 1173.24 665.511 1364.71 c 1,18,-1
 759.58 1388.79 l 1,19,20
 761.856 1211.72 761.856 1211.72 775.789 1175.86 c 0,21,22
 807.963 1092.3 807.963 1092.3 889.198 1091.51 c 24,23,24
 1000.82 1091.77 1000.82 1091.77 1027.49 1222.58 c 0,25,26
 1045.63 1310.8 1045.63 1310.8 1043.49 1444.86 c 1,27,-1
 1166.32 1420.16 l 1,28,29
 1169 1282.07 1169 1282.07 1141.49 1159.58 c 0,30,31
 1089.92 928.273 1089.92 928.273 922.487 916.575 c 0,32,33
 785.117 906.345 785.117 906.345 719.399 1034.75 c 1,34,35
 673.202 920.19 673.202 920.19 523.758 905.942 c 0,36,37
 490.256 902.748 490.256 902.748 426.698 920.514 c 1,0,1
EndSplineSet
EndChar

StartChar: afii57396
Encoding: 1636 1636 60
Width: 1212
VWidth: 2270
GlyphClass: 2
Flags: W
LayerCount: 2
Fore
SplineSet
768.079 1293.81 m 1,1,2
 628.079 1331.81 628.079 1331.81 530.079 1299.81 c 1,3,4
 396.85 1245.85 396.85 1245.85 406.744 1112.36 c 0,5,6
 415.135 998.154 415.135 998.154 565.178 941.346 c 0,7,8
 606.294 925.779 606.294 925.779 752.472 911.047 c 1,9,10
 787.219 853.76 787.219 853.76 785.22 767.76 c 5,11,12
 617.266 740.592 617.266 740.592 493.32 665.22 c 0,13,14
 342.646 575.129 342.646 575.129 332.079 423 c 0,15,16
 310.344 110.051 310.344 110.051 762.812 172.058 c 0,17,18
 850.354 184.115 850.354 184.115 981.58 246.599 c 1,19,-1
 981.58 171.807 l 2,20,21
 981.58 49.0039 981.58 49.0039 800.079 18.1221 c 0,22,23
 741.604 8.17285 741.604 8.17285 677.277 3.72363 c 0,24,25
 259.681 -23.4902 259.681 -23.4902 187.079 267 c 0,26,27
 129.311 499.996 129.311 499.996 277.281 677.082 c 0,28,29
 368.44 787.322 368.44 787.322 522.041 834.246 c 1,30,31
 275.111 886.153 275.111 886.153 250.079 1079.81 c 0,32,33
 218.032 1321.03 218.032 1321.03 422.079 1410 c 0,34,35
 487.555 1438.55 487.555 1438.55 561.22 1441.79 c 0,36,37
 662.854 1445.77 662.854 1445.77 747.219 1423.79 c 1,38,39
 762.219 1400 762.219 1400 768.079 1293.81 c 1,1,2
EndSplineSet
EndChar

StartChar: afii57397
Encoding: 1637 1637 61
Width: 1212
VWidth: 2271
GlyphClass: 2
Flags: W
LayerCount: 2
Fore
SplineSet
332.852 812.688 m 0,0,1
 249.491 669.326 249.491 669.326 242.467 518.04 c 0,2,3
 233.94 334.422 233.94 334.422 335.369 251.007 c 0,4,5
 429.37 173.684 429.37 173.684 614.41 172.84 c 0,6,7
 821.221 171.896 821.221 171.896 892.146 293.257 c 0,8,9
 951.939 397.262 951.939 397.262 939.388 551.375 c 0,10,11
 925.657 729.123 925.657 729.123 791.129 894.001 c 0,12,13
 684.509 1024.91 684.509 1024.91 564.729 1089.57 c 1,14,15
 424.809 974.034 424.809 974.034 332.852 812.688 c 0,0,1
472.509 1376.39 m 1,16,17
 595.698 1311.37 595.698 1311.37 749.169 1184.53 c 0,18,19
 919.72 1043.57 919.72 1043.57 1001.15 911.918 c 0,20,21
 1107.28 740.326 1107.28 740.326 1117 534.934 c 0,22,23
 1130.39 265.629 1130.39 265.629 1020.62 148.971 c 0,24,25
 883.02 4.04688 883.02 4.04688 594.688 5.14941 c 1,26,27
 302.128 5.14941 302.128 5.14941 168.868 148.851 c 0,28,29
 31.332 298.158 31.332 298.158 60.6846 534.536 c 0,30,31
 84.4385 723.72 84.4385 723.72 179.496 885.5 c 0,32,33
 288.069 1071.02 288.069 1071.02 427.894 1185.04 c 1,34,-1
 387.989 1208.5 l 21,35,36
 472.509 1376.39 l 1,16,17
EndSplineSet
EndChar

StartChar: afii57398
Encoding: 1638 1638 62
Width: 1212
VWidth: 2270
GlyphClass: 2
Flags: W
LayerCount: 2
Fore
SplineSet
905.516 1372.26 m 5,0,1
 906.505 1113.55 906.505 1113.55 947.529 724.827 c 0,2,3
 979.602 418.484 979.602 418.484 1085.94 2.99219 c 1,4,-1
 1050.22 2.99219 l 2,5,6
 897.616 2.99219 897.616 2.99219 852.604 218.626 c 0,7,8
 799.711 472.011 799.711 472.011 775.676 728.598 c 0,9,10
 742.797 1078.37 742.797 1078.37 741.731 1154.81 c 6,11,-1
 741.382 1179.88 l 5,12,-1
 717.312 1172.86 l 6,13,14
 620.513 1144.63 620.513 1144.63 465.217 1144.63 c 4,15,16
 347.9 1144.63 347.9 1144.63 237.217 1160.63 c 4,17,18
 80.4941 1182.7 80.4941 1182.7 80.4941 1318.63 c 6,19,-1
 80.4941 1371.45 l 5,20,21
 274.589 1320.58 274.589 1320.58 452.713 1320.58 c 4,22,23
 680.399 1320.58 680.399 1320.58 905.516 1372.26 c 5,0,1
EndSplineSet
EndChar

StartChar: afii57399
Encoding: 1639 1639 63
Width: 1212
VWidth: 2270
GlyphClass: 2
Flags: W
LayerCount: 2
Fore
SplineSet
886.925 1363.4 m 1,0,1
 1003.92 1225.66 l 1,2,3
 841.595 860.701 841.595 860.701 787.614 644.968 c 0,4,5
 697.81 286.067 697.81 286.067 658.704 0.849609 c 1,6,-1
 519.147 0.849609 l 1,7,8
 529.923 90.7589 529.923 90.7589 389.21 645.602 c 4,9,10
 334.923 859.66 334.923 859.66 163.923 1225.66 c 5,11,12
 289.925 1363.4 l 5,13,14
 408.284 1133.18 408.284 1133.18 513.448 765.114 c 4,15,16
 567.635 575.462 567.635 575.462 588.505 460.649 c 1,17,18
 609.68 577.145 609.68 577.145 663.561 765.114 c 0,19,20
 721.686 969.02 721.686 969.02 886.925 1363.4 c 1,0,1
EndSplineSet
EndChar

StartChar: afii57400
Encoding: 1640 1640 64
Width: 1212
VWidth: 2270
GlyphClass: 2
Flags: W
LayerCount: 2
Fore
SplineSet
886.925 0.849609 m 5,0,1
 1003.92 138.59 l 5,2,3
 841.595 503.549 841.595 503.549 787.614 719.282 c 4,4,5
 697.81 1078.18 697.81 1078.18 658.704 1363.4 c 5,6,-1
 519.147 1363.4 l 5,7,8
 497.476 1130.22 497.476 1130.22 389.21 718.648 c 4,9,10
 322.923 466.66 322.923 466.66 163.923 138.59 c 5,11,12
 289.925 0.849609 l 5,13,14
 408.284 231.069 408.284 231.069 513.448 599.136 c 4,15,16
 567.635 788.788 567.635 788.788 588.505 903.601 c 5,17,18
 609.68 787.104 609.68 787.104 663.561 599.136 c 4,19,20
 721.686 395.229 721.686 395.229 886.925 0.849609 c 5,0,1
EndSplineSet
EndChar

StartChar: afii57401
Encoding: 1641 1641 65
Width: 1212
VWidth: 2270
GlyphClass: 2
Flags: W
LayerCount: 2
Fore
SplineSet
564.745 699.534 m 0,0,1
 294.97 716.156 294.97 716.156 188.896 839.91 c 0,2,3
 103.025 941.26 103.025 941.26 103.025 1057.39 c 0,4,5
 103.025 1222.35 103.025 1222.35 202 1330.9 c 0,6,7
 315.57 1455.47 315.57 1455.47 500.196 1455.47 c 0,8,9
 678.456 1455.47 678.456 1455.47 762.62 1374.32 c 4,10,11
 888.525 1251.85 888.525 1251.85 903.237 1054.31 c 4,12,13
 914.602 900.857 914.602 900.857 935.081 730.188 c 4,14,15
 977.67 391.56 977.67 391.56 1073.46 1.22852 c 5,16,-1
 1052.24 1.22852 l 6,17,18
 907.373 1.22852 907.373 1.22852 853.243 257.403 c 0,19,20
 793.867 538.405 793.867 538.405 778.995 700.606 c 1,21,22
 675.077 692.68 675.077 692.68 564.745 699.534 c 0,0,1
761.243 869.404 m 1,23,-1
 754.242 972.318 l 2,24,25
 744.661 1113.15 744.661 1113.15 703.337 1175.62 c 1,26,27
 621.688 1290.29 621.688 1290.29 499.868 1290.29 c 0,28,29
 402.567 1290.29 402.567 1290.29 332.372 1222.57 c 0,30,31
 267.302 1159.83 267.302 1159.83 263.021 1067.06 c 0,32,33
 258.81 982.692 258.81 982.692 329.243 921.404 c 0,34,35
 367.743 887.904 367.743 887.904 458.745 873.375 c 0,36,37
 589.368 850.471 589.368 850.471 761.243 869.404 c 1,23,-1
EndSplineSet
EndChar

StartChar: afii57381
Encoding: 1642 1642 66
Width: 1177
VWidth: 2186
GlyphClass: 2
Flags: W
LayerCount: 2
Fore
SplineSet
459.39 1287.05 m 2,0,-1
 459.39 1158.05 l 2,1,2
 459.39 1121.05 459.39 1121.05 429.39 1121.04 c 2,3,-1
 302.391 1121.05 l 2,4,5
 268.39 1121.05 268.39 1121.05 268.39 1159.05 c 2,6,-1
 268.39 1287.05 l 2,7,8
 268.39 1319.05 268.39 1319.05 306.39 1319.05 c 2,9,-1
 421.39 1319.05 l 2,10,11
 459.39 1319.05 459.39 1319.05 459.39 1287.05 c 2,0,-1
911.192 233.849 m 2,12,-1
 911.192 104.849 l 2,13,14
 911.192 67.8477 911.192 67.8477 881.192 67.8477 c 2,15,-1
 754.192 67.8477 l 2,16,17
 720.192 67.8477 720.192 67.8477 720.192 105.848 c 2,18,-1
 720.192 233.849 l 2,19,20
 720.192 265.848 720.192 265.848 758.192 265.848 c 2,21,-1
 873.192 265.848 l 2,22,23
 911.192 265.848 911.192 265.848 911.192 233.849 c 2,12,-1
871.394 1373.5 m 1,24,-1
 983.001 1316 l 1,25,-1
 301 0 l 1,26,-1
 190 61 l 1,27,-1
 871.394 1373.5 l 1,24,-1
EndSplineSet
EndChar

StartChar: uni066B
Encoding: 1643 1643 67
Width: 711
VWidth: 2186
GlyphClass: 2
Flags: W
LayerCount: 2
Fore
SplineSet
443.218 502.139 m 1,0,-1
 568.799 501.203 l 1,1,2
 342.799 113.203 342.799 113.203 130 -230.265 c 1,3,-1
 1.59766 -228.502 l 1,4,5
 94.7988 -78.7969 94.7988 -78.7969 443.218 502.139 c 1,0,-1
EndSplineSet
EndChar

StartChar: uni066C
Encoding: 1644 1644 68
Width: 696
VWidth: 2186
GlyphClass: 2
Flags: W
LayerCount: 2
Fore
SplineSet
291.2 1580.01 m 1,0,-1
 490.97 1580.01 l 1,1,-1
 490.97 1433.52 l 1,2,-1
 320.557 1102.04 l 1,3,-1
 207.225 1102.04 l 1,4,-1
 291.2 1428.73 l 1,5,-1
 291.2 1580.01 l 1,0,-1
EndSplineSet
EndChar

StartChar: afii63167
Encoding: 1645 1645 69
Width: 1194
VWidth: 2186
GlyphClass: 2
Flags: W
LayerCount: 2
Fore
SplineSet
132.901 794.63 m 1,0,-1
 486.633 794.63 l 1,1,-1
 597.061 1130.84 l 1,2,-1
 707.487 794.63 l 1,3,-1
 1061.22 794.63 l 1,4,-1
 775.453 585.725 l 1,5,-1
 884.797 249.809 l 1,6,-1
 597.061 457.729 l 1,7,-1
 309.323 249.809 l 1,8,-1
 418.667 585.725 l 1,9,-1
 132.901 794.63 l 1,0,-1
EndSplineSet
EndChar

StartChar: uni066E
Encoding: 1646 1646 70
Width: 1626
VWidth: 2290
GlyphClass: 2
Flags: W
AnchorPoint: "Anchor-10" 687.278 1092.71 basechar 0
AnchorPoint: "Anchor-7" 443.479 -243.424 basechar 0
LayerCount: 2
Fore
SplineSet
1317.55 642.649 m 1,0,1
 1461.07 772.867 l 1,2,3
 1523.55 584.966 1523.55 584.966 1534.16 415.44 c 0,4,5
 1548.35 188.696 1548.35 188.696 1430.92 119.239 c 0,6,7
 1307.98 46.1621 1307.98 46.1621 1087.41 16.7236 c 0,8,9
 984.517 2.99121 984.517 2.99121 929.564 1.35156 c 16,10,11
 462.221 -17.6152 462.221 -17.6152 275.763 79.6758 c 0,12,13
 84.918 179.401 84.918 179.401 91.3027 476.599 c 0,14,15
 94 603.155 94 603.155 145.753 704.154 c 1,16,-1
 201.393 675.604 l 5,17,18
 191.393 639.562 191.393 639.562 184.763 575 c 0,19,20
 180.534 516.902 180.534 516.902 181.479 473.573 c 0,21,22
 190.194 228.435 190.194 228.435 549.649 193.732 c 0,23,24
 691.893 180 691.893 180 966.893 182.562 c 1,25,26
 1111.45 187.799 1111.45 187.799 1192 203.775 c 0,27,28
 1321.01 229.364 1321.01 229.364 1400.33 272.597 c 0,29,30
 1458.71 305.079 1458.71 305.079 1425 393 c 1,31,-1
 1317.55 642.649 l 1,0,1
EndSplineSet
Substitution2: "'init' Initial Forms in Arabic lookup 13 subtable" uni066E.init
Substitution2: "'medi' Medial Forms in Arabic lookup 11 subtable" uni066E.medi
Substitution2: "'fina' Terminal Forms in Arabic lookup 9 subtable" uni066E.fina
EndChar

StartChar: uni066F
Encoding: 1647 1647 71
Width: 1391
VWidth: 2307
GlyphClass: 2
Flags: W
AnchorPoint: "Anchor-10" 328.703 1095.86 basechar 0
AnchorPoint: "Anchor-7" 460.144 -651.547 basechar 0
LayerCount: 2
Fore
SplineSet
1020.66 524 m 0,0,1
 913.843 521.82 913.843 521.82 889.661 385 c 0,2,3
 873.392 289.891 873.392 289.891 947.411 265.218 c 0,4,5
 1052.41 230.218 1052.41 230.218 1189.66 275.998 c 1,6,7
 1191.21 354.627 1191.21 354.627 1162.66 417.396 c 0,8,9
 1114.5 524.943 1114.5 524.943 1020.66 524 c 0,0,1
1282.21 -8.86816 m 24,10,11
 1179.85 -421.19 1179.85 -421.19 651.355 -431.928 c 0,12,13
 311.702 -438.507 311.702 -438.507 173.396 -245.848 c 0,14,15
 59.5736 -88.369 59.5736 -88.369 123.886 178.116 c 0,16,17
 146.428 271.521 146.428 271.521 170.631 344.071 c 0,18,19
 191 404.129 191 404.129 216.483 469.129 c 1,20,-1
 294.829 425 l 1,21,22
 173.995 123.095 173.995 123.095 246.876 -58.583 c 0,23,24
 324.844 -255.626 324.844 -255.626 635.55 -262.083 c 0,25,26
 1141.77 -272.603 1141.77 -272.603 1180.83 102.62 c 1,27,28
 1104.16 82.3955 1104.16 82.3955 1004.66 91.8955 c 0,29,30
 887.56 103.076 887.56 103.076 831.448 190.542 c 0,31,32
 782.452 267.032 782.452 267.032 794.448 379.943 c 0,33,34
 813.591 560.121 813.591 560.121 908.661 652 c 0,35,36
 961.882 703.436 961.882 703.436 1056.66 695.396 c 0,37,38
 1125.17 689.238 1125.17 689.238 1192.66 613.396 c 0,39,40
 1274.12 523.338 1274.12 523.338 1294.34 357.383 c 0,41,42
 1320.28 144.493 1320.28 144.493 1282.21 -8.86816 c 24,10,11
EndSplineSet
Substitution2: "'init' Initial Forms in Arabic lookup 13 subtable" uni066F.init
Substitution2: "'medi' Medial Forms in Arabic lookup 11 subtable" uni066F.medi
Substitution2: "'fina' Terminal Forms in Arabic lookup 9 subtable" uni066F.fina
EndChar

StartChar: uni0670
Encoding: 1648 1648 72
Width: 0
VWidth: 2186
GlyphClass: 4
Flags: W
AnchorPoint: "Anchor-10" 547.84 1279.5 mark 0
AnchorPoint: "Anchor-9" 547.84 1279.5 mark 0
AnchorPoint: "Anchor-1" 547.84 1884 basemark 0
AnchorPoint: "Anchor-1" 547.84 1279.5 mark 0
LayerCount: 2
Fore
SplineSet
525.99 1327.81 m 5,0,-1
 501.99 1781.69 l 5,1,-1
 593.69 1835.69 l 5,2,-1
 593.69 1327.81 l 5,3,-1
 525.99 1327.81 l 5,0,-1
EndSplineSet
EndChar

StartChar: uni0674
Encoding: 1652 1652 73
Width: 639
VWidth: 2186
GlyphClass: 2
Flags: W
LayerCount: 2
Fore
SplineSet
143.54 1515.26 m 1,0,-1
 254.306 1540.82 l 1,1,2
 145.68 1590.21 145.68 1590.21 145.68 1692.52 c 0,3,4
 145.68 1778.8 145.68 1778.8 206 1832 c 0,5,6
 256.995 1876.48 256.995 1876.48 343 1877 c 0,7,8
 410.823 1877 410.823 1877 462.08 1846.81 c 1,9,-1
 462.08 1769.8 l 1,10,11
 397.433 1802.12 397.433 1802.12 332 1795 c 0,12,13
 227.549 1783.73 227.549 1783.73 220.26 1701.08 c 0,14,15
 212.646 1612.93 212.646 1612.93 330.161 1577.33 c 0,16,17
 366.368 1566.36 366.368 1566.36 484.55 1593.69 c 1,18,-1
 484.55 1511.4 l 1,19,-1
 143.54 1434.84 l 1,20,-1
 143.54 1515.26 l 1,0,-1
EndSplineSet
EndChar

StartChar: uni06A1
Encoding: 1697 1697 77
Width: 1657
VWidth: 2307
GlyphClass: 2
Flags: W
AnchorPoint: "Anchor-10" 486.273 1270.83 basechar 0
AnchorPoint: "Anchor-7" 599.693 -190.024 basechar 0
LayerCount: 2
Fore
SplineSet
1289.98 793.576 m 0,0,1
 1183.17 791.397 1183.17 791.397 1158.98 654.577 c 0,2,3
 1144.25 568.472 1144.25 568.472 1216.73 534.795 c 0,4,5
 1316.73 489.795 1316.73 489.795 1458.98 545.575 c 1,6,7
 1460.53 624.205 1460.53 624.205 1431.98 686.973 c 0,8,9
 1383.82 794.52 1383.82 794.52 1289.98 793.576 c 0,0,1
1459.15 372.197 m 1,10,11
 1374.78 350.614 1374.78 350.614 1273.98 361.473 c 0,12,13
 1155.89 374.194 1155.89 374.194 1100.77 460.119 c 0,14,15
 1051.77 536.609 1051.77 536.609 1063.77 649.521 c 0,16,17
 1081.63 828.457 1081.63 828.457 1177.98 921.576 c 0,18,19
 1231.21 973.012 1231.21 973.012 1325.98 964.973 c 0,20,21
 1394.49 958.815 1394.49 958.815 1461.98 882.973 c 0,22,23
 1543.44 792.915 1543.44 792.915 1563.67 626.96 c 0,24,25
 1582.14 467.46 1582.14 467.46 1565.15 360.197 c 24,26,27
 1533.14 158.057 1533.14 158.057 1376.36 69.7979 c 0,28,29
 1267.12 8.325 1267.12 8.325 929.564 -0.648438 c 24,30,31
 433.64 -13.791 433.64 -13.791 276.668 69.2324 c 0,32,33
 84.709 170.35 84.709 170.35 91.3027 476.599 c 0,34,35
 94 603.155 94 603.155 145.753 704.154 c 1,36,-1
 201 675.603 l 1,37,38
 192 643.37 192 643.37 184.763 575 c 0,39,40
 179.543 528.021 179.543 528.021 181.479 473.573 c 0,41,42
 190.022 239.81 190.022 239.81 528.668 190.232 c 0,43,44
 611.714 178.075 611.714 178.075 963.263 178.172 c 1,45,46
 1224.27 184.038 1224.27 184.038 1310.36 213.798 c 0,47,48
 1455.31 263.508 1455.31 263.508 1459.15 372.197 c 1,10,11
EndSplineSet
Substitution2: "'init' Initial Forms in Arabic lookup 13 subtable" uni06A1.init
Substitution2: "'medi' Medial Forms in Arabic lookup 11 subtable" uni06A1.medi
Substitution2: "'fina' Terminal Forms in Arabic lookup 9 subtable" uni06A1.fina
EndChar

StartChar: uni06A9
Encoding: 1705 1705 78
Width: 1777
VWidth: 2291
GlyphClass: 2
Flags: W
AnchorPoint: "Anchor-10" 268.771 1230.92 basechar 0
AnchorPoint: "Anchor-7" 391.73 -293.384 basechar 0
LayerCount: 2
Fore
SplineSet
929.564 -0.648438 m 24,0,1
 444.867 -19.7295 444.867 -19.7295 276.668 69.2324 c 0,2,3
 84.709 170.35 84.709 170.35 91.3027 476.599 c 0,4,5
 94 603.155 94 603.155 145.753 704.154 c 1,6,-1
 200.292 675.603 l 5,7,8
 192.542 645.011 192.542 645.011 184.763 575 c 0,9,10
 179.543 528.021 179.543 528.021 181.479 473.573 c 0,11,12
 190.022 239.81 190.022 239.81 528.668 190.232 c 0,13,14
 699.582 165.212 699.582 165.212 962.763 178.172 c 0,15,16
 1301.85 194.869 1301.85 194.869 1376.89 320.017 c 0,17,18
 1444.24 432.339 1444.24 432.339 1317.29 531.797 c 2,19,-1
 1041.09 748.183 l 2,20,21
 943.524 824.62 943.524 824.62 937.829 890.87 c 0,22,23
 928.237 1002.77 928.237 1002.77 1051.42 1067.31 c 2,24,-1
 1731.5 1423.65 l 1,25,26
 1708 1304.82 1708 1304.82 1669.58 1222.92 c 1,27,-1
 1066.33 919.96 l 1,28,29
 1408.74 634.843 l 1,30,31
 1523.48 526.804 1523.48 526.804 1508.33 359.017 c 0,32,33
 1493.25 191.625 1493.25 191.625 1340.89 107.017 c 0,34,35
 1162.26 8.51209 1162.26 8.51209 929.564 -0.648438 c 24,0,1
EndSplineSet
Substitution2: "'init' Initial Forms in Arabic lookup 13 subtable" uniFB90
Substitution2: "'medi' Medial Forms in Arabic lookup 11 subtable" uniFB91
Substitution2: "'fina' Terminal Forms in Arabic lookup 9 subtable" uniFB8F
EndChar

StartChar: afii57514
Encoding: 1722 1722 80
Width: 1359
VWidth: 2291
GlyphClass: 2
Flags: W
AnchorPoint: "Anchor-10" 587.961 996.99 basechar 0
AnchorPoint: "Anchor-7" 305.838 -757.488 basechar 0
LayerCount: 2
Fore
SplineSet
207 379.108 m 1,0,1
 275.464 334.108 l 5,2,3
 172.639 41.1104 172.639 41.1104 239.178 -100.305 c 0,4,5
 341.242 -317.212 341.242 -317.212 664.852 -311.804 c 0,6,7
 1133.32 -303.834 1133.32 -303.834 1157.58 0 c 1,8,-1
 1025.58 408.108 l 1,9,-1
 1157.43 541.108 l 1,10,11
 1271.43 214.109 1271.43 214.109 1268.58 -0 c 1,12,13
 1188.55 -471.442 1188.55 -471.442 669.084 -481.362 c 0,14,15
 305.238 -488.027 305.238 -488.027 165.697 -287.568 c 0,16,17
 56.8994 -130.017 56.8994 -130.017 116.188 107.396 c 0,18,19
 131.817 169.977 131.817 169.977 166.933 273.351 c 0,20,21
 188.841 337.842 188.841 337.842 207 379.108 c 1,0,1
EndSplineSet
Substitution2: "'init' Initial Forms in Arabic lookup 13 subtable" uni06BA.init
Substitution2: "'medi' Medial Forms in Arabic lookup 11 subtable" uni06BA.medi
Substitution2: "'fina' Terminal Forms in Arabic lookup 9 subtable" uniFB9F
EndChar

StartChar: uni06F4
Encoding: 1780 1780 87
Width: 1211
VWidth: 2129
GlyphClass: 2
Flags: W
LayerCount: 2
Fore
SplineSet
361.42 1119.66 m 1,0,1
 386.579 1348.91 386.579 1348.91 590.526 1453.13 c 0,2,3
 746.995 1533.09 746.995 1533.09 939.096 1454.28 c 1,4,5
 961.027 1425.66 961.027 1425.66 980.399 1295.91 c 1,6,7
 884.466 1362.13 884.466 1362.13 767.526 1356.13 c 0,8,9
 662.651 1350.75 662.651 1350.75 597.526 1288.13 c 0,10,11
 479.091 1174.26 479.091 1174.26 516 1003.29 c 1,12,13
 757.789 911.283 757.789 911.283 1005 1018.29 c 1,14,15
 1031.03 972.66 1031.03 972.66 1041 871.285 c 1,16,17
 725.756 742.285 725.756 742.285 438 856.285 c 1,18,19
 497.619 611.399 497.619 611.399 496.685 284.654 c 0,20,21
 496.141 38.9627 496.141 38.9627 417.685 18.2852 c 2,22,-1
 383.536 9.28516 l 1,23,24
 375.284 455.24 375.284 455.24 267.685 842.285 c 0,25,26
 231.803 971.355 231.803 971.355 71.8389 1334.77 c 0,27,-1
 207.059 1437.15 l 1,28,29
 284.239 1278.41 284.239 1278.41 361.42 1119.66 c 1,0,1
EndSplineSet
EndChar

StartChar: uni06F5
Encoding: 1781 1781 88
Width: 1212
VWidth: 2130
GlyphClass: 2
Flags: W
LayerCount: 2
Fore
SplineSet
610.506 342.017 m 0,0,1
 684.678 185.983 684.678 185.983 813.346 180.581 c 0,2,3
 997.79 172.892 997.79 172.892 945.858 470.69 c 1,4,5
 869.313 795.181 869.313 795.181 569.93 1055.84 c 1,6,7
 340.18 786.555 340.18 786.555 261.22 521.332 c 0,8,9
 160.551 191.234 160.551 191.234 383.305 181.199 c 0,10,11
 503.206 175.797 503.206 175.797 583.174 341.875 c 0,12,13
 596.962 370.51 596.962 370.51 610.506 342.017 c 0,0,1
368.768 2.38965 m 0,14,15
 90.1504 2.39258 90.1504 2.39258 68.1416 276.354 c 0,16,17
 38.6162 649.895 38.6162 649.895 455.117 1155.03 c 1,18,19
 424.282 1181.8 424.282 1181.8 424.158 1182.49 c 0,20,21
 482.636 1349.99 l 5,22,23
 532.295 1314.18 532.295 1314.18 587.573 1267.36 c 0,24,25
 1157.96 746.942 1157.96 746.942 1105.75 280.404 c 0,26,27
 1073.73 -6.07617 1073.73 -6.07617 827.062 2.89648 c 1,28,29
 652.23 7.44238 652.23 7.44238 600.769 150.322 c 2,30,-1
 596.011 163.532 l 1,31,-1
 591.246 150.325 l 2,32,33
 537.877 2.39258 537.877 2.39258 368.768 2.38965 c 0,14,15
EndSplineSet
EndChar

StartChar: uni06F6
Encoding: 1782 1782 89
Width: 1210
VWidth: 2270
GlyphClass: 2
Flags: W
LayerCount: 2
Fore
SplineSet
165.106 0 m 1,0,1
 192.149 130.528 192.149 130.528 335.511 375.921 c 0,2,3
 416.79 515.077 416.79 515.077 537.344 635.1 c 1,4,5
 263.146 707.685 263.146 707.685 265.344 980 c 0,6,7
 266.796 1139.93 266.796 1139.93 345.344 1233 c 0,8,9
 482.318 1395.9 482.318 1395.9 741 1366.21 c 0,10,11
 833.687 1355.57 833.687 1355.57 887.633 1305.21 c 1,12,13
 908.222 1161.2 l 1,14,15
 701.455 1248.05 701.455 1248.05 579.399 1196.02 c 0,16,17
 455.769 1143.33 455.769 1143.33 431.344 1027 c 0,18,19
 379.092 778.143 379.092 778.143 702.344 743.1 c 1,20,21
 789.234 753.294 789.234 753.294 989.667 831.921 c 1,22,23
 996.107 768.921 996.107 768.921 984.106 642.921 c 1,24,25
 727.396 588.042 727.396 588.042 459.106 270.921 c 0,26,27
 229.903 0 229.903 0 188.511 0 c 2,28,-1
 165.106 0 l 1,0,1
EndSplineSet
EndChar

StartChar: uniFB8F
Encoding: 64399 64399 104
Width: 1953
VWidth: 2291
GlyphClass: 2
Flags: W
AnchorPoint: "Anchor-10" 338.756 1200.86 basechar 0
AnchorPoint: "Anchor-7" 422.496 -268.828 basechar 0
LayerCount: 2
Fore
SplineSet
964.263 178.172 m 0,0,1
 1354.82 178.098 1354.82 178.098 1369.24 324.284 c 0,2,3
 1374.93 381.949 1374.93 381.949 1258.14 488.131 c 2,4,-1
 1027.97 697.394 l 2,5,6
 933.642 783.154 933.642 783.154 929.87 875.632 c 0,7,8
 924.229 996.842 924.229 996.842 1054.73 1065.22 c 2,9,-1
 1734.81 1421.56 l 1,10,11
 1717.14 1311.13 1717.14 1311.13 1672.89 1220.82 c 1,12,-1
 1048.64 902.865 l 1,13,-1
 1704.91 274.111 l 2,14,15
 1805.21 178.013 1805.21 178.013 1928.76 178.341 c 2,16,-1
 1964.19 178.435 l 1,17,-1
 1964.19 -0.578125 l 1,18,-1
 1896.63 -0.578125 l 2,19,20
 1714.93 -0.578125 1714.93 -0.578125 1505.98 276.585 c 1,21,22
 1431.3 2.93301 1431.3 2.93301 930.564 -4.64844 c 16,23,24
 431.427 -12.2334 431.427 -12.2334 277.668 69.2324 c 0,25,26
 85.709 170.35 85.709 170.35 92.3027 476.599 c 0,27,28
 95 603.155 95 603.155 146.753 704.154 c 1,29,-1
 202 675.603 l 5,30,31
 192.409 638.768 192.409 638.768 185.763 575 c 0,32,33
 180.543 528.021 180.543 528.021 182.479 473.573 c 0,34,35
 191.022 239.81 191.022 239.81 529.668 190.232 c 0,36,37
 612.714 178.075 612.714 178.075 964.263 178.172 c 0,0,1
EndSplineSet
EndChar

StartChar: uniFB9F
Encoding: 64415 64415 112
Width: 1418
VWidth: 2291
GlyphClass: 2
Flags: W
AnchorPoint: "Anchor-10" 337.69 753.27 basechar 0
AnchorPoint: "Anchor-7" 237.648 -744.038 basechar 0
LayerCount: 2
Fore
SplineSet
207 379.108 m 5,0,1
 268.583 331.108 l 1,2,3
 171.251 44.0539 171.251 44.0539 239.178 -100.305 c 0,4,5
 341.242 -317.212 341.242 -317.212 664.852 -311.804 c 0,6,7
 1133.32 -303.834 1133.32 -303.834 1157.58 0 c 1,8,-1
 1025.58 408.108 l 1,9,-1
 1175.33 549.794 l 1,10,11
 1219.6 316.991 1219.6 316.991 1244.93 263.396 c 0,12,13
 1285.97 178.675 1285.97 178.675 1384.11 178.675 c 2,14,-1
 1428.89 178.675 l 1,15,-1
 1428.89 -0.337891 l 1,16,-1
 1386.39 -0.337891 l 2,17,18
 1311.61 -0.337891 1311.61 -0.337891 1260.58 83.1084 c 1,19,20
 1270.58 37.1086 1270.58 37.1086 1268.58 -0 c 1,21,22
 1188.55 -471.442 1188.55 -471.442 669.084 -481.362 c 0,23,24
 305.238 -488.027 305.238 -488.027 165.697 -287.568 c 0,25,26
 56.8994 -130.017 56.8994 -130.017 116.188 107.396 c 0,27,28
 131.817 169.977 131.817 169.977 166.933 273.351 c 0,29,30
 188.841 337.842 188.841 337.842 207 379.108 c 5,0,1
EndSplineSet
EndChar

StartChar: uniFBE8
Encoding: 64488 64488 115
Width: 521
VWidth: 2290
GlyphClass: 2
Flags: W
AnchorPoint: "Anchor-10" 204.879 1056.31 basechar 0
AnchorPoint: "Anchor-7" 230.02 -216.43 basechar 0
LayerCount: 2
Fore
SplineSet
37.8213 -0.179688 m 4,0,1
 -30.1113 -0.179688 l 1,2,-1
 -30.1113 178.938 l 1,3,-1
 44.0264 178.938 l 6,4,5
 319.074 178.94 319.074 178.94 313.11 342.796 c 0,6,7
 311.687 387.324 311.687 387.324 190.61 606.916 c 1,8,9
 334.127 737.134 l 1,10,11
 419.632 557.728 419.632 557.728 429.219 390.911 c 0,12,13
 439.614 210.029 439.614 210.029 352.898 108.951 c 0,14,15
 256.24 -4.47559 256.24 -4.47559 37.8213 -0.179688 c 4,0,1
EndSplineSet
EndChar

StartChar: uniFBE9
Encoding: 64489 64489 116
Width: 664
VWidth: 2290
GlyphClass: 2
Flags: W
AnchorPoint: "Anchor-10" 315.928 1005.08 basechar 0
AnchorPoint: "Anchor-7" 296.848 -145.025 basechar 0
LayerCount: 2
Fore
SplineSet
316.13 483.25 m 21,0,1
 321.124 538.856 321.124 538.856 354.63 539.136 c 4,2,3
 396.099 539.503 396.099 539.503 400.13 488.75 c 5,4,-1
 404.723 421.055 l 6,5,6
 413.412 292.984 413.412 292.984 460.438 240 c 0,7,8
 512.875 178.824 512.875 178.824 662.562 178.824 c 2,9,-1
 674.702 178.824 l 1,10,-1
 674.702 -0.294922 l 1,11,-1
 658.42 0.705078 l 2,12,13
 435.459 14.3988 435.459 14.3988 366.63 152.596 c 1,14,15
 263.183 3.67532 263.183 3.67532 58.4766 0.705078 c 2,16,-1
 -10.4424 -0.294922 l 1,17,-1
 -10.4424 178.824 l 1,18,-1
 46.8154 178.824 l 2,19,20
 134.367 178.824 134.367 178.824 191.13 203.25 c 0,21,22
 308.099 253.636 308.099 253.636 311.63 354.596 c 6,23,-1
 316.13 483.25 l 21,0,1
EndSplineSet
EndChar

StartChar: uniFE73
Encoding: 65139 65139 124
Width: 573
VWidth: 2186
GlyphClass: 2
Flags: W
AnchorPoint: "Anchor-10" 210.79 1279.5 basechar 0
AnchorPoint: "Anchor-7" 210.79 -111.5 basechar 0
LayerCount: 2
Fore
SplineSet
296.23 350.74 m 2,0,1
 296.23 286.506 296.23 286.506 352.468 230.268 c 0,2,3
 403.354 179.38 403.354 179.38 514.67 179.38 c 2,4,-1
 581.92 179.38 l 1,5,-1
 581.92 8.5 l 1,6,-1
 455.82 8.5 l 2,7,8
 309.266 8.5 309.266 8.5 214.633 103.133 c 0,9,10
 125.35 192.415 125.35 192.415 125.35 337.9 c 2,11,-1
 125.35 370.91 l 1,12,-1
 296.23 370.91 l 1,13,-1
 296.23 350.74 l 2,0,1
EndSplineSet
EndChar

StartChar: uniFE8E
Encoding: 65166 65166 150
Width: 545
VWidth: 2267
GlyphClass: 2
Flags: W
AnchorPoint: "Anchor-10" 148.257 1523.7 basechar 0
AnchorPoint: "Anchor-7" 241.297 -262.991 basechar 0
LayerCount: 2
Fore
SplineSet
283.18 1427.04 m 1,0,-1
 283.738 441.686 l 2,1,2
 283.817 301.522 283.817 301.522 339.696 242.636 c 0,3,4
 399.906 179.018 399.906 179.018 521.01 179.018 c 2,5,-1
 555.195 179.018 l 1,6,-1
 555.195 -0.100586 l 1,7,-1
 499.969 -0.100586 l 2,8,9
 353.229 -0.100584 353.229 -0.100584 259.48 99 c 0,10,11
 170.966 195.896 170.966 195.896 166.48 384 c 0,12,13
 156.548 887.964 156.548 887.964 153.48 968 c 0,14,15
 142.392 1219.82 142.392 1219.82 113.766 1284.65 c 1,16,-1
 283.18 1427.04 l 1,0,-1
EndSplineSet
EndChar

StartChar: uniFEA2
Encoding: 65186 65186 170
Width: 1431
VWidth: 2287
GlyphClass: 2
Flags: W
AnchorPoint: "Anchor-10" 578.238 1196.58 basechar 0
AnchorPoint: "Anchor-7" 322.979 -884.647 basechar 0
LayerCount: 2
Fore
SplineSet
1065.4 470.472 m 1,0,1
 1111.89 179.374 1111.89 179.374 1376.29 179.374 c 2,2,-1
 1441.12 179.374 l 1,3,-1
 1441.12 -0.638672 l 1,4,-1
 1383.05 -0.638672 l 2,5,6
 1060.04 -0.638672 1060.04 -0.638672 983.736 452.445 c 1,7,8
 622.091 367.03 622.091 367.03 427.64 216.984 c 0,9,10
 231.737 65.0576 231.737 65.0576 235.731 -178.538 c 0,11,12
 238.852 -369.521 238.852 -369.521 401.202 -480.945 c 0,13,14
 546.986 -581 546.986 -581 893.624 -553.727 c 0,15,16
 1121.43 -535.325 1121.43 -535.325 1273.36 -425.811 c 1,17,-1
 1270.62 -453.727 l 2,18,19
 1250.22 -661.597 1250.22 -661.597 971.624 -722.727 c 0,20,21
 890.726 -740.478 890.726 -740.478 803.624 -743.727 c 0,22,23
 659.942 -749.251 659.942 -749.251 549 -728 c 0,24,25
 141.169 -647.221 141.169 -647.221 94.5244 -268.803 c 0,26,27
 50.0097 92.5302 50.0097 92.5302 395.64 338 c 0,28,29
 592.986 479.87 592.986 479.87 1002 570.537 c 1,30,31
 943.229 576.741 943.229 576.741 820.339 640.491 c 0,32,33
 665.485 721.377 665.485 721.377 558.093 712.329 c 0,34,35
 433.743 701.85 433.743 701.85 328.499 493.652 c 1,36,-1
 314.72 494.434 l 2,37,38
 285.623 496.085 285.623 496.085 314.765 628.266 c 0,39,40
 323.632 668.484 323.632 668.484 354.686 732.492 c 0,41,42
 416.805 860.865 416.805 860.865 556.686 864.492 c 0,43,44
 684.413 868.49 684.413 868.49 919.979 733.771 c 0,45,46
 1033.93 668.606 1033.93 668.606 1255.66 644.238 c 1,47,-1
 1232.34 500.498 l 1,48,49
 1145.19 486.909 1145.19 486.909 1065.4 470.472 c 1,0,1
EndSplineSet
EndChar

StartChar: uniFEA3
Encoding: 65187 65187 171
Width: 1191
VWidth: 2291
GlyphClass: 2
Flags: W
AnchorPoint: "Anchor-10" 287.645 1095.46 basechar 0
AnchorPoint: "Anchor-7" 494.345 -241.447 basechar 0
LayerCount: 2
Fore
SplineSet
643.196 143.902 m 0,0,1
 406.398 -0.436518 406.398 -0.436518 15.4951 -0.436523 c 2,2,-1
 -19.9795 -0.436523 l 1,3,-1
 -19.9795 179.682 l 1,4,-1
 6.12012 179.682 l 2,5,6
 341.484 179.682 341.484 179.682 612.274 281.986 c 0,7,8
 873.829 379.977 873.829 379.977 875.154 398.086 c 1,9,10
 778.118 412.258 778.118 412.258 595.314 497.726 c 0,11,12
 414.653 582.192 414.653 582.192 333.069 569.562 c 0,13,14
 203.908 549.567 203.908 549.567 103.475 350.887 c 1,15,16
 89.6953 351.668 l 2,17,18
 58.7856 353.42 58.7856 353.42 89.7412 485.5 c 0,19,20
 106.052 555.094 106.052 555.094 119.425 582.5 c 0,21,22
 187.476 720.038 187.476 720.038 334 735 c 0,23,24
 448.749 746.053 448.749 746.053 709.955 604.006 c 0,25,26
 849.782 527.133 849.782 527.133 1100.83 481.405 c 5,27,-1
 1077.51 340.846 l 5,28,29
 989.281 354.604 989.281 354.604 643.196 143.902 c 0,0,1
EndSplineSet
EndChar

StartChar: uniFEA4
Encoding: 65188 65188 172
Width: 1215
VWidth: 2291
GlyphClass: 2
Flags: W
AnchorPoint: "Anchor-10" 364.224 1117.15 basechar 0
AnchorPoint: "Anchor-7" 542.304 -249.39 basechar 0
LayerCount: 2
Fore
SplineSet
846.27 262.397 m 1,0,1
 857.043 179.173 857.043 179.173 1018.58 179.173 c 2,2,-1
 1225.5 179.173 l 1,3,-1
 1225.5 -0.900391 l 1,4,-1
 995.898 -0.900391 l 2,5,6
 822.766 -0.900391 822.766 -0.900391 755.76 213.056 c 5,7,8
 699.478 178.479 699.478 178.479 643.196 143.902 c 0,9,10
 406.398 -0.436523 406.398 -0.436523 15.4951 -0.436523 c 2,11,-1
 -19.9795 -0.436523 l 1,12,-1
 -19.9795 179.682 l 1,13,-1
 17.1201 179.682 l 2,14,15
 341.484 179.682 341.484 179.682 612.274 281.986 c 0,16,17
 873.829 379.977 873.829 379.977 875.154 398.086 c 1,18,19
 751.497 416.146 751.497 416.146 595.314 497.726 c 0,20,21
 440.461 578.611 440.461 578.611 333.069 569.562 c 0,22,23
 208.719 559.084 208.719 559.084 103.475 350.887 c 1,24,-1
 89.6953 351.668 l 2,25,26
 60.5022 353.323 60.5022 353.323 89.7412 485.5 c 0,27,28
 104.728 553.25 104.728 553.25 130.761 593.916 c 0,29,30
 212.573 721.716 212.573 721.716 347.761 726.916 c 0,31,32
 450.494 730.358 450.494 730.358 694.955 601.006 c 0,33,34
 844.872 521.68 844.872 521.68 1113.83 481.405 c 1,35,-1
 1090.51 340.846 l 1,36,37
 1016.3 348.932 1016.3 348.932 846.27 262.397 c 1,0,1
EndSplineSet
EndChar

StartChar: uniFEAA
Encoding: 65194 65194 178
Width: 1015
VWidth: 2285
GlyphClass: 2
Flags: W
AnchorPoint: "Anchor-10" 425.035 1171.14 basechar 0
AnchorPoint: "Anchor-7" 330.176 -276.449 basechar 0
LayerCount: 2
Fore
SplineSet
119.454 327.3 m 1,0,1
 135.5 189.071 135.5 189.071 330.35 185.866 c 0,2,3
 594.908 181.153 594.908 181.153 635.122 236.3 c 0,4,5
 664.157 275.954 664.157 275.954 652.271 336.475 c 0,6,7
 648.119 358.356 648.119 358.356 643.834 361.957 c 0,8,-1
 441 722.395 l 17,9,-1
 527.077 891.238 l 1,10,-1
 763.983 428.345 l 1,11,12
 905.588 182.563 905.588 182.563 995.75 178.703 c 2,13,-1
 1006.26 178.253 l 1,14,-1
 1025.29 178.253 l 1,15,-1
 1025.29 -0.759766 l 1,16,-1
 1011.69 -0.759766 l 2,17,18
 877.556 -0.759766 877.556 -0.759766 749.312 171.115 c 1,19,20
 669.934 -25.7764 669.934 -25.7764 310.453 3 c 4,21,-1
 282.119 6.18164 l 4,22,23
 91.1833 29.4991 91.1833 29.4991 91.6172 197.13 c 2,24,-1
 91.9541 327.3 l 1,25,26
 106 333.216 106 333.216 119.454 327.3 c 1,0,1
EndSplineSet
EndChar

StartChar: uniFEAE
Encoding: 65198 65198 182
Width: 879
VWidth: 2290
GlyphClass: 2
Flags: W
AnchorPoint: "Anchor-10" 423.796 864.783 basechar 0
AnchorPoint: "Anchor-7" 395.097 -661.14 basechar 0
LayerCount: 2
Fore
SplineSet
716.071 34.3447 m 1,0,1
 653.879 -416.456 653.879 -416.456 317.071 -448.969 c 0,2,3
 150.191 -465.078 150.191 -465.078 11.6104 -336.909 c 1,4,5
 609.071 -274.968 609.071 -274.968 623.953 129.317 c 1,6,7
 623.953 179.317 623.953 179.317 527.953 316.317 c 1,8,9
 532.098 334.89 532.098 334.89 575.071 415.795 c 0,10,11
 602.905 467.462 602.905 467.462 628.256 497.844 c 1,12,13
 678.071 365.936 678.071 365.936 722.071 227.937 c 5,14,15
 768.52 178.822 768.52 178.822 856.727 178.822 c 2,16,-1
 896.532 178.822 l 1,17,-1
 896.532 -0.294922 l 1,18,19
 837.984 -0.296874 837.984 -0.296874 837.95 -0.287109 c 2,20,21
 743.986 -0.274577 743.986 -0.274577 716.071 34.3447 c 1,0,1
EndSplineSet
PairPos2: "'kern' Horizontal Kerning lookup 15-1" uni06CC dx=-141 dy=0 dh=-141 dv=0 dx=0 dy=0 dh=0 dv=0
PairPos2: "'kern' Horizontal Kerning lookup 15-1" uniFEEB dx=-213 dy=0 dh=-213 dv=0 dx=0 dy=0 dh=0 dv=0
PairPos2: "'kern' Horizontal Kerning lookup 15-1" uniFB58 dx=99 dy=0 dh=99 dv=0 dx=0 dy=0 dh=0 dv=0
PairPos2: "'kern' Horizontal Kerning lookup 15-1" uniFEF3 dx=99 dy=0 dh=99 dv=0 dx=0 dy=0 dh=0 dv=0
PairPos2: "'kern' Horizontal Kerning lookup 15-1" uniFBFE dx=99 dy=0 dh=99 dv=0 dx=0 dy=0 dh=0 dv=0
PairPos2: "'kern' Horizontal Kerning lookup 15-1" uniFEDF dx=-213 dy=0 dh=-213 dv=0 dx=0 dy=0 dh=0 dv=0
PairPos2: "'kern' Horizontal Kerning lookup 15-1" uniFB90 dx=-213 dy=0 dh=-213 dv=0 dx=0 dy=0 dh=0 dv=0
PairPos2: "'kern' Horizontal Kerning lookup 15-1" uni06A9 dx=-213 dy=0 dh=-213 dv=0 dx=0 dy=0 dh=0 dv=0
PairPos2: "'kern' Horizontal Kerning lookup 15-1" uni0649 dx=-141 dy=0 dh=-141 dv=0 dx=0 dy=0 dh=0 dv=0
PairPos2: "'kern' Horizontal Kerning lookup 15-1" uni0647 dx=-213 dy=0 dh=-213 dv=0 dx=0 dy=0 dh=0 dv=0
PairPos2: "'kern' Horizontal Kerning lookup 15-1" uniFEE7 dx=-213 dy=0 dh=-213 dv=0 dx=0 dy=0 dh=0 dv=0
PairPos2: "'kern' Horizontal Kerning lookup 15-1" uniFEE3 dx=-213 dy=0 dh=-213 dv=0 dx=0 dy=0 dh=0 dv=0
PairPos2: "'kern' Horizontal Kerning lookup 15-1" uni0645 dx=-213 dy=0 dh=-213 dv=0 dx=0 dy=0 dh=0 dv=0
PairPos2: "'kern' Horizontal Kerning lookup 15-1" uniFEDB dx=-213 dy=0 dh=-213 dv=0 dx=0 dy=0 dh=0 dv=0
PairPos2: "'kern' Horizontal Kerning lookup 15-1" uniFED7 dx=-213 dy=0 dh=-213 dv=0 dx=0 dy=0 dh=0 dv=0
PairPos2: "'kern' Horizontal Kerning lookup 15-1" uniFED3 dx=-213 dy=0 dh=-213 dv=0 dx=0 dy=0 dh=0 dv=0
PairPos2: "'kern' Horizontal Kerning lookup 15-1" uni0641 dx=-213 dy=0 dh=-213 dv=0 dx=0 dy=0 dh=0 dv=0
PairPos2: "'kern' Horizontal Kerning lookup 15-1" uniFECF dx=-213 dy=0 dh=-213 dv=0 dx=0 dy=0 dh=0 dv=0
PairPos2: "'kern' Horizontal Kerning lookup 15-1" uniFECB dx=-213 dy=0 dh=-213 dv=0 dx=0 dy=0 dh=0 dv=0
PairPos2: "'kern' Horizontal Kerning lookup 15-1" uniFEC7 dx=-213 dy=0 dh=-213 dv=0 dx=0 dy=0 dh=0 dv=0
PairPos2: "'kern' Horizontal Kerning lookup 15-1" uni0638 dx=-213 dy=0 dh=-213 dv=0 dx=0 dy=0 dh=0 dv=0
PairPos2: "'kern' Horizontal Kerning lookup 15-1" uniFEC3 dx=-213 dy=0 dh=-213 dv=0 dx=0 dy=0 dh=0 dv=0
PairPos2: "'kern' Horizontal Kerning lookup 15-1" uni0637 dx=-213 dy=0 dh=-213 dv=0 dx=0 dy=0 dh=0 dv=0
PairPos2: "'kern' Horizontal Kerning lookup 15-1" uniFEBF dx=-213 dy=0 dh=-213 dv=0 dx=0 dy=0 dh=0 dv=0
PairPos2: "'kern' Horizontal Kerning lookup 15-1" uni0636 dx=-213 dy=0 dh=-213 dv=0 dx=0 dy=0 dh=0 dv=0
PairPos2: "'kern' Horizontal Kerning lookup 15-1" uniFEBB dx=-213 dy=0 dh=-213 dv=0 dx=0 dy=0 dh=0 dv=0
PairPos2: "'kern' Horizontal Kerning lookup 15-1" uni0635 dx=-213 dy=0 dh=-213 dv=0 dx=0 dy=0 dh=0 dv=0
PairPos2: "'kern' Horizontal Kerning lookup 15-1" uniFEB7 dx=-213 dy=0 dh=-213 dv=0 dx=0 dy=0 dh=0 dv=0
PairPos2: "'kern' Horizontal Kerning lookup 15-1" uni0634 dx=-213 dy=0 dh=-213 dv=0 dx=0 dy=0 dh=0 dv=0
PairPos2: "'kern' Horizontal Kerning lookup 15-1" uniFEB3 dx=-213 dy=0 dh=-213 dv=0 dx=0 dy=0 dh=0 dv=0
PairPos2: "'kern' Horizontal Kerning lookup 15-1" uni0633 dx=-213 dy=0 dh=-213 dv=0 dx=0 dy=0 dh=0 dv=0
PairPos2: "'kern' Horizontal Kerning lookup 15-1" uni0630 dx=-213 dy=0 dh=-213 dv=0 dx=0 dy=0 dh=0 dv=0
PairPos2: "'kern' Horizontal Kerning lookup 15-1" uni062F dx=-213 dy=0 dh=-213 dv=0 dx=0 dy=0 dh=0 dv=0
PairPos2: "'kern' Horizontal Kerning lookup 15-1" uniFEA7 dx=-213 dy=0 dh=-213 dv=0 dx=0 dy=0 dh=0 dv=0
PairPos2: "'kern' Horizontal Kerning lookup 15-1" uniFEA3 dx=-213 dy=0 dh=-213 dv=0 dx=0 dy=0 dh=0 dv=0
PairPos2: "'kern' Horizontal Kerning lookup 15-1" uniFE9F dx=-213 dy=0 dh=-213 dv=0 dx=0 dy=0 dh=0 dv=0
PairPos2: "'kern' Horizontal Kerning lookup 15-1" uniFE9B dx=-213 dy=0 dh=-213 dv=0 dx=0 dy=0 dh=0 dv=0
PairPos2: "'kern' Horizontal Kerning lookup 15-1" uni062B dx=-213 dy=0 dh=-213 dv=0 dx=0 dy=0 dh=0 dv=0
PairPos2: "'kern' Horizontal Kerning lookup 15-1" uniFE97 dx=-213 dy=0 dh=-213 dv=0 dx=0 dy=0 dh=0 dv=0
PairPos2: "'kern' Horizontal Kerning lookup 15-1" uni062A dx=-213 dy=0 dh=-213 dv=0 dx=0 dy=0 dh=0 dv=0
PairPos2: "'kern' Horizontal Kerning lookup 15-1" uni0629 dx=-213 dy=0 dh=-213 dv=0 dx=0 dy=0 dh=0 dv=0
PairPos2: "'kern' Horizontal Kerning lookup 15-1" uni0628 dx=-213 dy=0 dh=-213 dv=0 dx=0 dy=0 dh=0 dv=0
PairPos2: "'kern' Horizontal Kerning lookup 15-1" uni0627 dx=-241 dy=0 dh=-241 dv=0 dx=0 dy=0 dh=0 dv=0
PairPos2: "'kern' Horizontal Kerning lookup 15-1" uni0622 dx=-241 dy=0 dh=-241 dv=0 dx=0 dy=0 dh=0 dv=0
PairPos2: "'kern' Horizontal Kerning lookup 15-1" uniFB94 dx=-213 dy=0 dh=-213 dv=0 dx=0 dy=0 dh=0 dv=0
PairPos2: "'kern' Horizontal Kerning lookup 15-1" afii57509 dx=-213 dy=0 dh=-213 dv=0 dx=0 dy=0 dh=0 dv=0
PairPos2: "'kern' Horizontal Kerning lookup 15-1" uniFB56 dx=-213 dy=0 dh=-213 dv=0 dx=0 dy=0 dh=0 dv=0
PairPos2: "'kern' Horizontal Kerning lookup 15-1" afii57506 dx=-213 dy=0 dh=-213 dv=0 dx=0 dy=0 dh=0 dv=0
EndChar

StartChar: uniFEB2
Encoding: 65202 65202 186
Width: 2394
VWidth: 2290
GlyphClass: 2
Flags: W
AnchorPoint: "Anchor-10" 553.867 931.321 basechar 0
AnchorPoint: "Anchor-7" 378.967 -746.659 basechar 0
LayerCount: 2
Fore
SplineSet
1425.2 170.992 m 0,0,1
 1578.86 169.466 1578.86 169.466 1620.6 300.535 c 0,2,3
 1637.28 352.914 1637.28 352.914 1638.96 431.416 c 1,4,5
 1643.96 487.022 1643.96 487.022 1677.46 487.302 c 0,6,7
 1718.93 487.669 1718.93 487.669 1722.96 436.916 c 1,8,-1
 1724.08 414.141 l 2,9,10
 1735.39 184.214 1735.39 184.214 1890.34 179.642 c 9,11,12
 2039.87 177.734 2039.87 177.734 2051.09 366.206 c 4,13,14
 2054.58 424.74 2054.58 424.74 2052.16 483.477 c 5,15,16
 2057.15 539.083 2057.15 539.083 2090.66 539.362 c 4,17,18
 2132.12 539.729 2132.12 539.729 2136.16 488.977 c 5,19,-1
 2138.09 469.436 l 6,20,21
 2155.73 290.847 2155.73 290.847 2182.09 247.936 c 0,22,23
 2223.27 179.736 2223.27 179.736 2370.58 179.736 c 2,24,-1
 2407.88 179.736 l 1,25,-1
 2407.88 -0.335938 l 1,26,-1
 2377.1 -0.335938 l 2,27,28
 2135.43 -0.335938 2135.43 -0.335938 2084.27 165.688 c 1,29,30
 2015.62 6.09277 2015.62 6.09277 1888.14 0.524414 c 1,31,32
 1826.47 -0.0107422 1826.47 -0.0107422 1792.15 16.4541 c 0,33,34
 1696.22 62.4795 1696.22 62.4795 1658.8 170.513 c 1,35,36
 1599.28 -0.213867 1599.28 -0.213867 1421.81 0 c 0,37,-1
 1383.75 1.0332 l 2,38,39
 1296.81 3.39332 1296.81 3.39332 1258.58 83.1084 c 1,40,41
 1268.58 37.1084 1268.58 37.1084 1266.58 0 c 1,42,43
 1186.55 -471.442 1186.55 -471.442 667.084 -481.362 c 0,44,45
 303.238 -488.027 303.238 -488.027 163.697 -287.568 c 0,46,47
 51.9453 -125.739 51.9453 -125.739 114.188 107.396 c 0,48,49
 133.914 181.282 133.914 181.282 163 268.814 c 0,50,51
 190.578 353.815 190.578 353.815 200 379.108 c 0,52,-1
 267.076 334.108 l 1,53,54
 170.164 44.6045 170.164 44.6045 237.178 -100.305 c 0,55,56
 339.242 -317.212 339.242 -317.212 662.852 -311.804 c 0,57,58
 1131.32 -303.834 1131.32 -303.834 1155.58 0 c 1,59,-1
 1023.58 408.108 l 1,60,-1
 1173.33 549.794 l 1,61,62
 1215.92 322.382 1215.92 322.382 1243.93 263.396 c 0,63,64
 1287.04 172.627 1287.04 172.627 1425.2 170.992 c 0,0,1
EndSplineSet
EndChar

StartChar: uniFEB3
Encoding: 65203 65203 187
Width: 1359
VWidth: 2290
GlyphClass: 2
Flags: W
AnchorPoint: "Anchor-10" 640.331 989.511 basechar 0
AnchorPoint: "Anchor-7" 619.53 -222.6 basechar 0
LayerCount: 2
Fore
SplineSet
259.318 376.723 m 1,0,1
 264.312 432.329 264.312 432.329 297.818 432.608 c 0,2,3
 339.286 432.976 339.286 432.976 343.318 382.223 c 1,4,-1
 347.394 352.742 l 2,5,6
 372.33 172.348 372.33 172.348 519.555 170.799 c 4,7,8
 673.216 169.272 673.216 169.272 714.957 300.342 c 4,9,10
 731.638 352.721 731.638 352.721 733.318 431.223 c 5,11,12
 738.313 486.829 738.313 486.829 771.818 487.108 c 4,13,14
 813.286 487.476 813.286 487.476 817.318 436.723 c 5,15,-1
 818.432 413.947 l 6,16,17
 829.665 184.142 829.665 184.142 988.695 179.448 c 5,18,19
 1157.74 179.448 1157.74 179.448 1151.78 343.307 c 4,20,21
 1150.36 387.835 1150.36 387.835 1029.28 607.427 c 5,22,-1
 1172.8 737.645 l 5,23,24
 1258.3 558.238 1258.3 558.238 1267.89 391.422 c 4,25,26
 1278.17 212.45 1278.17 212.45 1191.57 109.462 c 4,27,28
 1097.23 -3.96484 1097.23 -3.96484 982.49 0.331055 c 5,29,30
 920.82 -0.204102 920.82 -0.204102 886.502 16.2607 c 4,31,32
 790.573 62.2861 790.573 62.2861 753.155 170.319 c 5,33,34
 693.635 -0.407227 693.635 -0.407227 516.165 -0.193359 c 4,35,36
 347.166 0 347.166 0 284.155 164.319 c 1,37,38
 249.734 84.0039 249.734 84.0039 189.653 43.3076 c 0,39,40
 125.423 -0.199219 125.423 -0.199219 27.8633 -0.199219 c 2,41,-1
 -10.3438 -0.199219 l 1,42,-1
 -10.3438 178.92 l 1,43,-1
 17.4814 178.92 l 2,44,45
 251.06 178.92 251.06 178.92 256.471 308.521 c 2,46,-1
 259.318 376.723 l 1,0,1
EndSplineSet
EndChar

StartChar: uniFEB4
Encoding: 65204 65204 188
Width: 1492
VWidth: 2290
GlyphClass: 2
Flags: W
AnchorPoint: "Anchor-10" 606.883 988.88 basechar 0
LayerCount: 2
Fore
SplineSet
1230.51 486.783 m 5,0,1
 1232.44 467.242 l 6,2,3
 1249.84 291.039 1249.84 291.039 1276.44 247.742 c 0,4,5
 1317.62 179.543 1317.62 179.543 1464.93 179.543 c 2,6,-1
 1502.23 179.543 l 1,7,-1
 1502.23 -0.529297 l 1,8,-1
 1471.45 -0.529297 l 2,9,10
 1229.78 -0.529297 1229.78 -0.529297 1178.62 165.495 c 1,11,12
 1109.97 5.89941 1109.97 5.89941 982.49 0.331055 c 1,13,14
 920.82 -0.204102 920.82 -0.204102 886.502 16.2607 c 0,15,16
 790.573 62.2861 790.573 62.2861 753.155 170.319 c 1,17,18
 693.635 -0.407227 693.635 -0.407227 516.165 -0.193359 c 0,19,20
 347.166 0 347.166 0 284.155 164.319 c 1,21,22
 249.734 84.0039 249.734 84.0039 189.653 43.3076 c 0,23,24
 125.423 -0.199219 125.423 -0.199219 27.8633 -0.199219 c 2,25,-1
 -10.3438 -0.199219 l 1,26,-1
 -10.3438 178.92 l 1,27,-1
 17.4814 178.92 l 2,28,29
 251.061 178.92 251.061 178.92 256.471 308.521 c 2,30,-1
 259.318 376.723 l 1,31,32
 264.312 432.329 264.312 432.329 297.818 432.608 c 0,33,34
 339.286 432.976 339.286 432.976 343.318 382.223 c 1,35,-1
 347.394 352.742 l 2,36,37
 372.335 172.349 372.335 172.349 519.555 170.799 c 0,38,39
 673.217 169.272 673.217 169.272 714.957 300.342 c 0,40,41
 731.638 352.721 731.638 352.721 733.318 431.223 c 1,42,43
 738.312 486.829 738.312 486.829 771.818 487.108 c 0,44,45
 813.286 487.476 813.286 487.476 817.318 436.723 c 1,46,-1
 818.432 413.947 l 2,47,48
 829.678 184.023 829.678 184.023 984.695 179.448 c 9,49,50
 1134.34 177.541 1134.34 177.541 1145.44 364.013 c 4,51,52
 1148.93 422.547 1148.93 422.547 1146.51 481.283 c 5,53,54
 1151.5 536.89 1151.5 536.89 1185.01 537.169 c 4,55,56
 1226.48 537.536 1226.48 537.536 1230.51 486.783 c 5,0,1
EndSplineSet
EndChar

StartChar: uniFEBA
Encoding: 65210 65210 194
Width: 2502
VWidth: 2291
GlyphClass: 2
Flags: W
AnchorPoint: "Anchor-10" 593.066 895.21 basechar 0
AnchorPoint: "Anchor-7" 362.286 -719.091 basechar 0
LayerCount: 2
Fore
SplineSet
1493.06 179.099 m 1,0,-1
 1682.56 179.099 l 2,1,2
 1872.45 179.099 1872.45 179.099 2019.98 228.126 c 0,3,4
 2142.11 267.346 2142.11 267.346 2136.13 412.529 c 0,5,6
 2129.08 605.043 2129.08 605.043 1948.87 564.348 c 0,7,8
 1863.34 545.033 1863.34 545.033 1731.05 424.088 c 0,9,10
 1591.07 296.104 1591.07 296.104 1493.06 179.099 c 1,0,-1
1385.34 200.704 m 1,11,12
 1577.17 472.246 1577.17 472.246 1667.34 560.704 c 0,13,14
 1847.02 733.757 1847.02 733.757 2008.13 722.529 c 0,15,16
 2241.55 706.815 2241.55 706.815 2256.07 439.104 c 4,17,18
 2261.15 350.336 2261.15 350.336 2243.16 280.396 c 5,19,20
 2324.6 178.08 2324.6 178.08 2467.52 178.08 c 2,21,-1
 2513.41 178.08 l 1,22,-1
 2513.41 -0.932617 l 1,23,-1
 2442.16 2.11523 l 2,24,25
 2230.58 11.1661 2230.58 11.1661 2165.71 149.403 c 1,26,27
 2126.72 105.139 2126.72 105.139 2069.07 76.1035 c 0,28,29
 1915.67 -1.15601 1915.67 -1.15601 1743.81 -0.710938 c 2,30,-1
 1469.28 0 l 2,31,32
 1322.53 0.380029 1322.53 0.380029 1261.58 83.1084 c 1,33,34
 1271.58 37.1084 1271.58 37.1084 1269.58 0 c 1,35,36
 1189.55 -471.442 1189.55 -471.442 670.084 -481.362 c 0,37,38
 306.238 -488.027 306.238 -488.027 166.697 -287.568 c 0,39,40
 57.8994 -130.017 57.8994 -130.017 117.188 107.396 c 0,41,42
 132.817 169.977 132.817 169.977 167.933 273.351 c 0,43,44
 189.841 337.842 189.841 337.842 208 379.108 c 1,45,-1
 278 334.108 l 1,46,47
 174.13 40.0869 174.13 40.0869 240.178 -100.305 c 0,48,49
 342.242 -317.212 342.242 -317.212 665.852 -311.804 c 0,50,51
 1134.32 -303.834 1134.32 -303.834 1158.58 0 c 1,52,-1
 1026.58 408.108 l 1,53,-1
 1176.33 549.794 l 1,54,55
 1222.32 304.189 1222.32 304.189 1246.93 263.396 c 8,56,57
 1293.45 186.273 1293.45 186.273 1385.34 200.704 c 1,11,12
EndSplineSet
EndChar

StartChar: uniFEBB
Encoding: 65211 65211 195
Width: 1535
VWidth: 2291
GlyphClass: 2
Flags: W
AnchorPoint: "Anchor-10" 535.518 1113.87 basechar 0
AnchorPoint: "Anchor-7" 661.658 -288.295 basechar 0
LayerCount: 2
Fore
SplineSet
573.111 201.301 m 1,0,1
 764.943 472.843 764.943 472.843 855.111 561.301 c 0,2,3
 1034.79 734.353 1034.79 734.353 1195.9 723.126 c 0,4,5
 1429.32 707.412 1429.32 707.412 1443.84 439.7 c 4,6,7
 1458.56 177.808 1458.56 177.808 1256.84 76.7002 c 0,8,9
 1103.45 -0.559325 1103.45 -0.559325 931.583 -0.114258 c 2,10,-1
 657.053 0.59668 l 2,11,12
 422.098 1.20513 422.098 1.20513 321.08 165.445 c 1,13,14
 198.718 -0.114258 198.718 -0.114258 18.9697 -0.114258 c 2,15,-1
 -10.3047 -0.114258 l 1,16,-1
 -10.3047 179.004 l 1,17,-1
 7.58789 179.004 l 2,18,19
 126.583 179.004 126.583 179.004 184.838 215.244 c 0,20,21
 239.455 249.771 239.455 249.771 248.345 319.073 c 0,22,-1
 260.33 433.732 l 1,23,24
 267.925 501.781 267.925 501.781 306.83 503.118 c 0,25,26
 348.297 503.485 348.297 503.485 352.33 452.732 c 1,27,-1
 360.178 385.926 l 2,28,29
 377.766 236.206 377.766 236.206 573.111 201.301 c 1,0,1
680.833 179.695 m 1,30,-1
 870.333 179.695 l 2,31,32
 1060.22 179.695 1060.22 179.695 1207.75 228.723 c 0,33,34
 1329.88 267.942 1329.88 267.942 1323.9 413.126 c 0,35,36
 1316.86 605.64 1316.86 605.64 1136.64 564.944 c 0,37,38
 1051.11 545.63 1051.11 545.63 918.827 424.685 c 0,39,40
 778.843 296.7 778.843 296.7 680.833 179.695 c 1,30,-1
EndSplineSet
EndChar

StartChar: uniFEBC
Encoding: 65212 65212 196
Width: 1691
VWidth: 2291
GlyphClass: 2
Flags: W
AnchorPoint: "Anchor-10" 563.178 1182.7 basechar 0
AnchorPoint: "Anchor-7" 654.338 -295.466 basechar 0
LayerCount: 2
Fore
SplineSet
680.833 179.695 m 1,0,-1
 870.333 179.695 l 2,1,2
 1060.22 179.695 1060.22 179.695 1207.75 228.723 c 0,3,4
 1329.88 267.942 1329.88 267.942 1323.9 413.126 c 0,5,6
 1316.86 605.64 1316.86 605.64 1136.64 564.944 c 0,7,8
 1051.11 545.63 1051.11 545.63 918.827 424.685 c 0,9,10
 778.843 296.7 778.843 296.7 680.833 179.695 c 1,0,-1
1430.94 280.993 m 5,11,12
 1512.37 178.677 1512.37 178.677 1655.29 178.677 c 2,13,-1
 1701.18 178.677 l 1,14,-1
 1701.18 -0.335938 l 1,15,-1
 1629.93 2.71191 l 2,16,17
 1418.35 11.7627 1418.35 11.7627 1353.48 150 c 1,18,19
 1314.49 105.735 1314.49 105.735 1256.84 76.7002 c 0,20,21
 1103.45 -0.559325 1103.45 -0.559325 931.583 -0.114258 c 2,22,-1
 657.053 0.59668 l 2,23,24
 422.098 1.20513 422.098 1.20513 321.08 165.445 c 1,25,26
 198.718 -0.114258 198.718 -0.114258 18.9697 -0.114258 c 2,27,-1
 -10.3047 -0.114258 l 1,28,-1
 -10.3047 179.004 l 1,29,-1
 7.58789 179.004 l 2,30,31
 126.583 179.004 126.583 179.004 184.838 215.244 c 0,32,33
 239.455 249.771 239.455 249.771 248.345 319.073 c 0,34,-1
 260.33 433.732 l 1,35,36
 267.925 501.781 267.925 501.781 306.83 503.118 c 0,37,38
 348.297 503.485 348.297 503.485 352.33 452.732 c 1,39,-1
 360.178 385.926 l 2,40,41
 377.766 236.206 377.766 236.206 573.111 201.301 c 1,42,43
 764.943 472.843 764.943 472.843 855.111 561.301 c 0,44,45
 1034.79 734.353 1034.79 734.353 1195.9 723.126 c 0,46,47
 1429.32 707.412 1429.32 707.412 1443.84 439.7 c 4,48,49
 1448.92 350.933 1448.92 350.933 1430.94 280.993 c 5,11,12
EndSplineSet
EndChar

StartChar: uniFEC2
Encoding: 65218 65218 202
Width: 1467
VWidth: 2291
GlyphClass: 2
Flags: W
AnchorPoint: "Anchor-7" 649.472 -282.627 basechar 0
AnchorPoint: "Anchor-10" 239.684 1524.11 basechar 0
LayerCount: 2
Fore
SplineSet
236.558 178.861 m 1,0,1
 237.149 179.605 237.149 179.605 229.739 474.24 c 2,2,3
 219.323 925.47 219.323 925.47 216.521 999.869 c 0,4,5
 207.305 1244.83 207.305 1244.83 182.299 1284.64 c 1,6,-1
 349.891 1426.89 l 1,7,-1
 349.248 203.17 l 1,8,9
 532.25 473 532.25 473 631.111 561.301 c 0,10,11
 820.732 733.66 820.732 733.66 971.901 723.126 c 0,12,13
 1205.32 707.412 1205.32 707.412 1219.84 439.7 c 4,14,15
 1224.92 350.933 1224.92 350.933 1206.94 280.993 c 5,16,17
 1288.37 178.677 1288.37 178.677 1431.29 178.677 c 2,18,-1
 1477.18 178.677 l 1,19,-1
 1477.18 -0.335938 l 1,20,-1
 1405.93 2.71191 l 2,21,22
 1194.35 11.7627 1194.35 11.7627 1129.48 150 c 1,23,24
 1090.49 105.735 1090.49 105.735 1032.84 76.7002 c 0,25,26
 879.448 -0.559327 879.448 -0.559327 707.583 -0.114258 c 2,27,-1
 433.053 0.59668 l 2,28,-1
 232.891 0.189453 l 2,29,30
 59.3203 -0.163675 59.3203 -0.163675 59.3203 145.958 c 2,31,-1
 59.3203 178.991 l 1,32,-1
 236.558 178.861 l 1,0,1
456.833 179.695 m 1,33,-1
 646.333 179.695 l 2,34,35
 836.221 179.695 836.221 179.695 983.753 228.723 c 0,36,37
 1105.88 267.941 1105.88 267.941 1099.9 413.126 c 0,38,39
 1092.86 605.64 1092.86 605.64 912.643 564.944 c 0,40,41
 827.11 545.63 827.11 545.63 694.827 424.685 c 0,42,43
 554.843 296.7 554.843 296.7 456.833 179.695 c 1,33,-1
EndSplineSet
EndChar

StartChar: uniFEC3
Encoding: 65219 65219 203
Width: 1236
VWidth: 2291
GlyphClass: 2
Flags: W
AnchorPoint: "Anchor-10" 202.85 1528.07 basechar 0
AnchorPoint: "Anchor-7" 482.85 -296.406 basechar 0
LayerCount: 2
Fore
SplineSet
161.422 178.992 m 1,0,1
 162.06 179.797 162.06 179.797 154.602 476.371 c 2,2,3
 144.361 922.867 144.361 922.867 141.383 1002 c 0,4,5
 132.168 1246.96 132.168 1246.96 107.162 1286.77 c 1,6,-1
 274.754 1429.02 l 1,7,-1
 274.111 202.301 l 1,8,9
 441.519 448.939 441.519 448.939 556.112 561.301 c 0,10,11
 732.813 734.56 732.813 734.56 896.901 723.126 c 0,12,13
 1130.32 707.412 1130.32 707.412 1144.84 439.7 c 0,14,15
 1159.56 177.81 1159.56 177.81 957.843 76.7002 c 0,16,17
 804.448 -0.559325 804.448 -0.559325 632.584 -0.114258 c 2,18,-1
 358.054 0.59668 l 2,19,-1
 -20.6797 -0.126953 l 1,20,-1
 -20.6797 178.991 l 1,21,-1
 161.422 178.992 l 1,0,1
381.834 179.695 m 1,22,-1
 571.334 179.695 l 2,23,24
 756.085 179.695 756.085 179.695 908.753 228.723 c 0,25,26
 1030.88 267.942 1030.88 267.942 1024.9 413.126 c 0,27,28
 1017.86 605.64 1017.86 605.64 837.644 564.944 c 0,29,30
 752.11 545.63 752.11 545.63 619.828 424.685 c 0,31,32
 479.844 296.7 479.844 296.7 381.834 179.695 c 1,22,-1
EndSplineSet
EndChar

StartChar: uniFEC4
Encoding: 65220 65220 204
Width: 1397
VWidth: 2291
GlyphClass: 2
Flags: W
AnchorPoint: "Anchor-10" 199.939 1531.75 basechar 0
AnchorPoint: "Anchor-7" 537.047 -266.727 basechar 0
LayerCount: 2
Fore
SplineSet
166.422 178.992 m 1,0,1
 167.057 179.837 167.057 179.837 159.682 473.107 c 2,2,3
 149.458 919.231 149.458 919.231 146.463 998.736 c 0,4,5
 137.247 1243.69 137.247 1243.69 112.241 1283.51 c 1,6,-1
 279.833 1425.76 l 1,7,-1
 279.19 199.037 l 1,8,9
 439.785 440.65 439.785 440.65 561.111 561.301 c 0,10,11
 735.503 734.721 735.503 734.721 901.901 723.126 c 0,12,13
 1135.32 707.412 1135.32 707.412 1149.84 439.7 c 4,14,15
 1154.92 350.933 1154.92 350.933 1136.94 280.993 c 5,16,17
 1218.37 178.677 1218.37 178.677 1361.29 178.677 c 2,18,-1
 1407.18 178.677 l 1,19,-1
 1407.18 -0.335938 l 1,20,-1
 1335.93 2.71191 l 2,21,22
 1124.35 11.7627 1124.35 11.7627 1059.48 150 c 1,23,24
 1020.49 105.735 1020.49 105.735 962.843 76.7002 c 0,25,26
 809.448 -0.559327 809.448 -0.559327 637.583 -0.114258 c 2,27,-1
 363.053 0.59668 l 2,28,-1
 -10.6797 -0.126953 l 1,29,-1
 -10.6797 178.991 l 1,30,-1
 166.422 178.992 l 1,0,1
386.833 179.695 m 1,32,-1
 576.333 179.695 l 2,33,34
 766.221 179.695 766.221 179.695 913.753 228.723 c 0,35,36
 1035.88 267.941 1035.88 267.941 1029.9 413.126 c 0,37,38
 1022.86 605.64 1022.86 605.64 842.643 564.944 c 0,39,40
 757.11 545.63 757.11 545.63 624.827 424.685 c 0,41,42
 484.843 296.7 484.843 296.7 386.833 179.695 c 1,32,-1
EndSplineSet
EndChar

StartChar: uniFECA
Encoding: 65226 65226 210
Width: 1212
VWidth: 2289
GlyphClass: 2
Flags: W
AnchorPoint: "Anchor-10" 429.886 1115.6 basechar 0
AnchorPoint: "Anchor-7" 373.457 -813.007 basechar 0
LayerCount: 2
Fore
SplineSet
575.842 652.522 m 0,0,1
 521.233 652.522 521.233 652.522 477.335 645.12 c 0,2,3
 343.977 622.931 343.977 622.931 361.344 580.923 c 0,4,5
 372.666 554.585 372.666 554.585 430.432 517.593 c 0,6,7
 503.144 471.028 503.144 471.028 575.842 437.278 c 1,8,9
 638.009 463.905 638.009 463.905 716.959 519.384 c 0,10,11
 768.938 556.44 768.938 556.44 768.938 581.431 c 0,12,13
 768.938 631.872 768.938 631.872 674.063 645.167 c 0,14,15
 621.562 652.522 621.562 652.522 575.842 652.522 c 0,0,1
669.459 342.018 m 1,16,17
 853.293 179.114 853.293 179.114 1188.68 179.114 c 2,18,-1
 1232.69 179.114 l 1,19,-1
 1232.69 -0.898438 l 1,20,-1
 1197.62 -0.898438 l 2,21,22
 843.562 -0.898438 843.562 -0.898438 579.439 268 c 1,23,24
 550.439 246 550.439 246 486.938 197.657 c 0,25,26
 235.151 10.3451 235.151 10.3451 225.938 -179.343 c 0,27,28
 215.886 -377.831 215.886 -377.831 366.772 -485.332 c 0,29,30
 519.078 -592.865 519.078 -592.865 785.938 -560.343 c 0,31,32
 930.013 -542.785 930.013 -542.785 1103.24 -464.853 c 1,33,-1
 1096.29 -491.255 l 2,34,35
 1027.47 -752.694 1027.47 -752.694 628 -737.23 c 0,36,37
 355.279 -726.919 355.279 -726.919 207.764 -575.23 c 0,38,39
 57.1757 -421.794 57.1757 -421.794 91.5898 -155.538 c 0,40,41
 128.854 134.804 128.854 134.804 476.076 344.108 c 1,42,43
 361.931 396.138 361.931 396.138 277.305 468.468 c 0,44,45
 203.191 531.81 203.191 531.81 208.767 608.435 c 0,46,47
 214.26 686.409 214.26 686.409 325.342 740.188 c 0,48,49
 415.082 783.979 415.082 783.979 562.687 787.054 c 0,50,51
 635.904 788.542 635.904 788.542 701.682 781.544 c 0,52,53
 851.606 765.179 851.606 765.179 895.061 677.151 c 0,54,55
 918.709 628.843 918.709 628.843 905.964 574.577 c 0,56,57
 879.716 463.421 879.716 463.421 669.459 342.018 c 1,16,17
EndSplineSet
EndChar

StartChar: uniFECB
Encoding: 65227 65227 211
Width: 927
VWidth: 2287
GlyphClass: 2
Flags: W
AnchorPoint: "Anchor-10" 327.569 1265.15 basechar 0
AnchorPoint: "Anchor-7" 460.424 -284.284 basechar 0
LayerCount: 2
Fore
SplineSet
14.9375 179.064 m 2,0,1
 150.297 179.064 150.297 179.064 151.237 179.053 c 2,2,-1
 248.916 180.149 l 1,3,4
 60.576 321.36 60.576 321.36 93.2393 531.246 c 0,5,6
 128.769 758.817 128.769 758.817 367.438 793.215 c 0,7,8
 553.437 820.022 553.437 820.022 703.438 686.021 c 1,9,10
 705.437 644.022 705.437 644.022 699.438 553.215 c 1,11,12
 531.854 642.5 531.854 642.5 401.438 620.021 c 4,13,14
 243.137 593.05 243.137 593.05 229.034 464.247 c 128,-1,15
 214.931 335.445 214.931 335.445 374.246 224.466 c 0,16,17
 415.06 195.8 415.06 195.8 602.591 231.376 c 2,18,-1
 835.191 275.502 l 17,19,-1
 807.191 117.502 l 1,20,21
 475.318 0.901367 475.318 0.901367 85.9863 -0.0703125 c 1,22,-1
 -20.3164 -0.0537109 l 1,23,-1
 -20.3164 179.064 l 1,24,-1
 14.9375 179.064 l 2,0,1
EndSplineSet
EndChar

StartChar: uniFECC
Encoding: 65228 65228 212
Width: 1042
VWidth: 2289
GlyphClass: 2
Flags: W
AnchorPoint: "Anchor-10" 454.73 1110.16 basechar 0
AnchorPoint: "Anchor-7" 492.89 -234.98 basechar 0
LayerCount: 2
Fore
SplineSet
521.833 573.604 m 4,0,1
 467.225 573.604 467.225 573.604 423.326 566.202 c 4,2,3
 289.968 544.013 289.968 544.013 307.335 502.005 c 4,4,5
 318.657 475.667 318.657 475.667 376.423 438.675 c 4,6,7
 449.135 392.11 449.135 392.11 521.833 358.36 c 5,8,9
 584 384.986 584 384.986 662.95 440.465 c 4,10,11
 714.929 477.521 714.929 477.521 714.929 502.512 c 4,12,13
 714.929 552.953 714.929 552.953 620.055 566.248 c 4,14,15
 567.553 573.604 567.553 573.604 521.833 573.604 c 4,0,1
615.45 263.101 m 1,16,17
 746.994 176.16 746.994 176.16 988.209 177.668 c 2,18,-1
 1052.09 178.067 l 1,19,-1
 1052.09 -0.920898 l 1,20,-1
 963.233 -0.920898 l 2,21,22
 697.682 -0.920905 697.682 -0.920905 519.337 169.232 c 2,23,-1
 515.68 172.721 l 1,24,-1
 512.021 169.232 l 2,25,26
 333.022 -1.45022 333.022 -1.45022 64.9473 -1.4502 c 2,27,-1
 -10.9287 -1.4502 l 1,28,-1
 -10.9287 177.668 l 1,29,-1
 39.9951 177.668 l 2,30,31
 324.757 177.668 324.757 177.668 422.068 265.19 c 1,32,33
 307.922 317.219 307.922 317.219 223.296 389.55 c 0,34,35
 149.183 452.892 149.183 452.892 154.758 529.517 c 0,36,37
 160.251 607.49 160.251 607.49 271.333 661.27 c 0,38,39
 361.073 705.061 361.073 705.061 508.678 708.135 c 0,40,41
 581.896 709.623 581.896 709.623 647.673 702.626 c 0,42,43
 797.598 686.261 797.598 686.261 841.052 598.232 c 0,44,45
 864.7 549.925 864.7 549.925 851.955 495.658 c 0,46,47
 825.707 384.502 825.707 384.502 615.45 263.101 c 1,16,17
EndSplineSet
EndChar

StartChar: uniFEDA
Encoding: 65242 65242 226
Width: 1874
VWidth: 2267
GlyphClass: 2
Flags: W
AnchorPoint: "Anchor-10" 467.64 1448.48 basechar 0
AnchorPoint: "Anchor-7" 593.562 -286.337 basechar 0
LayerCount: 2
Fore
SplineSet
1466.91 408.855 m 4,0,-1
 1468.75 465.301 l 2,1,2
 1471.43 547.501 1471.43 547.501 1455.53 990.931 c 0,3,4
 1446.32 1235.89 1446.32 1235.89 1421.31 1275.7 c 1,5,-1
 1592.72 1418.09 l 1,6,-1
 1592.72 430.096 l 2,7,8
 1592.72 178.416 1592.72 178.416 1816.09 178.416 c 2,9,-1
 1884.2 178.416 l 1,10,-1
 1884.2 -0.59668 l 1,11,-1
 1836.71 -0.59668 l 2,12,13
 1579.05 -0.59668 1579.05 -0.59668 1513 181.029 c 1,14,15
 1509.35 169.137 1509.35 169.137 1464 137 c 0,16,17
 1323.93 37.7382 1323.93 37.7382 1174 22.1992 c 0,18,19
 968.703 0.921939 968.703 0.921939 927.431 -0.5625 c 16,20,21
 461.388 -17.3246 461.388 -17.3246 275.763 79.6758 c 0,22,23
 84.918 179.401 84.918 179.401 91.3027 476.599 c 0,24,25
 94 603.155 94 603.155 145.753 704.154 c 1,26,-1
 206.763 704 l 1,27,28
 191.182 632.774 191.182 632.774 184.763 575 c 0,29,30
 179.543 528.021 179.543 528.021 181.479 473.573 c 0,31,32
 189.608 244.913 189.608 244.913 549.649 193.732 c 0,33,34
 647.879 179.769 647.879 179.769 963.263 179.172 c 0,35,36
 1066.85 179.044 1066.85 179.044 1146 192.199 c 0,37,38
 1452.05 244.983 1452.05 244.983 1466.91 408.855 c 4,0,-1
1003.82 1250.86 m 1,39,-1
 1003.82 1195.8 l 1,40,41
 929.948 1190.36 929.948 1190.36 889.17 1175.33 c 0,42,43
 786.049 1136.67 786.049 1136.67 786.049 1086.02 c 0,44,45
 786.049 1047.71 786.049 1047.71 805.844 1022.26 c 0,46,47
 824.068 997.961 824.068 997.961 908.968 985.474 c 0,48,49
 961.328 977.774 961.328 977.774 987.758 953.637 c 0,50,51
 1013.65 929.984 1013.65 929.984 1013.65 887.529 c 0,52,53
 1013.65 785.664 1013.65 785.664 919.088 732.188 c 0,54,55
 846.088 690.906 846.088 690.906 746.15 689.978 c 0,56,57
 682.616 689.978 682.616 689.978 626.857 699.291 c 1,58,-1
 626.857 761.25 l 1,59,60
 691.261 752.761 691.261 752.761 735.942 752.761 c 0,61,62
 815.239 752.761 815.239 752.761 866.364 772.888 c 0,63,64
 955.778 807.228 955.778 807.228 955.778 864.845 c 0,65,66
 955.778 929.014 955.778 929.014 851.965 945.93 c 0,67,68
 791.76 955.104 791.76 955.104 759.164 988.44 c 128,-1,69
 726.486 1021.86 726.486 1021.86 727.795 1082.15 c 0,70,71
 729.786 1162.61 729.786 1162.61 804.668 1200.56 c 0,72,73
 889.792 1243.63 889.792 1243.63 1003.82 1250.86 c 1,39,-1
EndSplineSet
EndChar

StartChar: uniFEDB
Encoding: 65243 65243 227
Width: 828
VWidth: 2268
GlyphClass: 2
Flags: W
AnchorPoint: "Anchor-10" 212.208 1286.69 basechar 0
AnchorPoint: "Anchor-7" 324.925 -287.362 basechar 0
LayerCount: 2
Fore
SplineSet
-20 -0.5625 m 1,0,-1
 -20 178.556 l 1,1,-1
 78.5166 178.582 l 2,2,3
 476.631 178.689 476.631 178.689 500.425 330.916 c 0,4,5
 520.177 457.248 520.177 457.248 409.645 535.797 c 2,6,-1
 123.445 739.182 l 2,7,8
 26.5267 808.056 26.5267 808.056 20.1816 881.87 c 0,9,10
 10.5887 993.771 10.5887 993.771 133.764 1058.31 c 2,11,-1
 813.85 1414.65 l 1,12,13
 785.925 1279.92 785.925 1279.92 751.925 1213.92 c 1,14,-1
 148.679 910.96 l 1,15,-1
 159.731 902.98 l 6,16,17
 455.552 689.414 455.552 689.414 520.097 634.843 c 0,18,19
 673.217 505.384 673.217 505.384 642.845 290.938 c 0,20,21
 619.73 127.732 619.73 127.732 488.425 63.916 c 0,22,23
 355.757 -0.5625 355.757 -0.5625 122.326 -0.5625 c 2,24,-1
 -20 -0.5625 l 1,0,-1
EndSplineSet
EndChar

StartChar: uniFEDC
Encoding: 65244 65244 228
Width: 1065
VWidth: 2268
GlyphClass: 2
Flags: W
AnchorPoint: "Anchor-10" 188.208 1317.69 basechar 0
AnchorPoint: "Anchor-7" 305.338 -277.308 basechar 0
LayerCount: 2
Fore
SplineSet
169.285 1059.85 m 2,0,-1
 849.371 1416.19 l 1,1,2
 836.877 1310.54 836.877 1310.54 787.446 1215.46 c 1,3,-1
 163.2 897.501 l 1,4,-1
 811.771 273.111 l 2,5,6
 910.568 177.999 910.568 177.999 1039.62 178.341 c 2,7,-1
 1075.06 178.435 l 1,8,-1
 1075.06 -0.578125 l 1,9,-1
 1007.49 -0.578125 l 2,10,11
 825.798 -0.578125 825.798 -0.578125 616.845 276.585 c 1,12,13
 563.665 -1.10741 563.665 -1.10741 88.665 -1.10742 c 2,14,-1
 -20.3066 -1.10742 l 5,15,-1
 -20.3066 178.011 l 5,16,-1
 83.4648 178.17 l 2,17,18
 450.171 178.733 450.171 178.733 480.105 324.284 c 0,19,20
 491.075 377.625 491.075 377.625 355.877 503.045 c 2,21,-1
 138.831 704.394 l 2,22,23
 42.2536 793.986 42.2536 793.986 40.7354 882.632 c 0,24,25
 38.8867 991.527 38.8867 991.527 169.285 1059.85 c 2,0,-1
EndSplineSet
EndChar

StartChar: uniFEDE
Encoding: 65246 65246 230
Width: 1549
VWidth: 2267
GlyphClass: 2
Flags: W
AnchorPoint: "Anchor-10" 599.667 1185.55 basechar 0
AnchorPoint: "Anchor-7" 225.713 -553.707 basechar 0
LayerCount: 2
Fore
SplineSet
1153.84 164.489 m 2,0,1
 1155.86 108.545 1155.86 108.545 1154.33 67.7959 c 4,2,3
 1152.33 41.3955 1152.33 41.3955 1151.88 8.66797 c 17,4,5
 1126.49 -302.19 1126.49 -302.19 654.168 -310.084 c 0,6,7
 330.559 -315.492 330.559 -315.492 228.494 -98.585 c 0,8,9
 160.249 46.4482 160.249 46.4482 266.296 342 c 1,10,-1
 197.316 380.828 l 1,11,12
 178.157 339.562 178.157 339.562 156.249 275.07 c 0,13,14
 121.134 171.696 121.134 171.696 105.505 109.115 c 0,15,16
 46.2158 -128.297 46.2158 -128.297 155.014 -285.849 c 0,17,18
 298.161 -491.488 298.161 -491.488 658.4 -479.643 c 0,19,20
 1235.3 -460.772 1235.3 -460.772 1257.55 85.335 c 1,21,22
 1379.31 0 1379.31 0 1516.07 0 c 2,23,-1
 1560 0 l 1,24,-1
 1560 179.013 l 1,25,-1
 1501.07 179.013 l 2,26,27
 1391.49 179.013 1391.49 179.013 1326.14 236.204 c 0,28,29
 1260.81 295.16 1260.81 295.16 1260.81 424.294 c 2,30,-1
 1260.83 1426.62 l 1,31,-1
 1089.42 1284.23 l 1,32,33
 1114.43 1244.42 1114.43 1244.42 1123.64 999.461 c 0,34,35
 1153.26 279.289 1153.26 279.289 1153.84 164.489 c 2,0,1
EndSplineSet
EndChar

StartChar: uniFEDF
Encoding: 65247 65247 231
Width: 546
VWidth: 2267
GlyphClass: 2
Flags: W
AnchorPoint: "Anchor-10" 304.411 1508.09 basechar 0
AnchorPoint: "Anchor-7" 233.391 -250.301 basechar 0
LayerCount: 2
Fore
SplineSet
234.163 1286.77 m 5,0,1
 405.577 1429.16 l 1,2,-1
 405.577 462.761 l 2,3,4
 405.577 249.786 405.577 249.786 341.385 153 c 0,5,6
 239.823 -0.130859 239.823 -0.130859 54.2188 -0.130859 c 2,7,-1
 -10.8076 -0.130859 l 1,8,-1
 -10.8076 178.988 l 1,9,-1
 2.4375 178.988 l 2,10,11
 175.037 178.988 175.037 178.988 242.383 263.766 c 0,12,13
 285.583 318.149 285.583 318.149 281.604 476.371 c 6,14,15
 287.07 506.004 287.07 506.004 268.385 1002 c 4,16,17
 259.169 1246.96 259.169 1246.96 234.163 1286.77 c 5,0,1
EndSplineSet
EndChar

StartChar: uniFEE0
Encoding: 65248 65248 232
Width: 633
VWidth: 2267
GlyphClass: 2
Flags: W
AnchorPoint: "Anchor-10" 275.93 1503.88 basechar 0
AnchorPoint: "Anchor-7" 239.89 -303.269 basechar 0
LayerCount: 2
Fore
SplineSet
203.163 1286.77 m 5,0,1
 368.616 1428.06 l 1,2,-1
 368.616 424.229 l 2,3,4
 368.616 278.909 368.616 278.909 431.899 234.938 c 0,5,6
 512.375 179.021 512.375 179.021 611.822 179.021 c 2,7,-1
 643.548 179.021 l 1,8,-1
 643.548 -0.0986328 l 1,9,-1
 605.441 0.901367 l 2,10,11
 416.197 5.86749 416.197 5.86749 314.462 116.595 c 2,12,-1
 300.23 132.085 l 1,13,-1
 286.196 116.414 l 2,14,15
 185.569 4.04963 185.569 4.04963 37.0781 0.901367 c 2,16,-1
 -10.0879 -0.0986328 l 1,17,-1
 -10.0879 179.021 l 1,18,-1
 2.4375 178.988 l 2,19,20
 144.07 178.618 144.07 178.618 211.383 263.766 c 4,21,22
 254.583 318.148 254.583 318.148 250.604 476.371 c 6,23,24
 256.07 506.005 256.07 506.005 237.385 1002 c 4,25,26
 228.169 1246.96 228.169 1246.96 203.163 1286.77 c 5,0,1
EndSplineSet
EndChar

StartChar: uniFEE2
Encoding: 65250 65250 234
Width: 1145
VWidth: 2313
GlyphClass: 2
Flags: W
AnchorPoint: "Anchor-10" 472.183 1061.24 basechar 0
AnchorPoint: "Anchor-7" 187.132 -769.15 basechar 0
LayerCount: 2
Fore
SplineSet
465.451 404.725 m 1,0,1
 469.808 214.693 469.808 214.693 542.451 131.725 c 0,2,3
 600.161 66.0641 600.161 66.0641 686.45 79 c 0,4,5
 821.904 99.605 821.904 99.605 800.451 225.023 c 0,6,7
 774.451 377.023 774.451 377.023 628.451 405.023 c 0,8,9
 548.285 421.441 548.285 421.441 465.451 404.725 c 1,0,1
941.473 256.825 m 1,10,11
 993.138 179.09 993.138 179.09 1124.65 178.612 c 2,12,-1
 1155.46 178.5 l 1,13,-1
 1155.46 0.529297 l 1,14,-1
 1109.76 0.529297 l 2,15,16
 973.262 0.529297 973.262 0.529297 913.451 91.7246 c 1,17,18
 891.343 25.4019 891.343 25.4019 842.45 -13.2754 c 0,19,20
 770.336 -70.7317 770.336 -70.7317 665.451 -74.9766 c 0,21,22
 376.191 -88.9766 376.191 -88.9766 349.951 353.894 c 1,23,24
 273.547 331.76 273.547 331.76 240.451 250.226 c 0,25,26
 204.888 163.276 204.888 163.276 220.092 -44.9834 c 2,27,-1
 253.951 -508.774 l 17,28,29
 91.4414 -642.443 l 1,30,-1
 94.4414 17.998 l 2,31,32
 96.4183 453.21 96.4183 453.21 350.451 498.023 c 1,33,34
 368.451 597.023 368.451 597.023 406.951 642.894 c 1,35,36
 456.377 598.195 456.377 598.195 677.451 539.67 c 0,37,38
 758.489 522.49 758.489 522.49 800.451 495.023 c 0,39,40
 914.451 421.023 914.451 421.023 941.473 256.825 c 1,10,11
EndSplineSet
EndChar

StartChar: uniFEE3
Encoding: 65251 65251 235
Width: 874
VWidth: 2294
GlyphClass: 2
Flags: W
AnchorPoint: "Anchor-10" 379.953 1011.87 basechar 0
AnchorPoint: "Anchor-7" 341.794 -238.935 basechar 0
LayerCount: 2
Fore
SplineSet
702.863 28.2266 m 128,-1,1
 612.823 -64.9662 612.823 -64.9662 450.774 -27.5703 c 0,2,3
 344.565 -3.06055 344.565 -3.06055 225.927 124.466 c 1,4,5
 117.562 -0.0654297 117.562 -0.0654297 11.4219 -0.0654297 c 2,6,-1
 -10.2021 -0.0654297 l 1,7,-1
 -10.2021 179.053 l 1,8,-1
 30.4395 179.053 l 2,9,10
 116.427 179.053 116.427 179.053 187.302 298.158 c 0,11,12
 379.145 622.563 379.145 622.563 552.883 602.062 c 0,13,14
 763.947 577.215 763.947 577.215 782.405 286.202 c 0,15,16
 792.717 121.225 792.717 121.225 702.863 28.2266 c 128,-1,1
421.121 141.436 m 0,17,18
 523.664 90.9629 523.664 90.9629 592.634 132.436 c 0,19,20
 662.807 173.739 662.807 173.739 642.945 318.087 c 0,21,22
 628.127 422.393 628.127 422.393 574.632 446.168 c 0,23,24
 504.114 478.405 504.114 478.405 404.522 373.987 c 0,25,26
 335.632 302.565 335.632 302.565 293.518 231.507 c 5,27,28
 348.662 170.948 348.662 170.948 421.121 141.436 c 0,17,18
EndSplineSet
EndChar

StartChar: uniFEE4
Encoding: 65252 65252 236
Width: 983
VWidth: 2294
GlyphClass: 2
Flags: W
AnchorPoint: "Anchor-10" 428.224 975.825 basechar 0
AnchorPoint: "Anchor-7" 390.064 -248.475 basechar 0
LayerCount: 2
Fore
SplineSet
426.001 137.853 m 0,0,1
 527.378 88.3936 527.378 88.3936 594.869 131.537 c 0,2,3
 661.94 175.266 661.94 175.266 641.945 318.087 c 0,4,5
 629.125 409.657 629.125 409.657 573.869 445.104 c 0,6,7
 512.423 484.906 512.423 484.906 403.759 373.924 c 0,8,9
 331.869 300.501 331.869 300.501 293.518 231.507 c 5,10,11
 354.054 173.26 354.054 173.26 426.001 137.853 c 0,0,1
753.938 105.5 m 1,12,13
 726.919 54.2359 726.919 54.2359 701.863 29.2266 c 0,14,15
 607.991 -64.6611 607.991 -64.6611 450.774 -27.5703 c 0,16,17
 344.565 -3.06055 344.565 -3.06055 225.927 124.466 c 1,18,19
 117.562 -0.0654297 117.562 -0.0654297 11.4219 -0.0654297 c 2,20,-1
 -10.2021 -0.0654297 l 1,21,-1
 -10.2021 179.053 l 1,22,-1
 30.4395 179.053 l 2,23,24
 116.427 179.053 116.427 179.053 187.302 298.158 c 0,25,26
 377.971 621.538 377.971 621.538 551.883 601.062 c 0,27,28
 762.946 577.239 762.946 577.239 781.405 286.202 c 0,29,30
 781.862 278.771 781.862 278.771 782.122 271.5 c 8,31,32
 785.456 178.37 785.456 178.37 951.64 178.37 c 2,33,-1
 993.94 178.37 l 1,34,-1
 993.94 -0.642578 l 1,35,-1
 973 -0.642578 l 2,36,37
 825.994 -0.642578 825.994 -0.642578 753.938 105.5 c 1,12,13
EndSplineSet
EndChar

StartChar: uniFEEA
Encoding: 65258 65258 242
Width: 1030
VWidth: 2283
GlyphClass: 2
Flags: W
AnchorPoint: "Anchor-10" 381.234 1188.15 basechar 0
AnchorPoint: "Anchor-7" 367.38 -225.691 basechar 0
LayerCount: 2
Fore
SplineSet
661.206 405.343 m 1,0,1
 626.048 680.857 l 1,2,3
 239.84 641.719 239.84 641.719 248.978 462.019 c 0,4,5
 255.634 317.146 255.634 317.146 661.206 405.343 c 1,0,1
679.013 255.167 m 1,6,7
 175.22 164.542 175.22 164.542 100.827 381.618 c 0,8,9
 93.1699 403.739 93.1699 403.739 90.627 431.617 c 0,10,11
 71.8163 705.938 71.8163 705.938 605.526 799.953 c 5,12,13
 606.182 826.889 606.182 826.889 591.109 936.463 c 1,14,-1
 712.969 973.57 l 17,15,-1
 775.749 451.856 l 0,16,17
 798.914 256.126 798.914 256.126 869.698 211.059 c 0,18,19
 920.56 178.676 920.56 178.676 1022.75 178.609 c 2,20,-1
 1050.26 178.591 l 1,21,-1
 1050.26 -0.53125 l 1,22,-1
 1014.53 0.46875 l 2,23,24
 717.982 8.76845 717.982 8.76845 679.013 255.167 c 1,6,7
EndSplineSet
EndChar

StartChar: uniFEEB
Encoding: 65259 65259 243
Width: 1114
VWidth: 2287
GlyphClass: 2
Flags: W
AnchorPoint: "Anchor-10" 560.85 1261.35 basechar 0
AnchorPoint: "Anchor-7" 374.015 -269.475 basechar 0
LayerCount: 2
Fore
SplineSet
680 505.078 m 1,0,1
 707.767 402.584 707.767 402.584 668.136 320.994 c 0,2,3
 637.507 257.938 637.507 257.938 518.844 185.666 c 2,4,-1
 508.656 179.461 l 1,5,6
 858.439 59.5344 858.439 59.5344 890 219.078 c 4,7,8
 914.807 342.715 914.807 342.715 680 505.078 c 1,0,1
419.634 716.358 m 1,9,10
 389.213 732.102 389.213 732.102 358.793 747.846 c 1,11,12
 375.658 812.634 375.658 812.634 392.525 877.423 c 1,13,-1
 688.136 675.604 l 0,14,15
 1036.13 438.332 1036.13 438.332 1022.62 241.374 c 0,16,17
 1003.54 -21.0896 1003.54 -21.0896 706.625 -12.626 c 0,18,19
 522.958 -7.39055 522.958 -7.39055 342.128 75.1709 c 2,20,-1
 340.111 76.0918 l 1,21,-1
 338.096 75.1709 l 2,22,23
 172.147 -0.671875 172.147 -0.671875 16.668 -0.671875 c 2,24,-1
 -10.9238 -0.671875 l 1,25,-1
 -10.9238 178.447 l 1,26,-1
 21.6152 178.447 l 2,27,28
 21.748 178.447 21.748 178.447 155.318 177.408 c 1,29,30
 104.457 257.61 104.457 257.61 108.678 355.488 c 0,31,32
 114.046 475.697 114.046 475.697 168.038 559.009 c 0,33,34
 239.801 670.707 239.801 670.707 336.774 700.806 c 0,35,36
 395.872 718.691 395.872 718.691 419.634 716.358 c 1,9,10
545.101 372.078 m 0,37,38
 615.049 501.902 615.049 501.902 525.575 579.49 c 128,-1,39
 436.101 657.078 436.101 657.078 317.101 557.078 c 0,40,41
 242.229 494.16 242.229 494.16 235.878 406.368 c 0,42,43
 210.226 240.309 210.226 240.309 333.853 206.251 c 1,44,45
 490.028 269.863 490.028 269.863 545.101 372.078 c 0,37,38
EndSplineSet
EndChar

StartChar: uniFEEC
Encoding: 65260 65260 244
Width: 979
VWidth: 2305
GlyphClass: 2
Flags: W
AnchorPoint: "Anchor-7" 261.672 -740.967 basechar 0
AnchorPoint: "Anchor-10" 409.944 1141.58 basechar 0
LayerCount: 2
Fore
SplineSet
296.073 178.906 m 1,0,-1
 338.492 181.132 l 2,1,2
 432.088 186.044 432.088 186.044 475.763 256.477 c 0,3,4
 534.948 351.927 534.948 351.927 534.948 480.985 c 4,5,6
 534.948 566.862 534.948 566.862 517.632 593.032 c 4,7,8
 489.577 635.432 489.577 635.432 443.432 635.432 c 4,9,10
 347.606 635.432 347.606 635.432 311.25 464.647 c 4,11,12
 275.465 292.921 275.465 292.921 296.073 178.906 c 1,0,-1
233.114 603.996 m 4,13,14
 308.884 779.14 308.884 779.14 444.493 778.007 c 4,15,16
 531.804 777.126 531.804 777.126 586.534 711.229 c 4,17,18
 653.843 630.182 653.843 630.182 653.843 460.617 c 4,19,20
 653.843 208.982 653.843 208.982 507.386 75.5312 c 0,21,22
 424.352 -0.12793 424.352 -0.12793 310.932 -0.12793 c 1,23,24
 300.968 -215.566 300.968 -215.566 412.693 -373.446 c 1,25,26
 455.518 -68.8141 455.518 -68.8141 671.332 93.2119 c 0,27,28
 781.572 175.977 781.572 175.977 924.673 179.157 c 1,29,-1
 1005.54 178.451 l 1,30,-1
 1005.54 -0.636719 l 1,31,-1
 880.152 -1.12793 l 2,32,33
 591.52 -2.25865 591.52 -2.25865 514.854 -511.323 c 1,34,35
 436.854 -556.323 l 1,36,37
 216.409 -452.725 216.409 -452.725 187.413 -0.12793 c 1,38,-1
 -50.833 -0.12793 l 1,39,-1
 -50.833 178.991 l 1,40,-1
 185.466 179.053 l 1,41,42
 176.433 475.778 176.433 475.778 233.114 603.996 c 4,13,14
EndSplineSet
EndChar

StartChar: uniFEEE
Encoding: 65262 65262 246
Width: 823
VWidth: 2307
GlyphClass: 2
Flags: W
AnchorPoint: "Anchor-10" 309.964 1118.46 basechar 0
AnchorPoint: "Anchor-7" 498.13 -655.167 basechar 0
LayerCount: 2
Fore
SplineSet
436.832 404.629 m 0,0,1
 325.302 402.354 325.302 402.354 305.832 265.63 c 0,2,3
 293.41 177.493 293.41 177.493 371.719 169.839 c 4,4,5
 504.719 156.839 504.719 156.839 605.832 173.628 c 1,6,7
 607.34 249.764 607.34 249.764 583.832 304.629 c 0,8,9
 540.195 406.476 540.195 406.476 436.832 404.629 c 0,0,1
717.062 178.564 m 1,10,11
 839.644 178.94 l 1,12,-1
 839.644 -0.0449219 l 1,13,-1
 713.479 0 l 0,14,15
 612.719 -424.051 612.719 -424.051 319.719 -445.672 c 0,16,17
 144.729 -458.585 144.729 -458.585 11.7939 -335.319 c 1,18,19
 520.131 -277.062 520.131 -277.062 597 0.25 c 1,20,21
 540.719 -10.1608 540.719 -10.1608 426.719 -4.33398 c 0,22,23
 291.272 3.80564 291.272 3.80564 247.619 71.1719 c 0,24,25
 198.625 147.662 198.625 147.662 210.619 260.573 c 0,26,27
 230.338 446.196 230.338 446.196 324.832 532.629 c 0,28,29
 389.254 591.94 389.254 591.94 470.832 585.025 c 0,30,31
 538.729 579.46 538.729 579.46 598.832 517.025 c 0,32,33
 696.136 416.297 696.136 416.297 710.516 255.013 c 0,34,35
 714.143 214.324 714.143 214.324 717.062 178.564 c 1,10,11
EndSplineSet
EndChar

StartChar: uniFEF0
Encoding: 65264 65264 248
Width: 1396
VWidth: 2321
GlyphClass: 2
Flags: W
AnchorPoint: "Anchor-10" 602.673 500.833 basechar 0
AnchorPoint: "Anchor-7" 211.215 -772.634 basechar 0
LayerCount: 2
Fore
SplineSet
1033.18 154.958 m 0,0,1
 1097.01 180.041 1097.01 180.041 1288.41 180.032 c 2,2,3
 1392.32 180.027 l 1,4,5
 1405.62 179.944 1405.62 179.944 1418.91 179.861 c 1,6,-1
 1418.91 0.852539 l 1,7,-1
 1338.76 0.321289 l 1,8,9
 1135.22 0.321289 l 2,10,11
 1058.9 0.321289 1058.9 0.321289 1058.9 -29.7344 c 0,12,13
 1059.14 -54.9841 1059.14 -54.9841 1192.46 -64.2148 c 0,14,15
 1330.61 -74.8165 1330.61 -74.8165 1344.04 -164.914 c 0,16,17
 1349.46 -201.251 1349.46 -201.251 1328.26 -248.041 c 0,18,19
 1266.14 -390 1266.14 -390 1086.14 -476 c 0,20,21
 911.917 -558.688 911.917 -558.688 565.677 -539.125 c 0,22,23
 152.421 -515.775 152.421 -515.775 89.7881 -236.241 c 0,24,25
 65.875 -127.97 65.875 -127.97 104.629 32.1582 c 0,26,27
 119.013 91.9766 119.013 91.9766 173.746 222.479 c 0,28,29
 206.138 300.056 206.138 300.056 218 321.572 c 1,30,31
 301.638 268.056 l 1,32,33
 291.396 244.577 291.396 244.577 252.931 151.167 c 0,34,35
 215.196 59.5303 215.196 59.5303 204.824 -9.54688 c 0,36,37
 186.734 -137.217 186.734 -137.217 261.509 -232.082 c 0,38,39
 357.096 -354.434 357.096 -354.434 634.629 -365.642 c 4,40,41
 891.137 -376 891.137 -376 1020.14 -333 c 0,42,43
 1191.53 -276.206 1191.53 -276.206 1208.26 -223.182 c 0,44,45
 1214.58 -202.257 1214.58 -202.257 1202 -192.474 c 0,46,47
 1188.82 -181.392 1188.82 -181.392 1087.52 -169.154 c 0,48,49
 899.011 -145.478 899.011 -145.478 893.285 -52.7646 c 0,50,51
 884.401 96.4834 884.401 96.4834 1033.18 154.958 c 0,0,1
EndSplineSet
EndChar

StartChar: uniFEFB
Encoding: 65275 65275 259
Width: 1011
VWidth: 2267
GlyphClass: 3
Flags: W
AnchorPoint: "Anchor-9" 819.258 1533.49 baselig 0
AnchorPoint: "Anchor-6" 783.378 -214.319 baselig 0
AnchorPoint: "Anchor-6" 176.937 -242.691 baselig 1
AnchorPoint: "Anchor-9" 141.146 1425.52 baselig 1
LayerCount: 2
Fore
SplineSet
708.163 1291.77 m 1,0,1
 880.577 1429.16 l 1,2,-1
 880.577 499.761 l 2,3,4
 880.577 310.214 880.577 310.214 783.139 175.94 c 0,5,6
 655.263 -0.279077 655.263 -0.279077 415.219 -0.130859 c 2,7,-1
 203.289 0 l 17,8,9
 110.202 62.9404 110.202 62.9404 104.48 165.94 c 1,10,11
 370.554 144 370.554 144 434.934 165 c 5,12,13
 283.574 616.598 283.574 616.598 170.934 891.939 c 0,14,15
 111.288 1037.74 111.288 1037.74 37.2891 1133.94 c 1,16,-1
 171.414 1309.33 l 1,17,-1
 554.48 198 l 1,18,19
 648.744 220.636 648.744 220.636 701.139 291.94 c 0,20,21
 758.408 369.85 758.408 369.85 755.604 481.372 c 2,22,23
 761.402 501.538 761.402 501.538 742.386 1007 c 0,24,25
 733.17 1251.96 733.17 1251.96 708.163 1291.77 c 1,0,1
EndSplineSet
LCarets2: 1 0 
Ligature2: "'rlig' Required Ligatures in Arabic lookup 16 subtable" uniFEDF uniFE8E
EndChar

StartChar: uniFEFC
Encoding: 65276 65276 260
Width: 1281
VWidth: 2267
GlyphClass: 3
Flags: W
AnchorPoint: "Anchor-9" 894.932 1489.02 baselig 0
AnchorPoint: "Anchor-6" 880.991 -233.368 baselig 0
AnchorPoint: "Anchor-6" 237.16 -260.078 baselig 1
AnchorPoint: "Anchor-9" 105.53 1383.55 baselig 1
LayerCount: 2
Fore
SplineSet
486.139 195.197 m 5,0,1
 389.94 501.798 389.94 501.798 215.562 928.052 c 0,2,3
 155.917 1073.85 155.917 1073.85 81.918 1170.05 c 1,4,-1
 216.043 1345.44 l 1,5,-1
 599.109 234.112 l 1,6,7
 763.453 313.207 763.453 313.207 821.801 516.15 c 1,8,9
 840.873 590.402 840.873 590.402 828.08 871.35 c 2,10,-1
 816.849 1118 l 2,11,12
 811.755 1229.88 811.755 1229.88 799.243 1284.81 c 1,13,-1
 970.657 1427.2 l 1,14,-1
 970.657 669.332 l 2,15,16
 970.657 472.875 970.657 472.875 1013.72 319.633 c 0,17,18
 1053.4 178.425 1053.4 178.425 1224.49 178.425 c 2,19,-1
 1291.64 178.425 l 1,20,-1
 1291.64 -0.587891 l 1,21,-1
 1196.72 0 l 2,22,23
 951.421 1.51927 951.421 1.51927 878.723 367.633 c 1,24,25
 846.274 262.675 846.274 262.675 760.001 167.41 c 0,26,27
 606.474 -2.11733 606.474 -2.11733 313.31 -0.587891 c 0,28,29
 249.155 -0.293945 249.155 -0.293945 185 0 c 1,30,31
 101 42.2993 101 42.2993 97.7227 166.633 c 1,32,33
 377.968 149.818 377.968 149.818 481.716 193.342 c 6,34,-1
 486.139 195.197 l 5,0,1
EndSplineSet
LCarets2: 1 0 
Ligature2: "'rlig' Required Ligatures in Arabic lookup 16 subtable" uniFEE0 uniFE8E
EndChar

StartChar: arabic_dot
Encoding: 65536 -1 261
Width: 150
GlyphClass: 2
Flags: W
LayerCount: 2
Fore
SplineSet
90.9665 173.16 m 2,0,-1
 169.643 94.4834 l 2,1,2
 177.053 87.0736 177.053 87.0736 177.104 82.4778 c 128,-1,3
 177.154 77.9602 177.154 77.9602 170.143 71.0166 c 2,4,-1
 87.6944 -11.4324 l 2,5,6
 79.5956 -19.2181 79.5956 -19.2181 74.4843 -19.2695 c 0,7,8
 69.1284 -19.3232 69.1284 -19.3232 61.3566 -11.4834 c 2,9,-1
 -20.6942 70.5674 l 2,10,11
 -27.5687 77.0586 -27.5687 77.0586 -27.2361 82.4307 c 0,12,13
 -26.8756 88.2512 -26.8756 88.2512 -17.6434 97.4835 c 2,14,-1
 58.8725 173.999 l 2,15,16
 67.7957 183.003 67.7957 183.003 74.5331 182.864 c 128,-1,17
 81.4055 182.722 81.4055 182.722 90.9665 173.16 c 2,0,-1
EndSplineSet
EndChar

StartChar: arabic_2dots
Encoding: 65537 -1 262
Width: 452
GlyphClass: 2
Flags: W
LayerCount: 2
Fore
SplineSet
360.143 172.984 m 2,0,-1
 438.644 94.483 l 2,1,2
 446.053 87.0737 446.053 87.0737 446.104 82.4774 c 128,-1,3
 446.155 77.9603 446.155 77.9603 439.143 71.0169 c 2,4,-1
 357.143 -10.9832 l 2,5,6
 348.912 -19.2149 348.912 -19.2149 343.484 -19.2689 c 128,-1,7
 338.128 -19.3228 338.128 -19.3228 330.357 -11.4831 c 2,8,-1
 248.306 70.5674 l 2,9,10
 241.431 77.0592 241.431 77.0592 241.763 82.4299 c 0,11,12
 242.124 88.2506 242.124 88.2506 251.357 97.4835 c 2,13,-1
 327.873 174 l 2,14,15
 336.795 183.003 336.795 183.003 343.534 182.863 c 128,-1,16
 350.406 182.721 350.406 182.721 360.143 172.984 c 2,0,-1
123.143 172.983 m 2,17,-1
 201.643 94.4832 l 2,18,19
 209.053 87.0729 209.053 87.0729 209.104 82.4775 c 128,-1,20
 209.154 78.0274 209.154 78.0274 202.143 71.0169 c 2,21,-1
 120.144 -10.983 l 2,22,23
 111.911 -19.2149 111.911 -19.2149 106.484 -19.2689 c 128,-1,24
 101.196 -19.322 101.196 -19.322 93.3568 -11.4831 c 2,25,-1
 10.9532 70.9205 l 2,26,27
 4.47233 77.7291 4.47233 77.7291 4.76387 82.431 c 0,28,29
 5.10553 87.9457 5.10553 87.9457 13.9056 97.0322 c 2,30,-1
 90.8568 173.983 l 2,31,32
 99.8754 183.002 99.8754 183.002 106.534 182.863 c 0,33,34
 113.405 182.721 113.405 182.721 123.143 172.983 c 2,17,-1
EndSplineSet
EndChar

StartChar: arabic_3dots
Encoding: 65538 -1 263
Width: 455
GlyphClass: 2
Flags: W
LayerCount: 2
Fore
SplineSet
242.38 354.073 m 2,0,-1
 321.559 274.893 l 2,1,2
 328.969 267.484 328.969 267.484 329.02 262.888 c 128,-1,3
 329.07 258.37 329.07 258.37 322.059 251.427 c 2,4,-1
 240.059 169.427 l 2,5,6
 231.828 161.195 231.828 161.195 226.401 161.141 c 128,-1,7
 221.044 161.087 221.044 161.087 213.273 168.927 c 2,8,-1
 131.222 250.977 l 2,9,10
 124.347 257.469 124.347 257.469 124.68 262.841 c 0,11,12
 125.041 268.662 125.041 268.662 134.273 277.893 c 2,13,-1
 210.773 354.393 l 2,14,15
 219.955 363.576 219.955 363.576 226.24 363.624 c 128,-1,16
 232.518 363.673 232.518 363.673 242.38 354.073 c 2,0,-1
364.143 160.983 m 2,17,-1
 442.643 82.4832 l 2,18,19
 450.053 75.0732 450.053 75.0732 450.104 70.4783 c 128,-1,20
 450.153 66.0269 450.153 66.0269 443.143 59.0169 c 2,21,-1
 361.143 -22.983 l 2,22,23
 352.911 -31.2149 352.911 -31.2149 347.484 -31.2689 c 128,-1,24
 342.196 -31.322 342.196 -31.322 334.357 -23.4831 c 2,25,-1
 252.357 58.5169 l 2,26,27
 245.453 65.4206 245.453 65.4206 245.763 70.4307 c 0,28,29
 246.124 76.2504 246.124 76.2504 255.357 85.4831 c 2,30,-1
 331.856 161.983 l 2,31,32
 340.875 171.001 340.875 171.001 347.533 170.864 c 0,33,34
 354.405 170.722 354.405 170.722 364.143 160.983 c 2,17,-1
123.143 160.983 m 2,35,-1
 201.643 82.4832 l 2,36,37
 209.053 75.0729 209.053 75.0729 209.104 70.4783 c 128,-1,38
 209.153 66.0267 209.153 66.0267 202.143 59.0169 c 2,39,-1
 120.144 -22.983 l 2,40,41
 111.911 -31.2149 111.911 -31.2149 106.484 -31.2689 c 128,-1,42
 101.196 -31.322 101.196 -31.322 93.3568 -23.4831 c 2,43,-1
 10.9532 58.9205 l 2,44,45
 4.47233 65.7291 4.47233 65.7291 4.76387 70.431 c 0,46,47
 5.12442 76.2506 5.12442 76.2506 14.3568 85.4831 c 2,48,-1
 90.8568 161.983 l 2,49,50
 99.8749 171.001 99.8749 171.001 106.533 170.864 c 0,51,52
 113.405 170.722 113.405 170.722 123.143 160.983 c 2,35,-1
EndSplineSet
EndChar

StartChar: arabic_3dots_a
Encoding: 65539 -1 264
Width: 454
GlyphClass: 2
Flags: W
LayerCount: 2
Fore
SplineSet
237.093 -8.85352 m 6,0,-1
 315.894 -87.6543 l 6,1,2
 323.303 -95.0645 323.303 -95.0645 323.354 -99.6602 c 132,-1,3
 323.404 -104.178 323.404 -104.178 316.394 -111.121 c 6,4,-1
 234.394 -193.121 l 6,5,6
 226.162 -201.353 226.162 -201.353 220.734 -201.407 c 132,-1,7
 215.378 -201.461 215.378 -201.461 207.606 -193.621 c 6,8,-1
 125.556 -111.571 l 6,9,10
 118.682 -105.079 118.682 -105.079 119.015 -99.707 c 4,11,12
 119.375 -93.8867 119.375 -93.8867 128.606 -84.6543 c 6,13,-1
 205.37 -7.8916 l 6,14,15
 214.685 0.956055 214.685 0.956055 221.005 0.720703 c 132,-1,16
 227.507 0.479492 227.507 0.479492 237.093 -8.85352 c 6,0,-1
363.004 181.123 m 2,17,-1
 441.644 102.483 l 2,18,19
 449.053 95.0742 449.053 95.0742 449.104 90.4775 c 128,-1,20
 449.153 86.0264 449.153 86.0264 442.144 79.0166 c 2,21,-1
 360.144 -2.9834 l 2,22,23
 351.912 -11.2148 351.912 -11.2148 346.484 -11.2695 c 128,-1,24
 341.195 -11.3223 341.195 -11.3223 333.356 -3.4834 c 2,25,-1
 251.306 78.5684 l 2,26,27
 244.453 85.421 244.453 85.421 244.764 90.4307 c 0,28,29
 245.124 96.251 245.124 96.251 254.356 105.483 c 2,30,-1
 330.872 181.999 l 2,31,32
 339.874 191.001 339.874 191.001 346.533 190.864 c 0,33,34
 353.405 190.722 353.405 190.722 363.004 181.123 c 2,17,-1
123.144 180.983 m 2,35,-1
 201.644 102.483 l 2,36,37
 209.053 95.0742 209.053 95.0742 209.104 90.4775 c 128,-1,38
 209.153 86.0264 209.153 86.0264 202.144 79.0166 c 2,39,-1
 120.144 -2.9834 l 2,40,41
 111.912 -11.2148 111.912 -11.2148 106.484 -11.2695 c 128,-1,42
 101.195 -11.3223 101.195 -11.3223 93.3564 -3.4834 c 2,43,-1
 11.3057 78.5674 l 2,44,45
 4.4541 85.4189 4.4541 85.4189 4.76367 90.4307 c 0,46,47
 5.12402 96.251 5.12402 96.251 14.3564 105.483 c 2,48,-1
 90.8721 181.999 l 2,49,50
 99.874 191.001 99.874 191.001 106.533 190.864 c 0,51,52
 113.405 190.722 113.405 190.722 123.144 180.983 c 2,35,-1
EndSplineSet
EndChar

StartChar: uni066E.fina
Encoding: 65540 -1 265
Width: 1776
VWidth: 2291
GlyphClass: 2
Flags: W
AnchorPoint: "Anchor-10" 699.344 1103.48 basechar 0
AnchorPoint: "Anchor-7" 699.344 -210.389 basechar 0
LayerCount: 2
Fore
SplineSet
848.662 0 m 0,0,1
 413.88 -3.99805 413.88 -3.99805 276.668 69.2324 c 0,2,3
 84.7091 170.35 84.7091 170.35 91.3027 476.599 c 0,4,5
 94 603.155 94 603.155 145.753 704.154 c 1,6,7
 201.662 675.603 l 1,8,9
 190.113 623.748 190.113 623.748 184.763 575 c 0,10,11
 179.543 528.021 179.543 528.021 181.479 473.573 c 0,12,13
 190.022 239.809 190.022 239.809 528.668 190.232 c 0,14,15
 611.714 178.075 611.714 178.075 963.263 178.172 c 0,16,17
 1183.09 178.233 1183.09 178.233 1324.67 258.232 c 4,18,19
 1398.74 300.088 1398.74 300.088 1452.67 358.232 c 0,20,21
 1519.3 430.074 1519.3 430.074 1552.67 560.232 c 9,22,-1
 1604.66 548.068 l 1,23,24
 1597.66 496.696 1597.66 496.696 1599 421 c 0,25,26
 1602.58 219.481 1602.58 219.481 1753.17 183.895 c 2,27,-1
 1776 178.5 l 1,28,-1
 1786.24 178.895 l 1,29,-1
 1786.24 -0.118164 l 1,30,-1
 1775.33 0.574219 l 1,31,-1
 1771.94 0.881836 l 2,32,33
 1527.08 23.1009 1527.08 23.1009 1524 297.676 c 1,34,35
 1496.52 221.078 1496.52 221.078 1364.66 131.067 c 0,36,37
 1173.34 1.98614 1173.34 1.98614 848.662 0 c 0,0,1
EndSplineSet
EndChar

StartChar: uni06A1.fina
Encoding: 65543 -1 268
Width: 1893
VWidth: 2288
GlyphClass: 2
Flags: W
AnchorPoint: "Anchor-10" 509.221 1212.58 basechar 0
AnchorPoint: "Anchor-7" 622.641 -261.885 basechar 0
LayerCount: 2
Fore
SplineSet
1278.54 489.433 m 128,-1,1
 1278.54 427.301 1278.54 427.301 1327.71 379.476 c 128,-1,2
 1376.87 331.65 1376.87 331.65 1446.56 331.65 c 128,-1,3
 1516.24 331.65 1516.24 331.65 1565.41 379.475 c 128,-1,4
 1614.58 427.299 1614.58 427.299 1614.58 489.429 c 128,-1,5
 1614.58 551.56 1614.58 551.56 1565.49 605.001 c 128,-1,6
 1516.24 658.611 1516.24 658.611 1446.56 658.611 c 128,-1,7
 1376.88 658.611 1376.88 658.611 1327.63 605.001 c 128,-1,0
 1278.54 551.565 1278.54 551.565 1278.54 489.433 c 128,-1,1
1345.54 228.455 m 1,8,9
 1210.93 282.901 1210.93 282.901 1173.59 423.205 c 0,10,11
 1151.76 505.251 1151.76 505.251 1172.41 590.17 c 0,12,13
 1207.85 733.553 1207.85 733.553 1329.28 789.445 c 0,14,15
 1381.98 814.165 1381.98 814.165 1450.21 814.63 c 0,16,17
 1527.1 815.12 1527.1 815.12 1585.08 782.361 c 0,18,19
 1681.38 728.121 1681.38 728.121 1713.29 615.104 c 0,20,21
 1739.24 521.393 1739.24 521.393 1711.29 419.405 c 0,22,23
 1681.26 305.905 1681.26 305.905 1543.14 227.505 c 1,24,25
 1657.92 176.581 1657.92 176.581 1862.69 178.6 c 2,26,-1
 1903.86 179.006 l 1,27,-1
 1903.86 0 l 1,28,-1
 1858.48 0 l 2,29,30
 1597.18 -6.06318e-06 1597.18 -6.06318e-06 1436.78 111.567 c 2,31,-1
 1433.85 113.605 l 1,32,-1
 1430.86 111.647 l 2,33,34
 1294.36 22.2603 1294.36 22.2603 1106.78 10.4805 c 2,35,-1
 929.564 -0.648438 l 0,36,37
 444.867 -19.7295 444.867 -19.7295 276.668 69.2324 c 0,38,39
 84.709 170.35 84.709 170.35 91.3027 476.599 c 0,40,41
 94 603.155 94 603.155 145.753 704.154 c 1,42,-1
 200.972 675.603 l 1,43,44
 191.713 630.021 191.713 630.021 184.763 575 c 0,45,46
 179.386 532.433 179.386 532.433 181.479 473.573 c 0,47,48
 190.022 239.81 190.022 239.81 528.668 190.232 c 0,49,50
 611.714 178.075 611.714 178.075 963.263 178.172 c 0,51,-1
 1005.76 178.6 l 2,52,53
 1238.24 180.941 1238.24 180.941 1345.54 228.455 c 1,8,9
EndSplineSet
EndChar

StartChar: uni06A1.init
Encoding: 65544 -1 269
Width: 676
VWidth: 2307
GlyphClass: 2
Flags: W
AnchorPoint: "Anchor-10" 435.699 1270 basechar 0
AnchorPoint: "Anchor-7" 340.299 -208.172 basechar 0
LayerCount: 2
Fore
SplineSet
309.348 768.604 m 4,0,1
 202.53 766.424 202.53 766.424 178.348 629.604 c 4,2,3
 162.079 534.495 162.079 534.495 236.098 509.822 c 4,4,5
 341.098 474.822 341.098 474.822 478.348 520.603 c 5,6,7
 479.894 599.232 479.894 599.232 451.348 662 c 4,8,9
 403.186 769.547 403.186 769.547 309.348 768.604 c 4,0,1
584.516 335.225 m 4,10,11
 558.837 155.407 558.837 155.407 384.912 56.7979 c 0,12,13
 283.019 -0.971679 283.019 -0.971679 145.861 -0.97168 c 2,14,-1
 -10.1064 -0.97168 l 1,15,-1
 -10.1064 178.147 l 1,16,-1
 57.7773 178.147 l 2,17,18
 250.032 178.147 250.032 178.147 288.671 189.828 c 0,19,20
 445.979 238.602 445.979 238.602 469.516 347.225 c 5,21,22
 392.848 327 392.848 327 293.348 336.5 c 4,23,24
 175.258 349.222 175.258 349.222 120.135 435.146 c 4,25,26
 71.1396 511.637 71.1396 511.637 83.1348 624.548 c 4,27,28
 100.994 803.485 100.994 803.485 197.348 896.604 c 4,29,30
 250.57 948.039 250.57 948.039 345.348 940 c 4,31,32
 413.859 933.843 413.859 933.843 481.348 858 c 4,33,34
 562.809 767.942 562.809 767.942 583.03 601.987 c 4,35,36
 600.798 448.562 600.798 448.562 584.516 335.225 c 4,10,11
EndSplineSet
EndChar

StartChar: uni06A1.medi
Encoding: 65545 -1 270
Width: 970
VWidth: 2288
GlyphClass: 2
Flags: W
AnchorPoint: "Anchor-10" 511.04 1043.65 basechar 0
AnchorPoint: "Anchor-7" 511.04 -203.966 basechar 0
LayerCount: 2
Fore
SplineSet
312.059 490.886 m 132,-1,1
 312.059 428.754 312.059 428.754 361.227 380.929 c 132,-1,2
 410.395 333.104 410.395 333.104 480.08 333.104 c 132,-1,3
 549.765 333.104 549.765 333.104 598.932 380.928 c 132,-1,4
 648.099 428.752 648.099 428.752 648.099 490.882 c 132,-1,5
 648.099 553.013 648.099 553.013 599.011 606.454 c 132,-1,6
 549.763 660.064 549.763 660.064 480.08 660.064 c 132,-1,7
 410.396 660.064 410.396 660.064 361.148 606.454 c 132,-1,0
 312.059 553.019 312.059 553.019 312.059 490.886 c 132,-1,1
618.603 783.814 m 4,8,9
 714.895 729.574 714.895 729.574 746.81 616.558 c 4,10,11
 772.761 522.846 772.761 522.846 744.81 420.858 c 4,12,13
 714.779 307.358 714.779 307.358 576.66 228.958 c 5,14,15
 694.495 176.676 694.495 176.676 934.813 178.353 c 2,16,-1
 992.98 178.759 l 1,17,-1
 992.98 -0.24707 l 1,18,-1
 788.188 -0.766602 l 2,19,20
 637.817 -1.14809 637.817 -1.14809 475.902 111.32 c 2,21,-1
 472.968 113.358 l 1,22,-1
 469.977 111.4 l 2,23,24
 298.634 -0.766602 298.634 -0.766602 145.901 -0.766602 c 2,25,-1
 -20.46 -0.766602 l 1,26,-1
 -20.46 178.353 l 1,27,-1
 44.8838 178.353 l 2,28,29
 262.756 178.353 262.756 178.353 379.06 229.908 c 5,30,31
 244.448 284.354 244.448 284.354 207.11 424.658 c 4,32,33
 185.276 506.704 185.276 506.704 205.932 591.623 c 4,34,35
 241.372 735.006 241.372 735.006 362.801 790.898 c 4,36,37
 415.505 815.618 415.505 815.618 483.728 816.083 c 4,38,39
 560.619 816.573 560.619 816.573 618.603 783.814 c 4,8,9
EndSplineSet
EndChar

StartChar: uni066F.fina
Encoding: 65546 -1 271
Width: 1401
VWidth: 2307
GlyphClass: 2
Flags: W
AnchorPoint: "Anchor-10" 348.271 949.913 basechar 0
AnchorPoint: "Anchor-7" 436.935 -766.036 basechar 0
LayerCount: 2
Fore
SplineSet
1021.45 406.402 m 0,0,1
 910.008 404.129 910.008 404.129 890.451 267.403 c 0,2,3
 878.326 180.389 878.326 180.389 951.479 173.188 c 0,4,5
 1084.9 158.749 1084.9 158.749 1190.45 175.401 c 1,6,7
 1191.96 251.537 1191.96 251.537 1168.45 306.402 c 0,8,9
 1124.81 408.249 1124.81 408.249 1021.45 406.402 c 0,0,1
1292.74 178.521 m 0,10,11
 1415.98 178.898 l 1,12,-1
 1415.98 -0.0869141 l 1,13,-1
 1291.75 -0.0869141 l 1,14,15
 1292.81 -54.1465 1292.81 -54.1465 1282.21 -105.868 c 0,16,17
 1197.78 -517.827 1197.78 -517.827 651.355 -528.928 c 0,18,19
 311.702 -535.507 311.702 -535.507 173.396 -342.848 c 0,20,21
 64.6113 -192.339 64.6113 -192.339 123.886 81.1162 c 0,22,23
 138.575 148.884 138.575 148.884 172.631 247.071 c 0,24,25
 211.333 359.129 211.333 359.129 216.483 372.129 c 1,26,-1
 293.48 326.6 l 1,27,28
 174.74 27.5488 174.74 27.5488 246.876 -155.583 c 0,29,30
 325.523 -355.245 325.523 -355.245 635.55 -359.083 c 0,31,32
 1142.23 -365.355 1142.23 -365.355 1181.62 2.02344 c 5,33,34
 1148.48 0 1148.48 0 1011.34 1.43945 c 0,35,36
 877.007 3.81348 877.007 3.81348 832.238 72.9453 c 0,37,38
 783.244 149.436 783.244 149.436 795.238 262.347 c 0,39,40
 814.957 447.97 814.957 447.97 909.451 534.402 c 0,41,42
 973.873 593.714 973.873 593.714 1055.45 586.799 c 0,43,44
 1122.09 581.336 1122.09 581.336 1183.45 518.799 c 0,45,46
 1275.48 425 1275.48 425 1292.74 178.521 c 0,10,11
EndSplineSet
EndChar

StartChar: arabic_ring
Encoding: 65549 -1 274
Width: 438
GlyphClass: 2
Flags: W
LayerCount: 2
Fore
SplineSet
316 220 m 4,0,1
 316 260 316 260 288 288 c 4,2,3
 260 317 260 317 219 317 c 132,-1,4
 178 317 178 317 150 289 c 132,-1,5
 122 261 122 261 122 220 c 4,6,7
 122 178 122 178 150 150 c 4,8,9
 178 123 178 123 219 123 c 132,-1,10
 260 123 260 123 288 151 c 132,-1,11
 316 179 316 179 316 220 c 4,0,1
438 220 m 132,-1,13
 438 128 438 128 375 64 c 4,14,15
 311 0 311 0 219 0 c 132,-1,16
 127 0 127 0 64 64 c 4,17,18
 0 128 0 128 0 220 c 132,-1,19
 0 312 0 312 64 376 c 4,20,21
 127 439 127 439 219 439 c 132,-1,22
 311 439 311 439 375 376 c 5,23,12
 438 312 438 312 438 220 c 132,-1,13
EndSplineSet
EndChar

StartChar: arabic_gaf_bar
Encoding: 65550 -1 275
Width: 674
GlyphClass: 2
Flags: W
LayerCount: 2
Fore
SplineSet
621 1647.8 m 9,0,-1
 0 1321 l 1,1,2
 47 1459.8 l 9,3,-1
 666 1782 l 1,4,5
 621 1647.8 l 9,0,-1
EndSplineSet
EndChar

StartChar: uni066E.init.math
Encoding: 65560 -1 285
Width: 909
VWidth: 2293
GlyphClass: 2
Flags: W
LayerCount: 2
Fore
SplineSet
588.064 80.9707 m 0,0,1
 511.546 -9.67969 511.546 -9.67969 343.01 -9.67969 c 2,2,-1
 -23.5381 -9.67969 l 1,3,-1
 -23.5381 160.853 l 1,4,-1
 280.629 160.853 l 2,5,6
 400.819 160.853 400.819 160.853 456.311 216.346 c 0,7,8
 517.476 277.51 517.476 277.51 517.476 405.639 c 2,9,-1
 517.476 632.68 l 1,10,-1
 688.008 632.68 l 1,11,-1
 688.008 405.639 l 2,12,13
 688.008 201.073 688.008 201.073 588.064 80.9707 c 0,0,1
EndSplineSet
EndChar

StartChar: guillemotleft
Encoding: 171 171 286
Width: 995
Flags: W
LayerCount: 2
Fore
SplineSet
473.859 931.098 m 1,0,-1
 339.889 931.098 l 1,1,-1
 331.057 917.129 l 2,2,3
 258.416 802.234 258.416 802.234 222.08 692.026 c 0,4,5
 185.055 579.72 185.055 579.72 185.055 468.617 c 0,6,7
 185.055 357.089 185.055 357.089 222.07 244.278 c 0,8,9
 258.422 133.541 258.422 133.541 331.08 19.0996 c 2,10,-1
 339.918 5.17773 l 1,11,-1
 473.945 5.17773 l 1,12,-1
 448.322 50.0527 l 2,13,14
 389.045 153.868 389.045 153.868 359.502 256.018 c 0,15,16
 329.055 361.295 329.055 361.295 329.055 468.617 c 128,-1,17
 329.055 575.917 329.055 575.917 359.49 680.456 c 0,18,19
 389.045 781.967 389.045 781.967 448.365 886.268 c 2,20,-1
 473.859 931.098 l 1,0,-1
849.859 931.098 m 1,21,-1
 715.889 931.098 l 1,22,-1
 707.057 917.129 l 2,23,24
 634.416 802.234 634.416 802.234 598.08 692.026 c 0,25,26
 561.055 579.72 561.055 579.72 561.055 468.617 c 0,27,28
 561.055 357.089 561.055 357.089 598.07 244.278 c 0,29,30
 634.422 133.541 634.422 133.541 707.08 19.0996 c 2,31,-1
 715.918 5.17773 l 1,32,-1
 849.945 5.17773 l 1,33,-1
 824.322 50.0527 l 2,34,35
 765.045 153.868 765.045 153.868 735.502 256.018 c 0,36,37
 705.055 361.295 705.055 361.295 705.055 468.617 c 128,-1,38
 705.055 575.917 705.055 575.917 735.49 680.456 c 0,39,40
 765.045 781.967 765.045 781.967 824.365 886.268 c 2,41,-1
 849.859 931.098 l 1,21,-1
EndSplineSet
EndChar

StartChar: guillemotright
Encoding: 187 187 287
Width: 995
Flags: W
LayerCount: 2
Fore
SplineSet
521.141 931.098 m 1,0,-1
 655.111 931.098 l 1,1,-1
 663.943 917.129 l 2,2,3
 736.584 802.234 736.584 802.234 772.92 692.026 c 0,4,5
 809.945 579.72 809.945 579.72 809.945 468.617 c 0,6,7
 809.945 357.089 809.945 357.089 772.93 244.278 c 0,8,9
 736.578 133.541 736.578 133.541 663.92 19.0996 c 2,10,-1
 655.082 5.17773 l 1,11,-1
 521.055 5.17773 l 1,12,-1
 546.678 50.0527 l 2,13,14
 605.955 153.868 605.955 153.868 635.498 256.018 c 0,15,16
 665.945 361.295 665.945 361.295 665.945 468.617 c 128,-1,17
 665.945 575.917 665.945 575.917 635.51 680.456 c 0,18,19
 605.955 781.967 605.955 781.967 546.635 886.268 c 2,20,-1
 521.141 931.098 l 1,0,-1
145.141 931.098 m 1,21,-1
 279.111 931.098 l 1,22,-1
 287.943 917.129 l 2,23,24
 360.584 802.234 360.584 802.234 396.92 692.026 c 0,25,26
 433.945 579.72 433.945 579.72 433.945 468.617 c 0,27,28
 433.945 357.089 433.945 357.089 396.93 244.278 c 0,29,30
 360.578 133.541 360.578 133.541 287.92 19.0996 c 2,31,-1
 279.082 5.17773 l 1,32,-1
 145.055 5.17773 l 1,33,-1
 170.678 50.0527 l 2,34,35
 229.955 153.868 229.955 153.868 259.498 256.018 c 0,36,37
 289.945 361.295 289.945 361.295 289.945 468.617 c 128,-1,38
 289.945 575.917 289.945 575.917 259.51 680.456 c 0,39,40
 229.955 781.967 229.955 781.967 170.635 886.268 c 2,41,-1
 145.141 931.098 l 1,21,-1
EndSplineSet
EndChar

StartChar: NameMe.337
Encoding: 65562 -1 294
Width: 615
VWidth: 2181
Flags: W
LayerCount: 2
Fore
SplineSet
273.32 94.5264 m 6,0,1
 188.675 -4.05053e-07 188.675 -4.05053e-07 80.7002 0 c 6,2,-1
 -20.4004 0 l 5,3,-1
 -20.4004 168.98 l 5,4,-1
 21.8496 168.98 l 6,5,6
 127.746 168.98 127.746 168.98 186.495 221.642 c 4,7,8
 253.047 281.38 253.047 281.38 247.29 400.31 c 6,9,-1
 208.29 1205.96 l 5,10,-1
 365.17 1275.96 l 5,11,-1
 365.17 400.31 l 6,12,13
 365.17 280.933 365.17 280.933 395.729 237.004 c 4,14,15
 443.051 168.98 443.051 168.98 594.61 168.98 c 6,16,-1
 635.86 168.98 l 5,17,-1
 635.86 0 l 5,18,-1
 535.76 0 l 6,19,20
 386.989 -1.40678e-05 386.989 -1.40678e-05 299.987 94.6973 c 6,21,-1
 286.56 109.312 l 5,22,-1
 273.32 94.5264 l 6,0,1
EndSplineSet
EndChar

StartChar: NameMe.338
Encoding: 65563 -1 295
Width: 532
VWidth: 2181
Flags: W
LayerCount: 2
Fore
SplineSet
393.17 436.69 m 2,0,1
 393.17 192.801 393.17 192.801 289.385 90.0967 c 4,2,3
 195.617 0 195.617 0 54.7002 0 c 2,4,-1
 -20.4004 0 l 1,5,-1
 -20.4004 168.98 l 1,6,-1
 12.8496 168.98 l 2,7,8
 152 168.98 152 168.98 215.957 248.894 c 0,9,10
 278.635 327.221 278.635 327.221 273.29 449.53 c 2,11,-1
 235.29 1319.03 l 1,12,-1
 393.17 1389.03 l 1,13,-1
 393.17 436.69 l 2,0,1
EndSplineSet
EndChar

StartChar: exclam
Encoding: 33 33 298
Width: 819
VWidth: 0
Flags: W
LayerCount: 2
Fore
SplineSet
508.015 184.68 m 2,0,-1
 508.015 21.6602 l 2,1,2
 508.015 8.375 508.015 8.375 504.684 4.1875 c 128,-1,3
 501.354 0 501.354 0 493.195 0 c 2,4,-1
 331.315 0 l 2,5,6
 320.941 0 320.941 0 317.008 4.38281 c 128,-1,7
 313.075 8.76465 313.075 8.76465 313.075 21.6602 c 2,8,-1
 313.075 183.54 l 2,9,10
 313.075 195.047 313.075 195.047 316.868 198.983 c 128,-1,11
 320.66 202.92 320.66 202.92 331.315 202.92 c 2,12,-1
 489.775 202.92 l 2,13,14
 500.572 202.92 500.572 202.92 504.293 199.198 c 128,-1,15
 508.015 195.477 508.015 195.477 508.015 184.68 c 2,0,-1
319 1404 m 1,16,-1
 502 1404 l 5,17,-1
 483 355 l 1,18,-1
 339 355 l 1,19,-1
 319 1404 l 1,16,-1
EndSplineSet
EndChar

StartChar: period
Encoding: 46 46 299
Width: 654
VWidth: 2054
Flags: W
LayerCount: 2
Fore
SplineSet
437.015 184.68 m 6,0,-1
 437.015 21.6602 l 6,1,2
 437.015 8.375 437.015 8.375 433.684 4.1875 c 132,-1,3
 430.354 0 430.354 0 422.195 0 c 6,4,-1
 260.315 0 l 6,5,6
 249.941 0 249.941 0 246.008 4.38281 c 132,-1,7
 242.075 8.76465 242.075 8.76465 242.075 21.6602 c 6,8,-1
 242.075 183.54 l 6,9,10
 242.075 195.047 242.075 195.047 245.868 198.983 c 132,-1,11
 249.66 202.92 249.66 202.92 260.315 202.92 c 6,12,-1
 418.775 202.92 l 6,13,14
 429.572 202.92 429.572 202.92 433.293 199.198 c 132,-1,15
 437.015 195.477 437.015 195.477 437.015 184.68 c 6,0,-1
EndSplineSet
EndChar

StartChar: colon
Encoding: 58 58 300
Width: 654
VWidth: 2054
Flags: W
LayerCount: 2
Fore
SplineSet
437.015 707.68 m 2,0,-1
 437.015 544.66 l 2,1,2
 437.015 531.375 437.015 531.375 433.684 527.188 c 128,-1,3
 430.354 523 430.354 523 422.195 523 c 2,4,-1
 260.315 523 l 2,5,6
 249.941 523 249.941 523 246.008 527.383 c 128,-1,7
 242.075 531.765 242.075 531.765 242.075 544.66 c 2,8,-1
 242.075 706.54 l 2,9,10
 242.075 718.047 242.075 718.047 245.868 721.983 c 128,-1,11
 249.66 725.92 249.66 725.92 260.315 725.92 c 2,12,-1
 418.775 725.92 l 2,13,14
 429.572 725.92 429.572 725.92 433.293 722.198 c 128,-1,15
 437.015 718.477 437.015 718.477 437.015 707.68 c 2,0,-1
437.015 184.68 m 2,16,-1
 437.015 21.6602 l 2,17,18
 437.015 8.375 437.015 8.375 433.684 4.1875 c 128,-1,19
 430.354 0 430.354 0 422.195 0 c 2,20,-1
 260.315 0 l 2,21,22
 249.941 0 249.941 0 246.008 4.38281 c 128,-1,23
 242.075 8.76465 242.075 8.76465 242.075 21.6602 c 2,24,-1
 242.075 183.54 l 2,25,26
 242.075 195.047 242.075 195.047 245.868 198.983 c 128,-1,27
 249.66 202.92 249.66 202.92 260.315 202.92 c 2,28,-1
 418.775 202.92 l 2,29,30
 429.572 202.92 429.572 202.92 433.293 199.198 c 128,-1,31
 437.015 195.477 437.015 195.477 437.015 184.68 c 2,16,-1
EndSplineSet
EndChar
